<?xml version="1.0" standalone="no"?>
<!DOCTYPE svg PUBLIC "-//W3C//DTD SVG 1.1//EN" "http://www.w3.org/Graphics/SVG/1.1/DTD/svg11.dtd" >
<svg xmlns="http://www.w3.org/2000/svg" xmlns:xlink="http://www.w3.org/1999/xlink" version="1.1">
<metadata>
Created by FontForge 20170924 at Sun Feb 23 17:30:33 2014
 By www-data
\251 2012, 2013, 2014 by Stawix Ruecha &#38; Foundry. All rights reserved.
</metadata>
<defs>
<font id="CriqueGrotesk-Light" horiz-adv-x="572" >
  <font-face 
    font-family="Crique Grotesk Light"
    font-weight="300"
    font-stretch="normal"
    units-per-em="1000"
    panose-1="2 11 3 3 2 2 2 2 2 4"
    ascent="800"
    descent="-200"
    x-height="502"
    cap-height="690"
    bbox="-66 -200 2186 892"
    underline-thickness="35"
    underline-position="-100"
    stemh="55"
    stemv="60"
    unicode-range="U+0020-FB02"
  />
<missing-glyph horiz-adv-x="492" 
d="M0 690h492v-690h-492v690zM443 94v503l-168 -252zM49 597v-503l168 251zM246 389l168 252h-335zM246 301l-167 -252h334z" />
    <glyph glyph-name="fi" unicode="fi" horiz-adv-x="465" 
d="M332 0v451h-170v-451h-56v451h-70v51h70v58c0 88 40 139 139 139c43 0 74 -8 97 -16v-49c-23 8 -54 14 -87 14c-69 0 -93 -30 -93 -88v-58h227v-502h-57z" />
    <glyph glyph-name="fl" unicode="fl" horiz-adv-x="486" 
d="M162 560v-58h121v-51h-121v-451h-56v451h-70v51h70v58c0 85 40 139 159 139c54 0 100 -9 143 -22v-677h-57v637c-23 6 -54 11 -85 11c-80 0 -104 -30 -104 -88z" />
    <glyph glyph-name=".notdef" horiz-adv-x="492" 
d="M0 690h492v-690h-492v690zM443 94v503l-168 -252zM49 597v-503l168 251zM246 389l168 252h-335zM246 301l-167 -252h334z" />
    <glyph glyph-name="space" unicode=" " horiz-adv-x="273" 
 />
    <glyph glyph-name="exclam" unicode="!" horiz-adv-x="220" 
d="M88 188l-10 502h64l-10 -502h-44zM77 0v99h65v-99h-65z" />
    <glyph glyph-name="quotedbl" unicode="&#x22;" horiz-adv-x="302" 
d="M65 690h53l-7 -233h-39zM184 690h53l-6 -233h-40z" />
    <glyph glyph-name="numbersign" unicode="#" 
d="M66 415v54h105l26 191h59l-26 -191h149l27 191h58l-26 -191h96v-54h-103l-22 -159h97v-54h-104l-27 -202h-59l27 202h-149l-28 -202h-58l27 202h-98v54h105l22 159h-98zM222 416l-22 -161h151l22 161h-151z" />
    <glyph glyph-name="dollar" unicode="$" 
d="M264 -110v99c-135 9 -219 79 -220 223h56c2 -120 83 -172 193 -172c108 0 174 41 174 139v2c0 80 -42 114 -142 129l-71 11c-121 19 -195 59 -195 174v2c0 124 87 171 205 175v98h50v-99c129 -10 193 -77 195 -195h-57c-4 99 -57 144 -173 144c-92 0 -162 -28 -162 -123
v-2c0 -79 51 -104 148 -119l71 -11c131 -20 188 -72 188 -184v-2c0 -130 -83 -185 -210 -191v-98h-50z" />
    <glyph glyph-name="percent" unicode="%" horiz-adv-x="732" 
d="M119 0l443 660h51l-442 -660h-52zM289 506v2c0 76 -24 117 -92 117s-92 -41 -92 -117v-2c0 -76 24 -117 92 -117s92 41 92 117zM58 506v2c0 100 44 159 139 159s139 -59 139 -159v-2c0 -100 -44 -159 -139 -159s-139 59 -139 159zM628 153v2c0 76 -24 117 -92 117
c-69 0 -92 -41 -92 -117v-2c0 -76 23 -117 92 -117c68 0 92 41 92 117zM396 153v2c0 100 45 159 140 159c94 0 139 -59 139 -159v-2c0 -100 -45 -159 -139 -159c-95 0 -140 59 -140 159z" />
    <glyph glyph-name="ampersand" unicode="&#x26;" horiz-adv-x="612" 
d="M373 260l42 30l184 -264l-42 -30l-76 108c-29 -61 -91 -117 -204 -117c-131 0 -226 73 -226 214v2c0 117 66 173 143 190v2c-42 19 -86 62 -86 142v2c0 92 55 164 190 164c142 0 182 -69 187 -181h-60c-2 84 -28 128 -129 128c-90 0 -129 -47 -129 -112v-2
c0 -73 43 -120 117 -120h263v-54h-260c-123 0 -176 -54 -176 -159v-2c0 -106 71 -161 172 -161c94 0 146 51 165 113z" />
    <glyph glyph-name="quoteright" unicode="&#x2019;" horiz-adv-x="197" 
d="M61 473v29c24 8 31 33 31 89h-31v99h73v-97c0 -75 -30 -109 -73 -120z" />
    <glyph glyph-name="parenleft" unicode="(" horiz-adv-x="253" 
d="M115 281c0 -147 32 -299 122 -439h-54c-79 122 -126 261 -126 439s47 317 126 439h54c-90 -140 -122 -292 -122 -439z" />
    <glyph glyph-name="parenright" unicode=")" horiz-adv-x="253" 
d="M138 281c0 147 -31 299 -122 439h54c79 -122 126 -261 126 -439s-47 -317 -126 -439h-54c91 140 122 292 122 439z" />
    <glyph glyph-name="asterisk" unicode="*" horiz-adv-x="376" 
d="M164 690h48l-4 -118l112 44l16 -49l-115 -33l81 -89l-42 -32l-72 101l-72 -101l-42 32l81 89l-115 33l16 49l112 -44z" />
    <glyph glyph-name="plus" unicode="+" horiz-adv-x="552" 
d="M50 277h200v199h52v-199h200v-52h-200v-199h-52v199h-200v52z" />
    <glyph glyph-name="comma" unicode="," horiz-adv-x="194" 
d="M62 -116v29c24 8 31 31 31 87h-31v99h71v-97c0 -76 -29 -106 -71 -118z" />
    <glyph glyph-name="hyphen" unicode="-" horiz-adv-x="324" 
d="M46 327h231v-53h-231v53z" />
    <glyph glyph-name="period" unicode="." horiz-adv-x="194" 
d="M64 0v99h66v-99h-66z" />
    <glyph glyph-name="slash" unicode="/" horiz-adv-x="336" 
d="M60 -30h-54l271 750h52z" />
    <glyph glyph-name="zero" unicode="0" horiz-adv-x="591" 
d="M46 329v2c0 198 58 341 250 341c191 0 249 -143 249 -341v-2c0 -198 -58 -341 -249 -341c-192 0 -250 143 -250 341zM484 329v2c0 170 -43 287 -188 287c-146 0 -189 -117 -189 -287v-2c0 -170 43 -287 189 -287c145 0 188 117 188 287z" />
    <glyph glyph-name="one" unicode="1" horiz-adv-x="345" 
d="M156 0v594c-30 -14 -78 -29 -130 -30v48c51 3 110 25 146 51h43v-663h-59z" />
    <glyph glyph-name="two" unicode="2" horiz-adv-x="550" 
d="M116 54h379v-54h-442v32c0 212 375 261 375 451v2c0 92 -52 132 -149 132c-119 0 -158 -50 -160 -150h-58c3 130 63 205 218 205c135 0 209 -61 209 -188v-2c0 -220 -349 -264 -372 -428z" />
    <glyph glyph-name="three" unicode="3" horiz-adv-x="548" 
d="M273 43c108 0 168 48 168 145v2c0 86 -54 137 -148 137h-72v53h76c78 0 126 42 126 116v2c0 88 -57 121 -155 121c-108 0 -160 -51 -162 -152h-59c2 135 75 205 225 205c129 0 210 -52 210 -174v-2c0 -90 -53 -129 -107 -141v-2c73 -14 127 -72 127 -163v-2
c0 -129 -86 -198 -229 -198c-161 0 -235 65 -235 204v11h59v-11c0 -104 52 -151 176 -151z" />
    <glyph glyph-name="four" unicode="4" horiz-adv-x="540" 
d="M374 213v363h-2l-275 -363h277zM373 158h-340v57l340 448h60v-450h89v-55h-89v-158h-60v158z" />
    <glyph glyph-name="five" unicode="5" horiz-adv-x="546" 
d="M465 606h-311l-29 -239h2c38 31 93 52 164 52c126 0 207 -65 207 -209v-2c0 -138 -77 -220 -229 -220s-220 76 -221 211h59c1 -102 47 -158 162 -158c118 0 170 59 170 167v2c0 105 -54 156 -157 156c-71 0 -129 -23 -159 -55h-65l45 349h362v-54z" />
    <glyph glyph-name="six" unicode="6" horiz-adv-x="552" 
d="M108 327h2c38 51 110 92 195 92c127 0 203 -70 203 -210v-2c0 -133 -82 -219 -217 -219c-163 0 -244 110 -244 317c0 221 59 367 245 367c132 0 190 -68 197 -171h-59c-6 70 -47 118 -138 118c-141 0 -184 -121 -184 -292zM296 365c-74 0 -153 -43 -188 -109
c8 -138 67 -215 183 -215c102 0 158 64 158 166v2c0 105 -54 156 -153 156z" />
    <glyph glyph-name="seven" unicode="7" horiz-adv-x="485" 
d="M385 606h-352v54h418v-51c-140 -187 -229 -384 -262 -609h-60c34 230 124 432 256 606z" />
    <glyph glyph-name="eight" unicode="8" horiz-adv-x="559" 
d="M279 41c113 0 177 48 177 137v2c0 88 -64 145 -177 145c-112 0 -176 -57 -176 -145v-2c0 -89 64 -137 176 -137zM279 672c130 0 220 -48 220 -171v-2c0 -80 -58 -133 -126 -146v-2c82 -17 143 -85 143 -171v-2c0 -124 -88 -190 -237 -190c-148 0 -237 66 -237 190v2
c0 86 62 154 144 171v2c-69 13 -126 66 -126 146v2c0 123 89 171 219 171zM279 379c100 0 160 42 160 120v2c0 87 -65 118 -160 118c-94 0 -159 -31 -159 -118v-2c0 -78 60 -120 159 -120z" />
    <glyph glyph-name="nine" unicode="9" horiz-adv-x="552" 
d="M445 333h-2c-39 -51 -111 -92 -195 -92c-127 0 -204 70 -204 210v2c0 133 82 219 218 219c163 0 243 -110 243 -317c0 -221 -56 -367 -242 -367c-132 0 -194 68 -201 171h59c6 -70 51 -118 141 -118c142 0 183 121 183 292zM257 295c74 0 152 43 187 109
c-7 138 -67 215 -182 215c-102 0 -159 -64 -159 -166v-2c0 -105 54 -156 154 -156z" />
    <glyph glyph-name="colon" unicode=":" horiz-adv-x="222" 
d="M78 0v99h66v-99h-66zM78 403v99h66v-99h-66z" />
    <glyph glyph-name="semicolon" unicode=";" horiz-adv-x="222" 
d="M78 403v99h66v-99h-66zM76 -116v29c24 8 31 31 31 87h-31v99h71v-97c0 -76 -29 -106 -71 -118z" />
    <glyph glyph-name="less" unicode="&#x3c;" horiz-adv-x="552" 
d="M64 279l376 238v-58l-306 -193l306 -193v-58l-376 238v26z" />
    <glyph glyph-name="equal" unicode="=" horiz-adv-x="552" 
d="M50 366h452v-50h-452v50zM50 186h452v-50h-452v50z" />
    <glyph glyph-name="greater" unicode="&#x3e;" horiz-adv-x="552" 
d="M112 517l376 -238v-26l-376 -238v58l306 193l-306 193v58z" />
    <glyph glyph-name="question" unicode="?" horiz-adv-x="529" 
d="M263 648c-118 0 -161 -50 -163 -153h-58c1 130 62 208 221 208c136 0 216 -63 216 -186v-2c0 -121 -109 -199 -188 -223v-104h-45l-14 139c86 18 188 90 188 188v2c0 88 -55 131 -157 131zM234 0v99h65v-99h-65z" />
    <glyph glyph-name="at" unicode="@" horiz-adv-x="808" 
d="M748 252v-2c0 -224 -117 -356 -344 -356s-344 132 -344 356v2c0 224 117 356 344 356s344 -132 344 -356zM714 250v2c0 205 -108 322 -310 322s-310 -117 -310 -322v-2c0 -205 108 -322 310 -322s310 117 310 322zM527 374h2l1 72h48v-392h-48c0 18 0 59 -3 71
c-18 -44 -66 -79 -137 -79c-111 0 -172 74 -172 203v2c0 128 61 204 171 204c74 0 121 -41 138 -81zM528 218v64c0 76 -54 127 -136 127c-85 0 -121 -55 -121 -158v-2c0 -102 36 -158 123 -158c81 0 134 50 134 127z" />
    <glyph glyph-name="A" unicode="A" horiz-adv-x="597" 
d="M331 690l250 -690h-62l-70 197h-301l-70 -197h-62l251 690h64zM431 250l-131 372h-2l-132 -372h265z" />
    <glyph glyph-name="B" unicode="B" horiz-adv-x="599" 
d="M139 327v-275h186c111 0 171 43 171 141v2c0 92 -62 132 -159 132h-198zM80 0v690h243c146 0 217 -59 217 -179v-2c0 -89 -53 -143 -115 -154v-2c74 -9 131 -60 131 -158v-2c0 -136 -84 -193 -231 -193h-245zM139 638v-258h197c90 0 144 54 144 129v2
c0 90 -51 127 -157 127h-184z" />
    <glyph glyph-name="D" unicode="D" horiz-adv-x="650" 
d="M140 55h150c164 0 242 87 242 289v2c0 202 -74 289 -239 289h-153v-580zM290 0h-210v690h213c206 0 300 -114 300 -344v-2c0 -230 -97 -344 -303 -344z" />
    <glyph glyph-name="E" unicode="E" horiz-adv-x="558" 
d="M508 690v-54h-368v-255h338v-54h-338v-273h372v-54h-432v690h428z" />
    <glyph glyph-name="F" unicode="F" horiz-adv-x="521" 
d="M487 690v-54h-347v-261h311v-54h-311v-321h-60v690h407z" />
    <glyph glyph-name="H" unicode="H" horiz-adv-x="648" 
d="M508 381v309h60v-690h-60v326h-368v-326h-60v690h60v-309h368z" />
    <glyph glyph-name="I" unicode="I" horiz-adv-x="228" 
d="M84 0v690h60v-690h-60z" />
    <glyph glyph-name="J" unicode="J" horiz-adv-x="493" 
d="M85 219v-25c0 -104 32 -152 132 -152c106 0 141 50 141 152v496h59v-496c0 -137 -53 -207 -200 -207c-141 0 -191 70 -191 207v25h59z" />
    <glyph glyph-name="K" unicode="K" horiz-adv-x="594" 
d="M567 690l-296 -301l307 -389h-72l-276 346l-90 -91v-255h-60v690h60v-354l348 354h79z" />
    <glyph glyph-name="L" unicode="L" horiz-adv-x="479" 
d="M452 55v-55h-372v690h60v-635h312z" />
    <glyph glyph-name="M" unicode="M" horiz-adv-x="777" 
d="M636 588l-227 -391h-40l-228 391h-2v-588h-59v690h64l245 -422l244 422h64v-690h-59v588h-2z" />
    <glyph glyph-name="N" unicode="N" horiz-adv-x="658" 
d="M578 690v-690h-62l-375 592h-2v-592h-59v690h62l376 -592h2v592h58z" />
    <glyph glyph-name="O" unicode="O" horiz-adv-x="687" 
d="M343 703c203 0 287 -122 287 -357v-2c0 -235 -84 -357 -287 -357c-202 0 -287 122 -287 357v2c0 235 85 357 287 357zM343 40c162 0 227 99 227 304v2c0 205 -65 304 -227 304c-161 0 -226 -99 -226 -304v-2c0 -205 65 -304 226 -304z" />
    <glyph glyph-name="P" unicode="P" horiz-adv-x="590" 
d="M140 328h168c129 0 174 41 174 154v2c0 112 -44 152 -173 152h-169v-308zM140 274v-274h-60v690h229c169 0 233 -57 233 -206v-2c0 -150 -67 -208 -234 -208h-168z" />
    <glyph glyph-name="Q" unicode="Q" horiz-adv-x="689" 
d="M343 40c161 0 227 99 227 304v2c0 205 -65 304 -227 304c-161 0 -226 -99 -226 -304v-2c0 -205 68 -304 226 -304zM596 -93l-292 72c-173 43 -248 136 -248 365v2c0 235 85 357 287 357c203 0 287 -122 287 -357v-2c0 -207 -70 -321 -224 -341v-3l190 -37v-56z" />
    <glyph glyph-name="R" unicode="R" horiz-adv-x="614" 
d="M140 275v-275h-60v690h240c169 0 232 -56 232 -206v-2c0 -133 -57 -192 -184 -205l203 -277h-68l-201 275h-162zM140 329h179c129 0 174 40 174 153v2c0 112 -44 152 -173 152h-180v-307z" />
    <glyph glyph-name="S" unicode="S" horiz-adv-x="607" 
d="M344 325l-74 12c-127 19 -206 61 -206 181v2c0 135 99 183 232 183c163 0 240 -69 243 -204h-58c-4 104 -62 151 -184 151c-99 0 -174 -31 -174 -130v-2c0 -83 57 -110 158 -126l74 -11c137 -21 202 -77 202 -192v-2c0 -142 -98 -200 -246 -200c-160 0 -264 72 -265 233
h58c2 -126 90 -180 207 -180c115 0 187 43 187 147v2c0 84 -49 120 -154 136z" />
    <glyph glyph-name="T" unicode="T" horiz-adv-x="518" 
d="M501 690v-54h-212v-636h-60v636h-212v54h484z" />
    <glyph glyph-name="U" unicode="U" horiz-adv-x="629" 
d="M315 -13c-165 0 -241 78 -241 255v448h59v-448c0 -143 56 -200 182 -200c125 0 181 57 181 200v448h60v-448c0 -177 -77 -255 -241 -255z" />
    <glyph glyph-name="V" unicode="V" horiz-adv-x="581" 
d="M292 66l210 624h62l-240 -690h-67l-240 690h62l211 -624h2z" />
    <glyph glyph-name="W" unicode="W" horiz-adv-x="907" 
d="M623 0l-169 597h-2l-168 -597h-66l-195 690h61l166 -608h2l170 608h63l170 -608h2l166 608h61l-195 -690h-66z" />
    <glyph glyph-name="X" unicode="X" horiz-adv-x="567" 
d="M546 690l-228 -337l239 -353h-70l-203 303l-204 -303h-70l238 353l-226 337h69l193 -287l192 287h70z" />
    <glyph glyph-name="Y" unicode="Y" horiz-adv-x="576" 
d="M288 336l210 354h68l-248 -414v-276h-60v276l-248 414h68z" />
    <glyph glyph-name="Z" unicode="Z" horiz-adv-x="536" 
d="M95 53h414v-53h-485v51l405 586h-388v53h459v-51z" />
    <glyph glyph-name="bracketleft" unicode="[" horiz-adv-x="253" 
d="M86 720h142v-46h-92v-786h92v-46h-142v878z" />
    <glyph glyph-name="backslash" unicode="\" horiz-adv-x="336" 
d="M329 -30h-53l-270 750h52z" />
    <glyph glyph-name="bracketright" unicode="]" horiz-adv-x="241" 
d="M26 720h141v-878h-141v46h91v786h-91v46z" />
    <glyph glyph-name="quoteleft" unicode="&#x2018;" horiz-adv-x="197" 
d="M136 690v-29c-24 -8 -31 -33 -31 -89h31v-99h-72v97c0 75 29 109 72 120z" />
    <glyph glyph-name="b" unicode="b" horiz-adv-x="574" 
d="M134 409h2c21 52 83 104 178 104c139 0 210 -99 210 -261v-2c0 -164 -71 -261 -210 -261c-92 0 -155 45 -178 102h-2c0 -31 -1 -60 -1 -91h-56v690h57v-281zM135 295v-90c0 -96 68 -165 171 -165c113 0 159 77 159 210v2c0 133 -46 210 -157 210
c-103 0 -173 -72 -173 -167z" />
    <glyph glyph-name="d" unicode="d" horiz-adv-x="574" 
d="M438 409h2v281h57v-690h-55l-2 91h-2c-23 -57 -85 -102 -175 -102c-142 0 -213 97 -213 261v2c0 162 71 261 212 261c94 0 155 -52 176 -104zM439 205v90c0 95 -69 167 -173 167c-110 0 -157 -77 -157 -210v-2c0 -133 47 -210 159 -210c103 0 171 69 171 165z" />
    <glyph glyph-name="e" unicode="e" horiz-adv-x="525" 
d="M295 40c47 0 105 10 158 29v-51c-49 -18 -105 -29 -160 -29c-178 0 -243 94 -243 261v2c0 165 71 261 223 261s205 -92 205 -248c0 -12 -1 -25 -2 -39h-369c2 -118 50 -186 188 -186zM273 463c-113 0 -162 -65 -166 -187h316c0 127 -36 187 -150 187z" />
    <glyph glyph-name="f" unicode="f" horiz-adv-x="307" 
d="M162 502h135v-51h-135v-451h-56v451h-70v51h70v74c0 82 31 122 120 122c24 0 59 -5 80 -11v-50c-23 6 -49 9 -74 9c-53 0 -70 -22 -70 -70v-74z" />
    <glyph glyph-name="g" unicode="g" horiz-adv-x="565" 
d="M432 220v75c0 95 -68 167 -168 167c-106 0 -155 -75 -155 -202v-2c0 -127 49 -203 157 -203c99 0 166 69 166 165zM265 -129c112 0 168 49 168 137v98h-2c-23 -57 -84 -102 -170 -102c-139 0 -211 95 -211 254v2c0 157 72 253 210 253c90 0 150 -52 171 -104h2
c0 31 1 62 1 93h56v-494c0 -122 -81 -188 -223 -188c-68 0 -129 12 -172 29v51c54 -19 111 -29 170 -29z" />
    <glyph glyph-name="h" unicode="h" horiz-adv-x="546" 
d="M77 0v690h57v-281h2c21 56 86 104 177 104c109 0 163 -53 163 -179v-334h-57v334c0 92 -36 127 -114 127c-104 0 -171 -69 -171 -164v-297h-57z" />
    <glyph glyph-name="i" unicode="i" horiz-adv-x="209" 
d="M76 0v502h57v-502h-57zM75 591v99h59v-99h-59z" />
    <glyph glyph-name="j" unicode="j" horiz-adv-x="211" 
d="M77 -52v554h57v-554c0 -84 -33 -125 -118 -125c-22 0 -47 3 -69 10v50c22 -6 45 -9 63 -9c48 0 67 23 67 74zM76 591v99h59v-99h-59z" />
    <glyph glyph-name="k" unicode="k" horiz-adv-x="493" 
d="M77 0v690h57v-417l253 229h77l-226 -205l240 -297h-65l-214 262l-65 -60v-202h-57z" />
    <glyph glyph-name="l" unicode="l" horiz-adv-x="213" 
d="M78 0v690h57v-690h-57z" />
    <glyph glyph-name="m" unicode="m" horiz-adv-x="807" 
d="M435 308v-308h-57v325c0 96 -26 136 -95 136c-94 0 -151 -70 -151 -162v-299h-57v502h55c0 -32 2 -63 2 -95h2c19 54 75 106 162 106c72 0 109 -37 126 -108h2c20 57 77 108 168 108c101 0 145 -59 145 -184v-329h-57v329c0 90 -28 132 -98 132c-92 0 -147 -62 -147 -153
z" />
    <glyph glyph-name="n" unicode="n" horiz-adv-x="544" 
d="M75 0v502h56l1 -95h2c21 57 86 106 177 106c109 0 163 -53 163 -179v-334h-57v334c0 92 -36 127 -114 127c-104 0 -171 -70 -171 -165v-296h-57z" />
    <glyph glyph-name="o" unicode="o" horiz-adv-x="550" 
d="M275 40c119 0 166 76 166 210v2c0 134 -47 210 -166 210c-118 0 -166 -76 -166 -210v-2c0 -134 48 -210 166 -210zM275 513c153 0 225 -96 225 -261v-2c0 -164 -72 -261 -225 -261s-225 97 -225 261v2c0 165 72 261 225 261z" />
    <glyph glyph-name="p" unicode="p" 
d="M134 91h-2v-261h-57v672h56c0 -31 1 -62 1 -93h2c22 56 85 104 176 104c141 0 212 -99 212 -261v-2c0 -164 -70 -261 -209 -261c-95 0 -156 47 -179 102zM133 295v-90c0 -93 68 -165 172 -165c113 0 158 77 158 210v2c0 133 -47 210 -157 210c-103 0 -173 -69 -173 -167z
" />
    <glyph glyph-name="q" unicode="q" 
d="M440 91h-2c-22 -55 -84 -102 -175 -102c-143 0 -213 97 -213 261v2c0 162 71 261 212 261c92 0 154 -49 176 -104h2l2 93h55v-672h-57v261zM439 205v90c0 98 -70 167 -173 167c-110 0 -157 -77 -157 -210v-2c0 -133 46 -210 159 -210c103 0 171 72 171 165z" />
    <glyph glyph-name="r" unicode="r" horiz-adv-x="332" 
d="M75 0v502h56l1 -104h2c20 63 86 117 179 114v-59c-115 0 -181 -65 -181 -179v-274h-57z" />
    <glyph glyph-name="s" unicode="s" horiz-adv-x="500" 
d="M253 40c95 0 145 31 145 94v2c0 56 -40 78 -119 89l-54 7c-107 15 -164 48 -164 140v2c0 86 63 139 189 139c123 0 188 -51 192 -151h-55c-4 68 -47 100 -137 100c-94 0 -133 -36 -133 -88v-2c0 -56 40 -77 118 -87l51 -7c111 -15 168 -52 168 -143v-2
c0 -96 -70 -144 -201 -144s-206 53 -208 160h55c4 -72 60 -109 153 -109z" />
    <glyph glyph-name="t" unicode="t" horiz-adv-x="336" 
d="M300 451h-141v-338c0 -49 22 -68 72 -68c25 0 51 4 73 9v-50c-25 -7 -57 -12 -83 -12c-79 0 -119 34 -119 119v340h-69v51h71l5 142h50v-142h141v-51z" />
    <glyph glyph-name="v" unicode="v" horiz-adv-x="471" 
d="M268 0h-66l-187 502h60l159 -439h2l160 439h60z" />
    <glyph glyph-name="w" unicode="w" horiz-adv-x="722" 
d="M233 0h-60l-152 502h59l123 -423h2l126 423h60l127 -423h2l123 423h58l-152 -502h-60l-127 424h-2z" />
    <glyph glyph-name="x" unicode="x" horiz-adv-x="480" 
d="M456 502l-183 -245l192 -257h-67l-158 214l-159 -214h-66l192 256l-184 246h67l149 -203l151 203h66z" />
    <glyph glyph-name="y" unicode="y" horiz-adv-x="472" 
d="M190 -54l22 58l-198 498h58l167 -430h2l156 430h60l-214 -574c-29 -75 -68 -105 -134 -105c-24 0 -49 4 -67 10v49c17 -5 40 -8 60 -8c47 0 67 19 88 72z" />
    <glyph glyph-name="z" unicode="z" horiz-adv-x="474" 
d="M107 51h328v-51h-398v48l319 403h-305v51h376v-49z" />
    <glyph glyph-name="braceleft" unicode="{" horiz-adv-x="253" 
d="M9 258v46h18c54 0 69 59 69 126v146c0 91 24 144 106 144h32v-46h-32c-46 0 -56 -37 -56 -98v-146c0 -75 -21 -132 -62 -149c41 -17 62 -74 62 -149v-146c0 -61 10 -98 56 -98h32v-46h-32c-82 0 -106 53 -106 144v146c0 67 -15 126 -69 126h-18z" />
    <glyph glyph-name="bar" unicode="|" horiz-adv-x="213" 
d="M82 -170v960h50v-960h-50z" />
    <glyph glyph-name="braceright" unicode="}" horiz-adv-x="253" 
d="M244 304v-46h-17c-55 0 -70 -59 -70 -126v-146c0 -91 -24 -144 -106 -144h-31v46h31c46 0 56 37 56 98v146c0 75 21 132 62 149c-41 17 -62 74 -62 149v146c0 61 -10 98 -56 98h-31v46h31c82 0 106 -53 106 -144v-146c0 -67 15 -126 70 -126h17z" />
    <glyph glyph-name="exclamdown" unicode="&#xa1;" horiz-adv-x="220" 
d="M132 502l10 -502h-64l10 502h44zM142 690v-99h-65v99h65z" />
    <glyph glyph-name="cent" unicode="&#xa2;" 
d="M289 -110v99c-143 8 -214 103 -214 261v2c0 157 68 252 214 260v100h50v-101c107 -9 166 -68 169 -160h-57c-3 70 -49 111 -141 111c-127 0 -176 -76 -176 -210v-2c0 -134 54 -210 175 -210c93 0 145 43 148 113h57c-3 -92 -64 -154 -175 -162v-101h-50z" />
    <glyph glyph-name="sterling" unicode="&#xa3;" 
d="M45 330v47h59c-11 34 -17 71 -17 109v2c0 110 52 184 206 184c137 0 197 -62 200 -171h-59c-4 78 -44 116 -139 116c-112 0 -149 -51 -149 -129v-2c0 -37 7 -73 19 -109h199v-47h-178c23 -47 52 -90 85 -123c-38 -50 -87 -121 -122 -153h227c77 0 97 44 97 120h59
c0 -108 -38 -174 -155 -174h-348v54h24c31 0 37 6 73 52l75 98c-27 31 -57 75 -79 126h-77z" />
    <glyph glyph-name="yen" unicode="&#xa5;" 
d="M101 312v48h106l-198 330h68l209 -354l209 354h68l-198 -330h105v-48h-133l-21 -36v-42h154v-48h-154v-186h-60v186h-155v48h155v42l-21 36h-134z" />
    <glyph glyph-name="florin" unicode="&#x192;" 
d="M200 -48l41 454h-96l5 51h95l6 65c8 87 54 149 153 149c24 0 55 -3 79 -10l-4 -50c-22 6 -47 10 -76 10c-61 0 -90 -36 -95 -99l-6 -65h150l-4 -51h-150l-39 -437c-10 -95 -39 -146 -131 -146c-23 0 -47 3 -69 10l5 50c21 -6 43 -9 62 -9c48 0 70 28 74 78z" />
    <glyph glyph-name="section" unicode="&#xa7;" 
d="M483 -23v-2c0 -102 -73 -158 -194 -158c-130 0 -212 51 -214 189h58c1 -105 61 -135 156 -135c84 0 135 33 135 104v2c0 57 -34 85 -128 117l-62 21c-115 39 -172 85 -172 179v2c0 61 36 114 85 138c-36 24 -61 65 -61 115v2c0 112 95 153 194 153
c136 0 199 -58 200 -181h-57c-2 87 -45 126 -143 126c-76 0 -136 -26 -136 -98v-2c0 -64 79 -96 148 -118l66 -22c118 -38 152 -92 152 -173v-2c0 -68 -46 -114 -88 -137c44 -31 61 -69 61 -120zM121 296v-2c0 -60 40 -96 131 -126l53 -18c27 -9 52 -17 70 -26
c38 15 75 51 75 110v2c0 54 -22 91 -112 121l-57 19c-28 9 -61 19 -88 31c-41 -16 -72 -57 -72 -111z" />
    <glyph glyph-name="currency" unicode="&#xa4;" horiz-adv-x="609" 
d="M77 339v2c0 61 10 110 33 150l-67 68l40 40l63 -64c36 31 91 49 158 49s123 -18 159 -49l64 64l39 -40l-67 -69c23 -39 33 -88 33 -149v-2c0 -61 -10 -110 -33 -149l67 -68l-39 -41l-64 64c-36 -31 -92 -49 -159 -49s-122 18 -158 49l-63 -64l-40 41l67 67
c-23 40 -33 89 -33 150zM474 339v2c0 126 -49 190 -170 190c-120 0 -169 -64 -169 -190v-2c0 -126 49 -190 169 -190c121 0 170 64 170 190z" />
    <glyph glyph-name="quotesingle" unicode="'" horiz-adv-x="192" 
d="M69 690h53l-6 -233h-40z" />
    <glyph glyph-name="quotedblleft" unicode="&#x201c;" horiz-adv-x="334" 
d="M135 690v-29c-24 -8 -31 -33 -31 -89h31v-99h-73v97c0 75 30 109 73 120zM274 690v-29c-24 -8 -31 -33 -31 -89h31v-99h-72v97c0 75 30 109 72 120z" />
    <glyph glyph-name="guillemotleft" unicode="&#xab;" horiz-adv-x="427" 
d="M40 250l123 173h60l-122 -173l122 -173h-60zM191 250l122 173h60l-122 -173l122 -173h-60z" />
    <glyph glyph-name="guilsinglleft" unicode="&#x2039;" horiz-adv-x="277" 
d="M40 250l123 173h60l-122 -173l122 -173h-60z" />
    <glyph glyph-name="guilsinglright" unicode="&#x203a;" horiz-adv-x="277" 
d="M114 423l122 -173l-122 -173h-60l122 173l-122 173h60z" />
    <glyph glyph-name="endash" unicode="&#x2013;" horiz-adv-x="458" 
d="M33 327h393v-53h-393v53z" />
    <glyph glyph-name="dagger" unicode="&#x2020;" horiz-adv-x="466" 
d="M206 690h54v-168h162v-50h-162v-630h-54v630h-162v50h162v168z" />
    <glyph glyph-name="daggerdbl" unicode="&#x2021;" horiz-adv-x="466" 
d="M206 690h54v-168h162v-50h-162v-412h162v-50h-162v-168h-54v168h-162v50h162v412h-162v50h162v168z" />
    <glyph glyph-name="periodcentered" unicode="&#xb7;" horiz-adv-x="233" 
d="M78 304v82h77v-82h-77z" />
    <glyph glyph-name="paragraph" unicode="&#xb6;" horiz-adv-x="500" 
d="M283 690h186v-45h-116v-802h-50v396c-149 5 -245 68 -245 226v2c0 157 93 223 225 223z" />
    <glyph glyph-name="bullet" unicode="&#x2022;" horiz-adv-x="462" 
d="M231 188c-105 0 -158 50 -158 157s53 157 158 157s158 -50 158 -157s-53 -157 -158 -157z" />
    <glyph glyph-name="quotesinglbase" unicode="&#x201a;" horiz-adv-x="198" 
d="M61 -118v29c24 8 31 33 31 89h-31v99h73v-97c0 -76 -30 -109 -73 -120z" />
    <glyph glyph-name="quotedblbase" unicode="&#x201e;" horiz-adv-x="334" 
d="M200 -118v29c24 8 31 33 31 89h-31v99h72v-97c0 -76 -30 -109 -72 -120zM60 -118v29c24 8 31 33 31 89h-31v99h72v-97c0 -76 -29 -109 -72 -120z" />
    <glyph glyph-name="quotedblright" unicode="&#x201d;" horiz-adv-x="334" 
d="M200 473v29c24 8 31 33 31 89h-31v99h72v-97c0 -75 -30 -109 -72 -120zM60 473v29c24 8 31 33 31 89h-31v99h72v-97c0 -75 -29 -109 -72 -120z" />
    <glyph glyph-name="guillemotright" unicode="&#xbb;" horiz-adv-x="427" 
d="M114 423l122 -173l-122 -173h-60l122 173l-122 173h60zM264 423l122 -173l-122 -173h-60l122 173l-122 173h60z" />
    <glyph glyph-name="perthousand" unicode="&#x2030;" horiz-adv-x="1075" 
d="M119 0l443 660h51l-442 -660h-52zM289 506v2c0 76 -24 117 -92 117s-92 -41 -92 -117v-2c0 -76 24 -117 92 -117s92 41 92 117zM58 506v2c0 100 44 159 139 159s139 -59 139 -159v-2c0 -100 -44 -159 -139 -159s-139 59 -139 159zM628 153v2c0 76 -24 117 -92 117
c-69 0 -92 -41 -92 -117v-2c0 -76 23 -117 92 -117c68 0 92 41 92 117zM396 153v2c0 100 45 159 140 159c94 0 139 -59 139 -159v-2c0 -100 -45 -159 -139 -159c-95 0 -140 59 -140 159zM974 153v2c0 76 -24 117 -92 117c-69 0 -92 -41 -92 -117v-2c0 -76 23 -117 92 -117
c68 0 92 41 92 117zM742 153v2c0 100 45 159 140 159c94 0 139 -59 139 -159v-2c0 -100 -45 -159 -139 -159c-95 0 -140 59 -140 159z" />
    <glyph glyph-name="questiondown" unicode="&#xbf;" horiz-adv-x="529" 
d="M266 42c118 0 161 50 163 153h58c-2 -130 -62 -208 -221 -208c-136 0 -216 63 -216 186v2c0 121 108 199 188 223v104h45l13 -139c-85 -18 -187 -90 -187 -188v-2c0 -88 55 -131 157 -131zM295 690v-99h-66v99h66z" />
    <glyph glyph-name="acute" unicode="&#xb4;" horiz-adv-x="246" 
d="M205 688l-117 -128h-48l81 128h84z" />
    <glyph glyph-name="circumflex" unicode="&#x2c6;" horiz-adv-x="246" 
d="M123 643l-76 -83h-44l97 132h46l97 -132h-45z" />
    <glyph glyph-name="tilde" unicode="&#x2dc;" horiz-adv-x="246" 
d="M21 573h-35c4 66 31 100 77 100s79 -50 116 -50c27 0 41 14 45 51h36c-5 -66 -32 -100 -77 -100c-41 0 -74 40 -106 47c-8 1 -15 2 -23 1c-20 -3 -30 -19 -33 -49z" />
    <glyph glyph-name="macron" unicode="&#xaf;" horiz-adv-x="246" 
d="M254 646v-45h-262v45h262z" />
    <glyph glyph-name="breve" unicode="&#x2d8;" horiz-adv-x="246" 
d="M123 611c51 0 76 21 79 75h42c-4 -79 -44 -118 -121 -118c-78 0 -118 39 -122 118h42c4 -54 29 -75 80 -75z" />
    <glyph glyph-name="dotaccent" unicode="&#x2d9;" horiz-adv-x="246" 
d="M86 569v99h62v-99h-62z" />
    <glyph glyph-name="hungarumlaut" unicode="&#x2dd;" horiz-adv-x="246" 
d="M167 688l-97 -128h-46l69 128h74zM315 688l-98 -128h-46l69 128h75z" />
    <glyph glyph-name="caron" unicode="&#x2c7;" horiz-adv-x="246" 
d="M47 692l76 -83l75 83h45l-97 -132h-46l-97 132h44z" />
    <glyph glyph-name="emdash" unicode="&#x2014;" horiz-adv-x="714" 
d="M33 327h649v-53h-649v53z" />
    <glyph glyph-name="AE" unicode="&#xc6;" horiz-adv-x="904" 
d="M854 690v-54h-334v-255h304v-54h-304v-273h338v-54h-397v208h-265l-119 -208h-65l401 690h441zM227 260h234v376h-19z" />
    <glyph glyph-name="ordfeminine" unicode="&#xaa;" horiz-adv-x="388" 
d="M287 475v36l-92 -8c-71 -7 -119 -18 -119 -76v-1c0 -45 30 -64 75 -64c78 0 136 50 136 113zM94 585h-45c1 72 52 117 145 117c105 0 138 -52 138 -118v-254h-43l-2 65h-1c-21 -39 -68 -73 -144 -73c-62 0 -112 32 -112 104v1c0 89 78 107 159 115l97 9v33
c0 46 -20 75 -92 75c-66 0 -97 -22 -100 -74z" />
    <glyph glyph-name="Lslash" unicode="&#x141;" horiz-adv-x="480" 
d="M287 474v-51l-146 -93v-275h312v-55h-372v293l-63 -39v50l63 39v347h60v-309z" />
    <glyph glyph-name="Oslash" unicode="&#xd8;" horiz-adv-x="687" 
d="M343 40c162 0 227 99 227 304v2c0 88 -13 156 -40 205l-350 -449c36 -42 90 -62 163 -62zM117 346v-2c0 -88 12 -156 39 -205l351 448c-37 42 -90 63 -164 63c-161 0 -226 -99 -226 -304zM71 31l45 57c-41 60 -60 145 -60 256v2c0 235 85 357 287 357
c89 0 154 -23 200 -69l41 52l32 -27l-46 -57c42 -61 60 -146 60 -256v-2c0 -235 -84 -357 -287 -357c-88 0 -153 23 -200 69l-40 -52z" />
    <glyph glyph-name="OE" unicode="&#x152;" horiz-adv-x="924" 
d="M885 690v-54h-333v-255h303v-54h-303v-273h337v-54h-518c-211 0 -315 114 -315 344v2c0 230 100 344 312 344h517zM371 55h122v580h-125c-170 0 -251 -87 -251 -289v-2c0 -202 84 -289 254 -289z" />
    <glyph glyph-name="ordmasculine" unicode="&#xba;" horiz-adv-x="412" 
d="M206 365c84 0 116 51 116 147v1c0 96 -32 146 -116 146s-116 -50 -116 -146v-1c0 -96 32 -147 116 -147zM206 702c111 0 166 -68 166 -189v-1c0 -122 -55 -190 -166 -190s-166 68 -166 190v1c0 121 55 189 166 189z" />
    <glyph glyph-name="ae" unicode="&#xe6;" horiz-adv-x="868" 
d="M129 353h-56c3 100 76 159 204 159c103 0 154 -44 169 -116h2c21 70 83 117 177 117c147 0 196 -92 196 -248c0 -12 -1 -22 -2 -36h-354c2 -119 46 -189 181 -189c43 0 97 10 150 29v-51c-49 -18 -101 -29 -153 -29c-127 0 -195 60 -206 135h-2
c-25 -83 -113 -135 -218 -135c-98 0 -171 45 -171 142v2c0 131 125 143 252 143h111v65c0 75 -32 118 -132 118c-92 0 -144 -35 -148 -106zM410 189v40h-133c-97 0 -174 -11 -174 -96v-2c0 -64 49 -95 119 -95c112 0 188 74 188 153zM624 463c-109 0 -155 -65 -159 -187h301
c-1 127 -32 187 -142 187z" />
    <glyph glyph-name="dotlessi" unicode="&#x131;" horiz-adv-x="209" 
d="M76 0v502h57v-502h-57z" />
    <glyph glyph-name="lslash" unicode="&#x142;" horiz-adv-x="228" 
d="M206 441v-50l-62 -40v-351h-60v313l-63 -39v50l63 40v326h60v-289z" />
    <glyph glyph-name="oslash" unicode="&#xf8;" horiz-adv-x="550" 
d="M67 27l32 39c-33 44 -49 106 -49 184v2c0 165 72 261 225 261c64 0 114 -17 150 -49l28 34l30 -23l-32 -39c33 -44 49 -107 49 -184v-2c0 -164 -72 -261 -225 -261c-64 0 -114 16 -150 49l-28 -34zM275 40c119 0 166 76 166 210v2c0 56 -9 102 -28 137l-253 -308
c26 -27 64 -41 115 -41zM109 250c0 -57 9 -103 28 -137l253 308c-26 27 -64 41 -115 41c-118 0 -166 -76 -166 -210v-2z" />
    <glyph glyph-name="oe" unicode="&#x153;" horiz-adv-x="908" 
d="M669 40c43 0 97 10 150 29v-51c-49 -18 -101 -29 -152 -29c-115 0 -184 51 -206 132l-2 1c-23 -83 -90 -133 -188 -133c-151 0 -221 97 -221 261v2c0 165 70 261 221 261c100 0 168 -50 189 -140h2c19 88 87 140 185 140c148 0 197 -92 197 -248c0 -12 -1 -22 -2 -36
h-353c1 -119 45 -189 180 -189zM271 40c116 0 161 76 161 210v2c0 134 -45 210 -161 210s-162 -76 -162 -210v-2c0 -134 46 -210 162 -210zM647 463c-109 0 -155 -65 -158 -187h300c0 127 -32 187 -142 187z" />
    <glyph glyph-name="germandbls" unicode="&#xdf;" horiz-adv-x="588" 
d="M300 652c-100 0 -167 -44 -167 -154v-498h-57v499c0 148 94 204 224 204c132 0 206 -67 206 -172v-2c0 -93 -60 -133 -103 -145v-2c62 -9 142 -58 142 -183v-2c0 -161 -85 -208 -222 -208c-35 0 -74 4 -102 12v51c31 -7 69 -12 100 -12c110 0 169 36 169 157v2
c0 117 -75 158 -183 158h-52v51h62c83 0 133 32 133 121v2c0 79 -57 121 -150 121z" />
    <glyph glyph-name="logicalnot" unicode="&#xac;" horiz-adv-x="576" 
d="M447 112v234h-395v48h442v-282h-47z" />
    <glyph glyph-name="mu" unicode="&#xb5;" horiz-adv-x="542" 
d="M76 -158v660h57v-296c0 -95 65 -165 166 -165c77 0 115 35 115 128v333h58v-333c0 -126 -58 -180 -166 -180c-89 0 -150 49 -171 105h-2v-252h-57z" />
    <glyph glyph-name="trademark" unicode="&#x2122;" horiz-adv-x="743" 
d="M291 690v-44h-105v-296h-47v296h-105v44h257zM532 441h-31l-93 174h-2v-265h-45v340h51l105 -198l105 198h51v-340h-45v265h-2z" />
    <glyph glyph-name="Eth" unicode="&#xd0;" horiz-adv-x="652" 
d="M11 330v47h71v313h213c206 0 300 -114 300 -344v-2c0 -230 -97 -344 -303 -344h-210v330h-71zM142 55h150c164 0 242 87 242 289c0 203 -74 291 -239 291h-153v-258h193v-47h-193v-275z" />
    <glyph glyph-name="plusminus" unicode="&#xb1;" horiz-adv-x="552" 
d="M50 316h200v163h52v-163h200v-53h-200v-163h-52v163h-200v53zM50 52h452v-52h-452v52z" />
    <glyph glyph-name="Thorn" unicode="&#xde;" horiz-adv-x="574" 
d="M140 190v-190h-60v690h60v-104h157c169 0 229 -64 229 -196v-2c0 -139 -63 -198 -230 -198h-156zM140 244h156c129 0 171 39 171 144v2c0 103 -41 142 -170 142h-157v-288z" />
    <glyph glyph-name="divide" unicode="&#xf7;" horiz-adv-x="552" 
d="M50 277h452v-52h-452v52zM235 354v82h82v-82h-82zM235 65v82h82v-82h-82z" />
    <glyph glyph-name="brokenbar" unicode="&#xa6;" horiz-adv-x="213" 
d="M82 379v311h50v-311h-50zM82 -105v311h50v-311h-50z" />
    <glyph glyph-name="degree" unicode="&#xb0;" horiz-adv-x="424" 
d="M212 391c75 0 106 49 106 121v2c0 72 -31 121 -106 121s-106 -49 -106 -121v-2c0 -72 31 -121 106 -121zM212 670c96 0 144 -63 144 -156v-2c0 -93 -48 -156 -144 -156s-144 63 -144 156v2c0 93 48 156 144 156z" />
    <glyph glyph-name="thorn" unicode="&#xfe;" horiz-adv-x="574" 
d="M136 91h-2v-261h-57v860h57v-281h2c22 56 85 104 176 104c141 0 212 -99 212 -261v-2c0 -164 -70 -261 -209 -261c-95 0 -156 47 -179 102zM135 295v-90c0 -93 68 -165 172 -165c113 0 158 77 158 210v2c0 133 -47 210 -157 210c-103 0 -173 -69 -173 -167z" />
    <glyph glyph-name="registered" unicode="&#xae;" horiz-adv-x="808" 
d="M748 345v-2c0 -224 -117 -356 -344 -356s-344 132 -344 356v2c0 224 117 356 344 356s344 -132 344 -356zM714 343v2c0 206 -108 322 -310 322s-310 -116 -310 -322v-2c0 -205 108 -321 310 -321s310 116 310 321zM324 297v-147h-49v390h150c101 0 145 -34 145 -119v-2
c0 -69 -36 -104 -99 -117l106 -152h-54l-102 147h-97zM324 342h106c67 0 90 21 90 77v2c0 52 -24 74 -95 74h-101v-153z" />
    <glyph glyph-name="minus" unicode="&#x2212;" horiz-adv-x="552" 
d="M50 277h452v-52h-452v52z" />
    <glyph glyph-name="eth" unicode="&#xf0;" horiz-adv-x="543" 
d="M192 531l-18 31l89 51c-26 20 -54 38 -84 52l32 38c34 -18 66 -40 96 -65l102 60l19 -32l-93 -53c96 -92 156 -219 156 -370v-2c0 -158 -70 -252 -220 -252c-152 0 -221 94 -221 252v2c0 158 72 252 211 252c71 0 114 -25 148 -65h2c-26 55 -67 112 -118 159zM271 39
c116 0 162 74 162 202v2c0 118 -49 202 -162 202c-118 0 -163 -74 -163 -202v-2c0 -128 45 -202 163 -202z" />
    <glyph glyph-name="multiply" unicode="&#xd7;" horiz-adv-x="552" 
d="M73 86l165 165l-164 164l38 38l164 -164l165 165l38 -38l-165 -165l164 -164l-38 -38l-164 164l-165 -165z" />
    <glyph glyph-name="copyright" unicode="&#xa9;" horiz-adv-x="808" 
d="M748 345v-2c0 -224 -117 -356 -344 -356s-344 132 -344 356v2c0 224 117 356 344 356s344 -132 344 -356zM714 343v2c0 206 -108 322 -310 322s-310 -116 -310 -322v-2c0 -205 108 -321 310 -321s310 116 310 321zM416 186c70 0 110 30 111 83h49
c-2 -78 -61 -128 -160 -128c-119 0 -182 75 -182 204v2c0 128 60 202 182 202c95 0 153 -48 155 -127h-48c-2 52 -38 82 -107 82c-95 0 -133 -54 -133 -157v-2c0 -104 41 -159 133 -159z" />
    <glyph glyph-name="Aacute" unicode="&#xc1;" horiz-adv-x="597" 
d="M331 690l250 -690h-62l-70 197h-301l-70 -197h-62l251 690h64zM431 250l-131 372h-2l-132 -372h265zM441 868l-117 -128h-48l81 128h84z" />
    <glyph glyph-name="Acircumflex" unicode="&#xc2;" horiz-adv-x="597" 
d="M331 690l250 -690h-62l-70 197h-301l-70 -197h-62l251 690h64zM431 250l-131 372h-2l-132 -372h265zM299 823l-76 -83h-44l97 132h46l97 -132h-45z" />
    <glyph glyph-name="Adieresis" unicode="&#xc4;" horiz-adv-x="597" 
d="M331 690l250 -690h-62l-70 197h-301l-70 -197h-62l251 690h64zM431 250l-131 372h-2l-132 -372h265zM184 749v99h62v-99h-62zM352 749v99h62v-99h-62z" />
    <glyph glyph-name="Agrave" unicode="&#xc0;" horiz-adv-x="597" 
d="M331 690l250 -690h-62l-70 197h-301l-70 -197h-62l251 690h64zM431 250l-131 372h-2l-132 -372h265zM271 740l-117 128h85l80 -128h-48z" />
    <glyph glyph-name="Aring" unicode="&#xc5;" horiz-adv-x="597" 
d="M331 690l250 -690h-62l-70 197h-301l-70 -197h-62l251 690h64zM431 250l-131 372h-2l-132 -372h265zM299 892c58 0 94 -36 94 -87c0 -52 -36 -88 -94 -88c-59 0 -95 36 -95 88c0 51 36 87 95 87zM299 749c39 0 59 21 59 56c0 34 -20 55 -59 55s-59 -21 -59 -55
c0 -35 20 -56 59 -56z" />
    <glyph glyph-name="Ccedilla" unicode="&#xc7;" horiz-adv-x="668" 
d="M347 650c-164 0 -230 -99 -230 -304v-2c0 -205 66 -304 234 -304c129 0 192 62 203 183h59c-11 -145 -93 -228 -242 -235l-24 -44c6 1 14 2 20 2c51 0 74 -27 74 -67c0 -51 -35 -73 -89 -73c-27 0 -47 4 -66 12v34c21 -7 43 -11 63 -11c32 0 50 10 50 38
c0 26 -17 33 -40 33c-20 0 -35 -6 -45 -11l-19 28l40 58c-198 6 -279 128 -279 357v2c0 235 85 357 291 357c162 0 247 -80 257 -207h-59c-12 97 -73 154 -198 154z" />
    <glyph glyph-name="Eacute" unicode="&#xc9;" horiz-adv-x="558" 
d="M508 690v-54h-368v-255h338v-54h-338v-273h372v-54h-432v690h428zM403 868l-117 -128h-48l81 128h84z" />
    <glyph glyph-name="Ecircumflex" unicode="&#xca;" horiz-adv-x="558" 
d="M508 690v-54h-368v-255h338v-54h-338v-273h372v-54h-432v690h428zM305 823l-76 -83h-44l97 132h46l97 -132h-45z" />
    <glyph glyph-name="Edieresis" unicode="&#xcb;" horiz-adv-x="558" 
d="M508 690v-54h-368v-255h338v-54h-338v-273h372v-54h-432v690h428zM190 749v99h62v-99h-62zM358 749v99h62v-99h-62z" />
    <glyph glyph-name="Egrave" unicode="&#xc8;" horiz-adv-x="558" 
d="M508 690v-54h-368v-255h338v-54h-338v-273h372v-54h-432v690h428zM317 740l-117 128h85l80 -128h-48z" />
    <glyph glyph-name="Iacute" unicode="&#xcd;" horiz-adv-x="228" 
d="M84 0v690h60v-690h-60zM256 868l-117 -128h-48l81 128h84z" />
    <glyph glyph-name="Icircumflex" unicode="&#xce;" horiz-adv-x="228" 
d="M84 0v690h60v-690h-60zM114 823l-76 -83h-44l97 132h46l97 -132h-45z" />
    <glyph glyph-name="Idieresis" unicode="&#xcf;" horiz-adv-x="228" 
d="M84 0v690h60v-690h-60zM8 745v99h62v-99h-62zM158 745v99h62v-99h-62z" />
    <glyph glyph-name="Igrave" unicode="&#xcc;" horiz-adv-x="228" 
d="M84 0v690h60v-690h-60zM91 740l-117 128h85l80 -128h-48z" />
    <glyph glyph-name="Ntilde" unicode="&#xd1;" horiz-adv-x="658" 
d="M578 690v-690h-62l-375 592h-2v-592h-59v690h62l376 -592h2v592h58zM227 753h-35c4 66 31 100 77 100s79 -50 116 -50c27 0 41 14 45 51h36c-5 -66 -32 -100 -77 -100c-41 0 -74 40 -106 47c-8 1 -15 2 -23 1c-20 -3 -30 -19 -33 -49z" />
    <glyph glyph-name="Oacute" unicode="&#xd3;" horiz-adv-x="687" 
d="M343 703c203 0 287 -122 287 -357v-2c0 -235 -84 -357 -287 -357c-202 0 -287 122 -287 357v2c0 235 85 357 287 357zM343 40c162 0 227 99 227 304v2c0 205 -65 304 -227 304c-161 0 -226 -99 -226 -304v-2c0 -205 65 -304 226 -304zM474 868l-117 -128h-48l81 128h84z
" />
    <glyph glyph-name="Ocircumflex" unicode="&#xd4;" horiz-adv-x="687" 
d="M343 703c203 0 287 -122 287 -357v-2c0 -235 -84 -357 -287 -357c-202 0 -287 122 -287 357v2c0 235 85 357 287 357zM343 40c162 0 227 99 227 304v2c0 205 -65 304 -227 304c-161 0 -226 -99 -226 -304v-2c0 -205 65 -304 226 -304zM344 823l-76 -83h-44l97 132h46
l97 -132h-45z" />
    <glyph glyph-name="Odieresis" unicode="&#xd6;" horiz-adv-x="687" 
d="M343 703c203 0 287 -122 287 -357v-2c0 -235 -84 -357 -287 -357c-202 0 -287 122 -287 357v2c0 235 85 357 287 357zM343 40c162 0 227 99 227 304v2c0 205 -65 304 -227 304c-161 0 -226 -99 -226 -304v-2c0 -205 65 -304 226 -304zM229 749v99h62v-99h-62zM397 749v99
h62v-99h-62z" />
    <glyph glyph-name="Ograve" unicode="&#xd2;" horiz-adv-x="687" 
d="M343 703c203 0 287 -122 287 -357v-2c0 -235 -84 -357 -287 -357c-202 0 -287 122 -287 357v2c0 235 85 357 287 357zM343 40c162 0 227 99 227 304v2c0 205 -65 304 -227 304c-161 0 -226 -99 -226 -304v-2c0 -205 65 -304 226 -304zM340 740l-117 128h85l80 -128h-48z
" />
    <glyph glyph-name="Otilde" unicode="&#xd5;" horiz-adv-x="687" 
d="M343 703c203 0 287 -122 287 -357v-2c0 -235 -84 -357 -287 -357c-202 0 -287 122 -287 357v2c0 235 85 357 287 357zM343 40c162 0 227 99 227 304v2c0 205 -65 304 -227 304c-161 0 -226 -99 -226 -304v-2c0 -205 65 -304 226 -304zM242 753h-35c4 66 31 100 77 100
s79 -50 116 -50c27 0 41 14 45 51h36c-5 -66 -32 -100 -77 -100c-41 0 -74 40 -106 47c-8 1 -15 2 -23 1c-20 -3 -30 -19 -33 -49z" />
    <glyph glyph-name="Scaron" unicode="&#x160;" horiz-adv-x="605" 
d="M344 325l-74 12c-127 19 -206 61 -206 181v2c0 135 99 183 232 183c163 0 240 -69 243 -204h-58c-4 104 -62 151 -184 151c-99 0 -174 -31 -174 -130v-2c0 -83 57 -110 158 -126l74 -11c137 -21 202 -77 202 -192v-2c0 -142 -98 -200 -246 -200c-160 0 -264 72 -265 233
h58c2 -126 90 -180 207 -180c115 0 187 43 187 147v2c0 84 -49 120 -154 136zM227 872l76 -83l75 83h45l-97 -132h-46l-97 132h44z" />
    <glyph glyph-name="Uacute" unicode="&#xda;" horiz-adv-x="629" 
d="M315 -13c-165 0 -241 78 -241 255v448h59v-448c0 -143 56 -200 182 -200c125 0 181 57 181 200v448h60v-448c0 -177 -77 -255 -241 -255zM449 868l-117 -128h-48l81 128h84z" />
    <glyph glyph-name="Ucircumflex" unicode="&#xdb;" horiz-adv-x="629" 
d="M315 -13c-165 0 -241 78 -241 255v448h59v-448c0 -143 56 -200 182 -200c125 0 181 57 181 200v448h60v-448c0 -177 -77 -255 -241 -255zM315 823l-76 -83h-44l97 132h46l97 -132h-45z" />
    <glyph glyph-name="Udieresis" unicode="&#xdc;" horiz-adv-x="629" 
d="M315 -13c-165 0 -241 78 -241 255v448h59v-448c0 -143 56 -200 182 -200c125 0 181 57 181 200v448h60v-448c0 -177 -77 -255 -241 -255zM200 749v99h62v-99h-62zM368 749v99h62v-99h-62z" />
    <glyph glyph-name="Ugrave" unicode="&#xd9;" horiz-adv-x="629" 
d="M315 -13c-165 0 -241 78 -241 255v448h59v-448c0 -143 56 -200 182 -200c125 0 181 57 181 200v448h60v-448c0 -177 -77 -255 -241 -255zM307 740l-117 128h85l80 -128h-48z" />
    <glyph glyph-name="Yacute" unicode="&#xdd;" horiz-adv-x="576" 
d="M288 336l210 354h68l-248 -414v-276h-60v276l-248 414h68zM382 868l-117 -128h-48l81 128h84z" />
    <glyph glyph-name="Ydieresis" unicode="&#x178;" horiz-adv-x="576" 
d="M288 336l210 354h68l-248 -414v-276h-60v276l-248 414h68zM173 749v99h62v-99h-62zM341 749v99h62v-99h-62z" />
    <glyph glyph-name="Zcaron" unicode="&#x17d;" horiz-adv-x="536" 
d="M95 53h414v-53h-485v51l405 586h-388v53h459v-51zM192 872l76 -83l75 83h45l-97 -132h-46l-97 132h44z" />
    <glyph glyph-name="aacute" unicode="&#xe1;" horiz-adv-x="529" 
d="M402 189v66l-128 -12c-98 -8 -171 -25 -171 -110v-2c0 -64 45 -95 109 -95c107 0 190 74 190 153zM129 353h-56c3 100 72 159 200 159c143 0 185 -71 185 -162v-350h-55l-1 89h-2c-29 -53 -95 -100 -192 -100c-93 0 -162 45 -162 142v2c0 122 108 148 218 157l136 12v48
c0 66 -27 109 -127 109c-92 0 -140 -35 -144 -106zM387 688l-117 -128h-48l81 128h84z" />
    <glyph glyph-name="acircumflex" unicode="&#xe2;" horiz-adv-x="529" 
d="M402 189v66l-128 -12c-98 -8 -171 -25 -171 -110v-2c0 -64 45 -95 109 -95c107 0 190 74 190 153zM129 353h-56c3 100 72 159 200 159c143 0 185 -71 185 -162v-350h-55l-1 89h-2c-29 -53 -95 -100 -192 -100c-93 0 -162 45 -162 142v2c0 122 108 148 218 157l136 12v48
c0 66 -27 109 -127 109c-92 0 -140 -35 -144 -106zM265 643l-76 -83h-44l97 132h46l97 -132h-45z" />
    <glyph glyph-name="adieresis" unicode="&#xe4;" horiz-adv-x="529" 
d="M402 189v66l-128 -12c-98 -8 -171 -25 -171 -110v-2c0 -64 45 -95 109 -95c107 0 190 74 190 153zM129 353h-56c3 100 72 159 200 159c143 0 185 -71 185 -162v-350h-55l-1 89h-2c-29 -53 -95 -100 -192 -100c-93 0 -162 45 -162 142v2c0 122 108 148 218 157l136 12v48
c0 66 -27 109 -127 109c-92 0 -140 -35 -144 -106zM150 569v99h62v-99h-62zM318 569v99h62v-99h-62z" />
    <glyph glyph-name="agrave" unicode="&#xe0;" horiz-adv-x="529" 
d="M402 189v66l-128 -12c-98 -8 -171 -25 -171 -110v-2c0 -64 45 -95 109 -95c107 0 190 74 190 153zM129 353h-56c3 100 72 159 200 159c143 0 185 -71 185 -162v-350h-55l-1 89h-2c-29 -53 -95 -100 -192 -100c-93 0 -162 45 -162 142v2c0 122 108 148 218 157l136 12v48
c0 66 -27 109 -127 109c-92 0 -140 -35 -144 -106zM259 560l-117 128h85l80 -128h-48z" />
    <glyph glyph-name="aring" unicode="&#xe5;" horiz-adv-x="529" 
d="M402 189v66l-128 -12c-98 -8 -171 -25 -171 -110v-2c0 -64 45 -95 109 -95c107 0 190 74 190 153zM129 353h-56c3 100 72 159 200 159c143 0 185 -71 185 -162v-350h-55l-1 89h-2c-29 -53 -95 -100 -192 -100c-93 0 -162 45 -162 142v2c0 122 108 148 218 157l136 12v48
c0 66 -27 109 -127 109c-92 0 -140 -35 -144 -106zM265 734c58 0 94 -36 94 -87c0 -52 -36 -88 -94 -88c-59 0 -95 36 -95 88c0 51 36 87 95 87zM265 591c39 0 59 21 59 56c0 34 -20 55 -59 55s-59 -21 -59 -55c0 -35 20 -56 59 -56z" />
    <glyph glyph-name="ccedilla" unicode="&#xe7;" horiz-adv-x="519" 
d="M278 40c90 0 139 43 141 113h58c-3 -92 -62 -154 -171 -163l-25 -46c6 1 14 2 20 2c51 0 74 -27 74 -67c0 -51 -35 -73 -89 -73c-27 0 -47 4 -66 12v34c21 -7 43 -11 63 -11c32 0 50 10 50 38c0 26 -17 33 -40 33c-20 0 -35 -6 -45 -11l-19 28l41 60
c-147 3 -220 98 -220 261v2c0 165 72 261 229 261c121 0 189 -61 192 -162h-58c-2 70 -45 111 -134 111c-123 0 -170 -76 -170 -210v-2c0 -134 51 -210 169 -210z" />
    <glyph glyph-name="eacute" unicode="&#xe9;" horiz-adv-x="525" 
d="M295 40c47 0 105 10 158 29v-51c-49 -18 -105 -29 -160 -29c-178 0 -243 94 -243 261v2c0 165 71 261 223 261s205 -92 205 -248c0 -12 -1 -25 -2 -39h-369c2 -118 50 -186 188 -186zM273 463c-113 0 -162 -65 -166 -187h316c0 127 -36 187 -150 187zM395 688l-117 -128
h-48l81 128h84z" />
    <glyph glyph-name="ecircumflex" unicode="&#xea;" horiz-adv-x="525" 
d="M295 40c47 0 105 10 158 29v-51c-49 -18 -105 -29 -160 -29c-178 0 -243 94 -243 261v2c0 165 71 261 223 261s205 -92 205 -248c0 -12 -1 -25 -2 -39h-369c2 -118 50 -186 188 -186zM273 463c-113 0 -162 -65 -166 -187h316c0 127 -36 187 -150 187zM263 643l-76 -83
h-44l97 132h46l97 -132h-45z" />
    <glyph glyph-name="edieresis" unicode="&#xeb;" horiz-adv-x="525" 
d="M295 40c47 0 105 10 158 29v-51c-49 -18 -105 -29 -160 -29c-178 0 -243 94 -243 261v2c0 165 71 261 223 261s205 -92 205 -248c0 -12 -1 -25 -2 -39h-369c2 -118 50 -186 188 -186zM273 463c-113 0 -162 -65 -166 -187h316c0 127 -36 187 -150 187zM148 569v99h62v-99
h-62zM316 569v99h62v-99h-62z" />
    <glyph glyph-name="egrave" unicode="&#xe8;" horiz-adv-x="525" 
d="M295 40c47 0 105 10 158 29v-51c-49 -18 -105 -29 -160 -29c-178 0 -243 94 -243 261v2c0 165 71 261 223 261s205 -92 205 -248c0 -12 -1 -25 -2 -39h-369c2 -118 50 -186 188 -186zM273 463c-113 0 -162 -65 -166 -187h316c0 127 -36 187 -150 187zM267 560l-117 128
h85l80 -128h-48z" />
    <glyph glyph-name="iacute" unicode="&#xed;" horiz-adv-x="209" 
d="M248 688l-117 -128h-48l81 128h84zM76 0v502h57v-502h-57z" />
    <glyph glyph-name="icircumflex" unicode="&#xee;" horiz-adv-x="209" 
d="M76 0v502h57v-502h-57zM105 643l-76 -83h-44l97 132h46l97 -132h-45z" />
    <glyph glyph-name="idieresis" unicode="&#xef;" horiz-adv-x="209" 
d="M76 0v502h57v-502h-57zM1 569v99h62v-99h-62zM146 569v99h62v-99h-62z" />
    <glyph glyph-name="igrave" unicode="&#xec;" horiz-adv-x="209" 
d="M80 560l-117 128h85l80 -128h-48zM76 0v502h57v-502h-57z" />
    <glyph glyph-name="ntilde" unicode="&#xf1;" horiz-adv-x="544" 
d="M75 0v502h56l1 -95h2c21 57 86 106 177 106c109 0 163 -53 163 -179v-334h-57v334c0 92 -36 127 -114 127c-104 0 -171 -70 -171 -165v-296h-57zM170 573h-35c4 66 31 100 77 100s79 -50 116 -50c27 0 41 14 45 51h36c-5 -66 -32 -100 -77 -100c-41 0 -74 40 -106 47
c-8 1 -15 2 -23 1c-20 -3 -30 -19 -33 -49z" />
    <glyph glyph-name="oacute" unicode="&#xf3;" horiz-adv-x="550" 
d="M275 40c119 0 166 76 166 210v2c0 134 -47 210 -166 210c-118 0 -166 -76 -166 -210v-2c0 -134 48 -210 166 -210zM275 513c153 0 225 -96 225 -261v-2c0 -164 -72 -261 -225 -261s-225 97 -225 261v2c0 165 72 261 225 261zM397 688l-117 -128h-48l81 128h84z" />
    <glyph glyph-name="ocircumflex" unicode="&#xf4;" horiz-adv-x="550" 
d="M275 40c119 0 166 76 166 210v2c0 134 -47 210 -166 210c-118 0 -166 -76 -166 -210v-2c0 -134 48 -210 166 -210zM275 513c153 0 225 -96 225 -261v-2c0 -164 -72 -261 -225 -261s-225 97 -225 261v2c0 165 72 261 225 261zM275 643l-76 -83h-44l97 132h46l97 -132h-45z
" />
    <glyph glyph-name="odieresis" unicode="&#xf6;" horiz-adv-x="550" 
d="M275 40c119 0 166 76 166 210v2c0 134 -47 210 -166 210c-118 0 -166 -76 -166 -210v-2c0 -134 48 -210 166 -210zM275 513c153 0 225 -96 225 -261v-2c0 -164 -72 -261 -225 -261s-225 97 -225 261v2c0 165 72 261 225 261zM160 569v99h62v-99h-62zM328 569v99h62v-99
h-62z" />
    <glyph glyph-name="ograve" unicode="&#xf2;" horiz-adv-x="550" 
d="M275 40c119 0 166 76 166 210v2c0 134 -47 210 -166 210c-118 0 -166 -76 -166 -210v-2c0 -134 48 -210 166 -210zM275 513c153 0 225 -96 225 -261v-2c0 -164 -72 -261 -225 -261s-225 97 -225 261v2c0 165 72 261 225 261zM269 560l-117 128h85l80 -128h-48z" />
    <glyph glyph-name="otilde" unicode="&#xf5;" horiz-adv-x="550" 
d="M275 40c119 0 166 76 166 210v2c0 134 -47 210 -166 210c-118 0 -166 -76 -166 -210v-2c0 -134 48 -210 166 -210zM275 513c153 0 225 -96 225 -261v-2c0 -164 -72 -261 -225 -261s-225 97 -225 261v2c0 165 72 261 225 261zM173 573h-35c4 66 31 100 77 100
s79 -50 116 -50c27 0 41 14 45 51h36c-5 -66 -32 -100 -77 -100c-41 0 -74 40 -106 47c-8 1 -15 2 -23 1c-20 -3 -30 -19 -33 -49z" />
    <glyph glyph-name="scaron" unicode="&#x161;" horiz-adv-x="500" 
d="M253 40c95 0 145 31 145 94v2c0 56 -40 78 -119 89l-54 7c-107 15 -164 48 -164 140v2c0 86 63 139 189 139c123 0 188 -51 192 -151h-55c-4 68 -47 100 -137 100c-94 0 -133 -36 -133 -88v-2c0 -56 40 -77 118 -87l51 -7c111 -15 168 -52 168 -143v-2
c0 -96 -70 -144 -201 -144s-206 53 -208 160h55c4 -72 60 -109 153 -109zM174 692l76 -83l75 83h45l-97 -132h-46l-97 132h44z" />
    <glyph glyph-name="uacute" unicode="&#xfa;" horiz-adv-x="542" 
d="M466 502v-502h-56l-1 94h-2c-21 -56 -82 -105 -171 -105c-108 0 -166 54 -166 180v333h58v-333c0 -93 38 -128 115 -128c101 0 166 70 166 165v296h57zM393 688l-117 -128h-48l81 128h84z" />
    <glyph glyph-name="ucircumflex" unicode="&#xfb;" horiz-adv-x="542" 
d="M466 502v-502h-56l-1 94h-2c-21 -56 -82 -105 -171 -105c-108 0 -166 54 -166 180v333h58v-333c0 -93 38 -128 115 -128c101 0 166 70 166 165v296h57zM271 643l-76 -83h-44l97 132h46l97 -132h-45z" />
    <glyph glyph-name="udieresis" unicode="&#xfc;" horiz-adv-x="542" 
d="M466 502v-502h-56l-1 94h-2c-21 -56 -82 -105 -171 -105c-108 0 -166 54 -166 180v333h58v-333c0 -93 38 -128 115 -128c101 0 166 70 166 165v296h57zM156 569v99h62v-99h-62zM324 569v99h62v-99h-62z" />
    <glyph glyph-name="ugrave" unicode="&#xf9;" horiz-adv-x="542" 
d="M466 502v-502h-56l-1 94h-2c-21 -56 -82 -105 -171 -105c-108 0 -166 54 -166 180v333h58v-333c0 -93 38 -128 115 -128c101 0 166 70 166 165v296h57zM265 560l-117 128h85l80 -128h-48z" />
    <glyph glyph-name="yacute" unicode="&#xfd;" horiz-adv-x="472" 
d="M190 -54l22 58l-198 498h58l167 -430h2l156 430h60l-214 -574c-29 -75 -68 -105 -134 -105c-24 0 -49 4 -67 10v49c17 -5 40 -8 60 -8c47 0 67 19 88 72zM336 688l-117 -128h-48l81 128h84z" />
    <glyph glyph-name="ydieresis" unicode="&#xff;" horiz-adv-x="472" 
d="M190 -54l22 58l-198 498h58l167 -430h2l156 430h60l-214 -574c-29 -75 -68 -105 -134 -105c-24 0 -49 4 -67 10v49c17 -5 40 -8 60 -8c47 0 67 19 88 72zM121 569v99h62v-99h-62zM289 569v99h62v-99h-62z" />
    <glyph glyph-name="zcaron" unicode="&#x17e;" horiz-adv-x="472" 
d="M107 51h328v-51h-398v48l319 403h-305v51h376v-49zM160 692l76 -83l75 83h45l-97 -132h-46l-97 132h44z" />
    <glyph glyph-name="pi" unicode="&#x3c0;" horiz-adv-x="617" 
d="M450 451v-336c0 -50 19 -74 63 -74c17 0 37 3 59 9v-50c-22 -7 -44 -10 -65 -10c-81 0 -114 41 -114 125v336h-182c-4 -137 -23 -333 -42 -451h-58c20 122 41 310 44 451c-46 -1 -82 -3 -120 -10l-5 49c39 8 85 10 143 10h395v-49h-118z" />
    <glyph glyph-name="Euro" unicode="&#x20ac;" 
d="M14 414h69c19 171 100 259 254 259c83 0 137 -31 174 -64l-15 -55c-31 33 -73 66 -158 66c-116 0 -179 -67 -194 -206h310l-12 -45h-302c-2 -26 -2 -52 0 -78h281l-12 -45h-265c16 -140 79 -206 201 -206c86 0 134 32 167 72l15 -56c-38 -39 -98 -69 -184 -69
c-157 0 -241 87 -260 259h-69v45h65c-2 26 -1 52 0 78h-65v45z" />
    <glyph glyph-name="partialdiff" unicode="&#x2202;" horiz-adv-x="557" 
d="M445 327h2c0 171 -36 323 -199 323c-40 0 -72 -6 -100 -15v51c26 9 68 17 111 17c189 0 249 -176 249 -396v-2c0 -207 -81 -317 -244 -317c-135 0 -218 86 -218 219v2c0 140 77 210 204 210c84 0 156 -41 195 -92zM259 365c-100 0 -153 -51 -153 -156v-2
c0 -102 56 -166 158 -166c116 0 175 77 183 215c-35 66 -114 109 -188 109z" />
    <glyph glyph-name="integral" unicode="&#x222b;" horiz-adv-x="340" 
d="M153 23c0 176 -23 332 -23 516c0 115 20 185 111 185c22 0 43 -2 65 -9v-50c-22 6 -36 8 -52 8c-58 0 -67 -47 -67 -134c0 -175 23 -332 23 -516c0 -115 -19 -185 -110 -185c-23 0 -44 2 -66 9v50c22 -6 37 -8 52 -8c58 0 67 47 67 134z" />
    <glyph glyph-name="approxequal" unicode="&#x2248;" horiz-adv-x="552" 
d="M379 321c40 0 65 27 85 70l34 -19c-23 -56 -60 -94 -121 -94c-85 0 -132 76 -201 76c-42 0 -68 -31 -86 -69l-36 17c24 59 67 95 127 95c82 0 129 -76 198 -76zM379 150c40 0 65 27 85 69l34 -18c-23 -56 -60 -95 -121 -95c-85 0 -132 77 -201 77c-42 0 -68 -32 -86 -69
l-36 17c24 59 67 95 127 95c82 0 129 -76 198 -76z" />
    <glyph glyph-name="notequal" unicode="&#x2260;" horiz-adv-x="552" 
d="M50 367h266l76 135h52l-76 -135h134v-52h-164l-72 -128h236v-52h-266l-76 -135h-52l76 135h-134v52h164l72 128h-236v52z" />
    <glyph glyph-name="lessequal" unicode="&#x2264;" horiz-adv-x="552" 
d="M64 52h376v-52h-376v52zM64 333l376 212v-58l-306 -167l306 -167v-58l-376 212v26z" />
    <glyph glyph-name="greaterequal" unicode="&#x2265;" horiz-adv-x="552" 
d="M112 52h376v-52h-376v52zM112 545l376 -212v-26l-376 -212v58l306 167l-306 167v58z" />
    <glyph glyph-name="atilde" unicode="&#xe3;" horiz-adv-x="529" 
d="M402 189v66l-128 -12c-98 -8 -171 -25 -171 -110v-2c0 -64 45 -95 109 -95c107 0 190 74 190 153zM129 353h-56c3 100 72 159 200 159c143 0 185 -71 185 -162v-350h-55l-1 89h-2c-29 -53 -95 -100 -192 -100c-93 0 -162 45 -162 142v2c0 122 108 148 218 157l136 12v48
c0 66 -27 109 -127 109c-92 0 -140 -35 -144 -106zM163 573h-35c4 66 31 100 77 100s79 -50 116 -50c27 0 41 14 45 51h36c-5 -66 -32 -100 -77 -100c-41 0 -74 40 -106 47c-8 1 -15 2 -23 1c-20 -3 -30 -19 -33 -49z" />
    <glyph glyph-name="infinity" unicode="&#x221e;" horiz-adv-x="718" 
d="M360 281c42 52 96 106 170 106s131 -53 131 -134v-2c0 -77 -54 -137 -134 -137c-74 0 -123 53 -170 106c-42 -51 -96 -106 -170 -106s-131 54 -131 134v2c0 78 54 138 134 138c74 0 123 -54 170 -107zM190 148c57 0 112 53 145 101c-44 49 -84 102 -146 102
c-53 0 -95 -36 -95 -101v-2c0 -56 36 -100 96 -100zM527 353c-57 0 -112 -53 -145 -100c44 -50 84 -102 146 -102c53 0 95 36 95 100v2c0 56 -36 100 -96 100z" />
    <glyph glyph-name="summation" unicode="&#x2211;" horiz-adv-x="548" 
d="M518 -82h-488v48l251 339l-239 337v48h467v-48h-402v-2l241 -336l-253 -336v-2h423v-48z" />
    <glyph glyph-name="product" unicode="&#x220f;" horiz-adv-x="600" 
d="M577 690v-48h-105v-724h-57v724h-230v-724h-57v724h-104v48h553z" />
    <glyph glyph-name="uni03A9" unicode="&#x3a9;" horiz-adv-x="741" 
d="M371 703c213 0 318 -110 318 -303v-2c0 -202 -108 -269 -210 -299v-45l150 -4v-50h-198l-10 141c122 20 208 84 208 257v2c0 162 -80 250 -258 250c-179 0 -259 -88 -259 -250v-2c0 -173 87 -237 208 -257l-9 -141h-199v50l150 4v45c-101 30 -210 97 -210 299v2
c0 193 105 303 319 303z" />
    <glyph glyph-name="radical" unicode="&#x221a;" 
d="M542 750l-218 -881h-64l-140 407h-73v48h118l123 -380h1l198 806h55z" />
    <glyph glyph-name="Delta" unicode="&#x2206;" horiz-adv-x="644" 
d="M544 54l-221 566h-3l-220 -566h444zM607 0h-571v42l255 650h61l255 -650v-42z" />
    <glyph glyph-name="ellipsis" unicode="&#x2026;" horiz-adv-x="582" 
d="M64 0v99h66v-99h-66zM258 0v99h66v-99h-66zM452 0v99h66v-99h-66z" />
    <glyph glyph-name="Atilde" unicode="&#xc3;" horiz-adv-x="597" 
d="M331 690l250 -690h-62l-70 197h-301l-70 -197h-62l251 690h64zM431 250l-131 372h-2l-132 -372h265zM197 753h-35c4 66 31 100 77 100s79 -50 116 -50c27 0 41 14 45 51h36c-5 -66 -32 -100 -77 -100c-41 0 -74 40 -106 47c-8 1 -15 2 -23 1c-20 -3 -30 -19 -33 -49z" />
    <glyph glyph-name="dieresis" unicode="&#xa8;" horiz-adv-x="246" 
d="M8 569v99h62v-99h-62zM176 569v99h62v-99h-62z" />
    <glyph glyph-name="asciicircum" unicode="^" horiz-adv-x="487" 
d="M405 272l-161 346h-2l-160 -346h-56l196 420h43l196 -420h-56z" />
    <glyph glyph-name="underscore" unicode="_" horiz-adv-x="445" 
d="M0 -62h445v-43h-445v43z" />
    <glyph glyph-name="grave" unicode="`" horiz-adv-x="246" 
d="M157 560l-117 128h85l80 -128h-48z" />
    <glyph glyph-name="asciitilde" unicode="~" horiz-adv-x="470" 
d="M103 242l-34 10c17 68 50 101 96 101c53 0 94 -57 139 -57c33 0 48 22 63 64l34 -10c-17 -68 -50 -102 -95 -102c-54 0 -95 57 -140 57c-33 0 -48 -21 -63 -63z" />
    <glyph glyph-name="uni2215" unicode="&#x2215;" horiz-adv-x="370" 
d="M-66 0l451 672h51l-451 -672h-51z" />
    <glyph glyph-name="lozenge" unicode="&#x25ca;" horiz-adv-x="546" 
d="M104 339l168 -293h2l168 293l-168 293h-2zM42 339l208 353h47l208 -353l-208 -353h-47z" />
    <glyph glyph-name="ring" unicode="&#x2da;" horiz-adv-x="246" 
d="M123 734c58 0 94 -36 94 -87c0 -52 -36 -88 -94 -88c-59 0 -95 36 -95 88c0 51 36 87 95 87zM123 591c39 0 59 21 59 56c0 34 -20 55 -59 55s-59 -21 -59 -55c0 -35 20 -56 59 -56z" />
    <glyph glyph-name="cedilla" unicode="&#xb8;" horiz-adv-x="246" 
d="M113 6h33l-34 -62c6 1 14 2 20 2c51 0 74 -27 74 -67c0 -51 -35 -73 -89 -73c-27 0 -47 4 -66 12v34c21 -7 43 -11 63 -11c32 0 50 10 50 38c0 26 -17 33 -40 33c-20 0 -35 -6 -45 -11l-19 28z" />
    <glyph glyph-name="ogonek" unicode="&#x2db;" horiz-adv-x="246" 
d="M114 0h42c-47 -25 -78 -57 -78 -94c0 -24 12 -41 44 -41c19 0 38 4 55 13l11 -33c-22 -12 -49 -19 -74 -19c-56 0 -80 30 -80 70c0 46 37 85 80 104z" />
    <glyph glyph-name="a" unicode="a" horiz-adv-x="529" 
d="M402 189v66l-128 -12c-98 -8 -171 -25 -171 -110v-2c0 -64 45 -95 109 -95c107 0 190 74 190 153zM129 353h-56c3 100 72 159 200 159c143 0 185 -71 185 -162v-350h-55l-1 89h-2c-29 -53 -95 -100 -192 -100c-93 0 -162 45 -162 142v2c0 122 108 148 218 157l136 12v48
c0 66 -27 109 -127 109c-92 0 -140 -35 -144 -106z" />
    <glyph glyph-name="c" unicode="c" horiz-adv-x="519" 
d="M278 40c90 0 139 43 141 113h58c-3 -100 -72 -164 -199 -164c-152 0 -228 96 -228 261v2c0 165 72 261 229 261c121 0 189 -61 192 -162h-58c-2 70 -45 111 -134 111c-123 0 -170 -76 -170 -210v-2c0 -134 51 -210 169 -210z" />
    <glyph glyph-name="u" unicode="u" horiz-adv-x="542" 
d="M466 502v-502h-56l-1 94h-2c-21 -56 -82 -105 -171 -105c-108 0 -166 54 -166 180v333h58v-333c0 -93 38 -128 115 -128c101 0 166 70 166 165v296h57z" />
    <glyph glyph-name="G" unicode="G" horiz-adv-x="693" 
d="M624 381v-381h-56c0 38 -2 77 -3 115h-2c-32 -81 -100 -128 -208 -128c-210 0 -299 122 -299 357v2c0 235 88 357 296 357c164 0 250 -80 260 -207h-59c-12 96 -74 154 -201 154c-167 0 -235 -99 -235 -304v-2c0 -205 69 -304 235 -304c145 0 213 96 213 230v57h-216v54
h275z" />
    <glyph glyph-name="uniF8FF" unicode="&#xf8ff;" horiz-adv-x="2236" 
d="M197 426c0 16 -27 24 -53 33c-42 15 -80 28 -80 75c0 39 34 72 93 72c46 0 92 -30 97 -80h-58c-2 17 -22 27 -40 27c-23 0 -34 -8 -34 -18c0 -14 22 -20 42 -28c50 -17 91 -33 91 -78c0 -49 -45 -77 -96 -77c-52 0 -97 31 -103 82h60c3 -21 23 -30 45 -30s36 7 36 22z
M467 602v-53h-73v-193h-59v193h-73v53h205zM575 602l109 -246h-61l-19 44h-100l-20 -44h-60l109 246h42zM525 450h57l-28 70zM851 602l54 -162l52 162h61l-80 -246h-53l-58 156l-56 -156h-53l-81 246h61l52 -162l54 162h47zM1093 602v-246h-58v246h58zM1288 356l-59 83
l-57 -83h-66l90 127l-84 119h67l50 -74l52 74h67l-84 -119l90 -127h-66zM245 170h-117v-43h112v-53h-112v-98h-59v246h176v-52zM509 99c0 -69 -55 -126 -125 -126c-71 0 -123 57 -123 126s52 127 123 127c70 0 125 -58 125 -127zM449 99c0 45 -30 73 -65 73s-65 -28 -65 -73
c0 -44 30 -73 65 -73s65 29 65 73zM694 81v141h58v-141c0 -66 -41 -108 -110 -108s-111 42 -111 108v141h59v-141c0 -34 17 -55 52 -55s52 21 52 55zM1010 222v-246h-58l-111 154v-154h-58v246h53l115 -157v157h59zM1040 -24v246h103c79 0 122 -50 122 -122
c0 -74 -41 -124 -120 -124h-105zM1099 30h46c44 0 61 27 61 70c0 41 -19 69 -63 69h-44v-139zM1348 64v-88h-59v246h110c52 0 93 -29 93 -80c0 -39 -24 -67 -57 -74l64 -92h-64l-62 88h-25zM1348 116h52c18 0 34 8 34 26c0 19 -16 28 -35 28h-51v-54zM1544 222l55 -91l55 91
h63l-88 -143v-103h-60v103l-88 143h63zM2178 -200h-2119c-4 0 -9 4 -9 9s5 9 9 9h2119c4 0 8 -4 8 -9s-4 -9 -8 -9zM2178 782h-2119c-4 0 -9 4 -9 9s5 9 9 9h2119c4 0 8 -4 8 -9s-4 -9 -8 -9z" />
    <glyph glyph-name="uni00A0" unicode="&#xa0;" horiz-adv-x="0" 
 />
    <glyph glyph-name="zero.tab" 
d="M37 329v2c0 198 58 341 250 341c191 0 249 -143 249 -341v-2c0 -198 -58 -341 -249 -341c-192 0 -250 143 -250 341zM475 329v2c0 170 -43 287 -188 287c-146 0 -189 -117 -189 -287v-2c0 -170 43 -287 189 -287c145 0 188 117 188 287z" />
    <glyph glyph-name="one.tab" 
d="M285 0v594c-30 -14 -78 -29 -130 -30v48c51 3 110 25 146 51h43v-663h-59z" />
    <glyph glyph-name="two.tab" 
d="M129 54h379v-54h-442v32c0 212 375 261 375 451v2c0 92 -52 132 -149 132c-119 0 -158 -50 -160 -150h-58c3 130 63 205 218 205c135 0 209 -61 209 -188v-2c0 -220 -349 -264 -372 -428z" />
    <glyph glyph-name="three.tab" 
d="M286 43c108 0 168 48 168 145v2c0 86 -54 137 -148 137h-72v53h76c78 0 126 42 126 116v2c0 88 -57 121 -155 121c-108 0 -160 -51 -162 -152h-59c2 135 75 205 225 205c129 0 210 -52 210 -174v-2c0 -90 -53 -129 -107 -141v-2c73 -14 127 -72 127 -163v-2
c0 -129 -86 -198 -229 -198c-161 0 -235 65 -235 204v11h59v-11c0 -104 52 -151 176 -151z" />
    <glyph glyph-name="four.tab" 
d="M388 213v363h-2l-275 -363h277zM387 158h-340v57l340 448h60v-450h89v-55h-89v-158h-60v158z" />
    <glyph glyph-name="five.tab" 
d="M477 606h-311l-29 -239h2c38 31 93 52 164 52c126 0 207 -65 207 -209v-2c0 -138 -77 -220 -229 -220s-220 76 -221 211h59c1 -102 47 -158 162 -158c118 0 170 59 170 167v2c0 105 -54 156 -157 156c-71 0 -129 -23 -159 -55h-65l45 349h362v-54z" />
    <glyph glyph-name="six.tab" 
d="M121 327h2c38 51 110 92 195 92c127 0 203 -70 203 -210v-2c0 -133 -82 -219 -217 -219c-163 0 -244 110 -244 317c0 221 59 367 245 367c132 0 190 -68 197 -171h-59c-6 70 -47 118 -138 118c-141 0 -184 -121 -184 -292zM309 365c-74 0 -153 -43 -188 -109
c8 -138 67 -215 183 -215c102 0 158 64 158 166v2c0 105 -54 156 -153 156z" />
    <glyph glyph-name="seven.tab" 
d="M428 606h-352v54h418v-51c-140 -187 -229 -384 -262 -609h-60c34 230 124 432 256 606z" />
    <glyph glyph-name="eight.tab" 
d="M286 41c113 0 177 48 177 137v2c0 88 -64 145 -177 145c-112 0 -176 -57 -176 -145v-2c0 -89 64 -137 176 -137zM286 672c130 0 220 -48 220 -171v-2c0 -80 -58 -133 -126 -146v-2c82 -17 143 -85 143 -171v-2c0 -124 -88 -190 -237 -190c-148 0 -237 66 -237 190v2
c0 86 62 154 144 171v2c-69 13 -126 66 -126 146v2c0 123 89 171 219 171zM286 379c100 0 160 42 160 120v2c0 87 -65 118 -160 118c-94 0 -159 -31 -159 -118v-2c0 -78 60 -120 159 -120z" />
    <glyph glyph-name="nine.tab" 
d="M452 333h-2c-39 -51 -111 -92 -195 -92c-127 0 -204 70 -204 210v2c0 133 82 219 218 219c163 0 243 -110 243 -317c0 -221 -56 -367 -242 -367c-132 0 -194 68 -201 171h59c6 -70 51 -118 141 -118c142 0 183 121 183 292zM264 295c74 0 152 43 187 109
c-7 138 -67 215 -182 215c-102 0 -159 -64 -159 -166v-2c0 -105 54 -156 154 -156z" />
    <glyph glyph-name="uni00AD" unicode="&#xad;" horiz-adv-x="264" 
d="M246 265h-227v54h227v-54z" />
    <glyph glyph-name="twosuperior" unicode="&#xb2;" horiz-adv-x="325" 
d="M87 342h201v-42h-254v31c0 107 204 132 204 234v2c0 43 -23 62 -74 62c-64 0 -79 -25 -80 -72h-46c3 75 41 115 126 115c80 0 122 -35 122 -105v-2c0 -121 -188 -150 -199 -223z" />
    <glyph glyph-name="threesuperior" unicode="&#xb3;" horiz-adv-x="338" 
d="M167 337c59 0 87 22 87 69v2c0 48 -29 68 -79 68h-38v40h42c42 0 64 18 64 56v2c0 39 -28 55 -79 55c-57 0 -79 -24 -80 -70h-45c2 74 40 113 128 113c75 0 123 -29 123 -98v-2c0 -48 -28 -68 -56 -75v-1c39 -7 66 -34 66 -88v-2c0 -75 -50 -112 -132 -112
c-92 0 -134 35 -134 113v7h45v-7c0 -46 22 -70 88 -70z" />
    <glyph glyph-name="onesuperior" unicode="&#xb9;" horiz-adv-x="226" 
d="M98 300v314c-16 -7 -47 -17 -76 -18v39c28 1 66 15 84 29h39v-364h-47z" />
    <glyph glyph-name="onequarter" unicode="&#xbc;" horiz-adv-x="768" 
d="M572 660l-431 -660h51l431 660h-51zM156 300v314c-16 -7 -47 -17 -76 -18v39c29 1 66 15 85 29h39v-364h-48zM612 79h-188v42l188 246h48v-247h43v-41h-42v-79h-49v79zM613 120v182h-2l-137 -182h139z" />
    <glyph glyph-name="onehalf" unicode="&#xbd;" horiz-adv-x="750" 
d="M546 660l-431 -660h51l431 660h-51zM150 300v314c-16 -7 -47 -17 -76 -18v39c29 1 66 15 85 29h39v-364h-48zM495 42h200v-42h-253v31c0 107 204 132 204 234v2c0 43 -22 62 -74 62c-64 0 -79 -25 -80 -72h-46c3 75 41 115 126 115c81 0 121 -35 121 -105v-2
c0 -121 -187 -150 -198 -223z" />
    <glyph glyph-name="threequarters" unicode="&#xbe;" horiz-adv-x="750" 
d="M183 337c59 0 87 22 87 69v2c0 48 -29 68 -79 68h-38v40h42c42 0 64 18 64 56v2c0 39 -28 55 -79 55c-57 0 -79 -24 -80 -70h-45c2 74 40 113 128 113c75 0 123 -29 123 -98v-2c0 -48 -28 -68 -56 -75c39 -9 66 -35 66 -89v-2c0 -75 -50 -112 -132 -112
c-92 0 -134 35 -134 113v7h45v-7c0 -46 22 -70 88 -70zM607 660l-430 -660h51l431 660h-52zM612 79h-188v42l188 246h48v-247h43v-41h-42v-79h-49v79zM613 120v182h-2l-137 -182h139z" />
    <glyph glyph-name="afii61289" unicode="&#x2113;" horiz-adv-x="376" 
d="M31 230c35 16 56 26 76 38v219c0 125 24 218 117 218c79 0 108 -75 108 -167v-2c0 -145 -80 -234 -175 -295v-90c0 -80 33 -112 94 -112c25 0 52 4 74 9v-43c-24 -8 -58 -13 -83 -13c-83 0 -135 43 -135 160v60c-19 -10 -39 -20 -58 -28zM157 487v-185
c70 51 123 124 123 234v2c0 64 -13 117 -56 117c-50 0 -67 -70 -67 -168z" />
    <glyph glyph-name="Omega" unicode="&#x2126;" horiz-adv-x="741" 
d="M371 703c213 0 318 -110 318 -303v-2c0 -202 -108 -269 -210 -299v-45l150 -4v-50h-198l-10 141c122 20 208 84 208 257v2c0 162 -80 250 -258 250c-179 0 -259 -88 -259 -250v-2c0 -173 87 -237 208 -257l-9 -141h-199v50l150 4v45c-101 30 -210 97 -210 299v2
c0 193 105 303 319 303z" />
    <glyph glyph-name="estimated" unicode="&#x212e;" horiz-adv-x="857" 
d="M820 335h-628c-3 0 -5 -1 -5 -4v-185c0 -15 3 -23 8 -29c59 -68 145 -96 240 -96c103 0 189 36 252 109h58c-72 -84 -183 -139 -311 -139c-221 0 -394 161 -394 358c0 199 169 359 390 359s390 -160 390 -359v-14zM673 365v186c0 20 -3 27 -11 36c-61 60 -137 91 -231 91
c-95 0 -172 -32 -235 -97c-5 -5 -9 -14 -9 -29v-187c0 -3 2 -6 5 -6h476c4 0 5 3 5 6z" />
    <glyph glyph-name="uni02C9" unicode="&#x2c9;" horiz-adv-x="246" 
d="M254 646v-45h-262v45h262z" />
    <glyph glyph-name="uni03BC" unicode="&#x3bc;" horiz-adv-x="542" 
d="M76 -158v660h57v-296c0 -95 65 -165 166 -165c77 0 115 35 115 128v333h58v-333c0 -126 -58 -180 -166 -180c-89 0 -150 49 -171 105h-2v-252h-57z" />
    <glyph glyph-name="fraction" unicode="&#x2044;" horiz-adv-x="370" 
d="M-66 0l451 672h51l-451 -672h-51z" />
    <glyph glyph-name="C" unicode="C" horiz-adv-x="668" 
d="M347 650c-164 0 -230 -99 -230 -304v-2c0 -205 66 -304 234 -304c129 0 192 62 203 183h59c-11 -151 -100 -236 -262 -236c-209 0 -295 122 -295 357v2c0 235 85 357 291 357c162 0 247 -80 257 -207h-59c-12 97 -73 154 -198 154z" />
    </font>
</defs>
</svg>
