<svg id="clCNlA.tif" xmlns="http://www.w3.org/2000/svg" width="88.756" height="120.998" viewBox="0 0 88.756 120.998">
  <g id="Grupo_819" data-name="Grupo 819" transform="translate(0 0)">
    <path id="Caminho_220" data-name="Caminho 220" d="M-661.637,1628.664H-664a9.566,9.566,0,0,1-4.631-3.626c-.284-.376-.637-.7-.906-1.087a1.158,1.158,0,0,0-1.39-.489c-3.684.773-6.692-1.381-7.342-5.128a1.518,1.518,0,0,0-.867-.971,5.817,5.817,0,0,1-4.287-4.964,1.288,1.288,0,0,0-1.094-1.231,5.646,5.646,0,0,1-4.1-4.577c-.084-.418-.15-.839-.22-1.237a6.027,6.027,0,0,1-4.706-8.146,2.539,2.539,0,0,0-2.02-2.966,4.245,4.245,0,0,1-3.489-1.639c-2.242-2.638-4.545-5.226-6.742-7.9a25.757,25.757,0,0,1-1.893-3.06v-1.181a7.065,7.065,0,0,1,2.507-3.313c1.494-1.218,2.9-2.541,4.416-3.735a2.836,2.836,0,0,0,1.215-2.588c-.1-2.556-.031-5.118-.031-7.677q0-18.9-.007-37.8a4.914,4.914,0,0,1,1.393-3.745q6.244-6.2,12.434-12.448a4.858,4.858,0,0,1,3.7-1.488c5.075.036,10.151.014,15.227.014q17.706,0,35.413,0a4.066,4.066,0,0,1,4.407,4.3c.012.393,0,.787,0,1.181q0,30.24-.02,60.48a3.359,3.359,0,0,0,.9,2.427c2.039,2.295,4.027,4.635,6,6.982a3.977,3.977,0,0,1-.425,6.043c-2.9,2.537-5.848,5.029-8.776,7.539a4.291,4.291,0,0,1-3.5,1.041,1.371,1.371,0,0,0-.951.159c-2.048,1.707-4.062,3.454-6.072,5.177,2.758,4.925,1.178,8.544-4.253,10.014a1.409,1.409,0,0,0-.7.874,5.72,5.72,0,0,1-3,3.616,21.806,21.806,0,0,1-2.9.928c-.742,3.173-2.863,4.788-6.078,5.089C-657.3,1626.346-659.1,1627.859-661.637,1628.664Zm30.495-58.481v-58.4h-50.3c0,3.182,0,6.285,0,9.388s-1.547,4.664-4.621,4.67c-2.715.006-5.429,0-8.144,0-.413,0-.827.037-1.238.057v42.882c.505-.417.869-.706,1.221-1.008q4.885-4.187,9.767-8.375c2.228-1.907,4.455-1.758,6.379.46,2.218,2.556,4.357,5.183,6.625,7.693,1.579,1.748,2.476,3.548,1.206,5.92,1.359.365,2.616.654,3.84,1.049a1.56,1.56,0,0,0,1.784-.432,6.718,6.718,0,0,1,4.81-1.9c1.244-.035,2.486-.152,3.8-.238-.978-2.382-.274-4.13,1.551-5.638,2.669-2.2,5.27-4.492,7.892-6.753,2.46-2.121,4.615-1.981,6.718.464C-637.008,1563.337-634.17,1566.651-631.142,1570.183Zm-38.035,7.768c-1.423-.379-2.624-.763-3.853-.993a1.982,1.982,0,0,0-1.443.333c-1.835,1.484-3.606,3.046-5.4,4.584q-5.817,4.994-11.625,9.984c.645,1.217,1.3,1.965,2.916,1.616a4.949,4.949,0,0,1,5.193,2.08,23.624,23.624,0,0,1,1.855,4c2.9.638,4.592,2.734,4.85,6a6.133,6.133,0,0,1,5.2,6.046c4.645,1.608,5.829,3.879,4.574,8.666a1.066,1.066,0,0,0,.214.808c.766.948,1.555,1.881,2.38,2.778a1.941,1.941,0,0,0,2.833.294,1.974,1.974,0,0,0,.194-2.849c-.406-.531-.887-1-1.281-1.543a1.958,1.958,0,0,1,.244-2.76,2.019,2.019,0,0,1,2.773.153c.445.442.818.957,1.244,1.419a1.992,1.992,0,0,0,2.925.358,2.042,2.042,0,0,0,.09-2.952c-.771-.945-1.6-1.846-2.361-2.794a1.988,1.988,0,0,1,.138-2.938,1.993,1.993,0,0,1,2.925.345c.766.845,1.476,1.74,2.228,2.6a2.074,2.074,0,0,0,3.007.471,2.012,2.012,0,0,0,.041-3.028c-1.086-1.3-2.209-2.564-3.292-3.863a3.466,3.466,0,0,1-.736-1.184,1.84,1.84,0,0,1,.956-2.3,1.991,1.991,0,0,1,2.625.62c1.226,1.436,2.448,2.877,3.691,4.3a1.7,1.7,0,0,0,2.2.606,2.759,2.759,0,0,0,1.269-1.628,2.734,2.734,0,0,0-.73-1.866c-3.675-4.363-7.4-8.683-11.117-13.013-1.807-2.107-3.62-4.208-5.475-6.365-.49.414-.879.739-1.265,1.068q-3.86,3.3-7.72,6.59a5.818,5.818,0,0,1-5.268,1.388,5.7,5.7,0,0,1-4.569-4.427,5.788,5.788,0,0,1,1.962-6.065C-674.325,1582.345-671.84,1580.236-669.177,1577.95Zm16.711-8.006,20.372,23.75,9.1-7.8-20.363-23.765Zm-51.12,11.171,7.817,9.109,22.121-18.989-7.8-9.109Zm67.124,13.685c-5.393-6.289-10.663-12.444-15.958-18.576a1.407,1.407,0,0,0-1.009-.379c-2.2.1-4.4.216-6.59.43a3.462,3.462,0,0,0-1.8.734c-4.091,3.447-8.141,6.941-12.2,10.431-1.1.946-1.289,2.064-.551,2.993.754.948,1.989.979,3.116.035,1.478-1.237,2.932-2.5,4.4-3.757q3.719-3.187,7.439-6.372a1.89,1.89,0,0,1,2.584-.146,1.778,1.778,0,0,1,.554,2.5c-.428.685-.038,1,.313,1.412q6.448,7.53,12.9,15.06c.224.262.412.556.661.895Zm-55.9-73.06h6.783v-6.809Zm16.806,89.822a1.994,1.994,0,0,0-2.016-2,2.044,2.044,0,0,0-1.946,1.982,2.038,2.038,0,0,0,1.925,2A1.968,1.968,0,0,0-675.553,1611.562Zm5.206,6.108a1.949,1.949,0,0,0-1.994-2.007,2.011,2.011,0,0,0-1.962,1.948,2.041,2.041,0,0,0,2.02,2.022A1.981,1.981,0,0,0-670.347,1617.67Zm-10.419-12.248a2,2,0,0,0-1.959-1.944,2.034,2.034,0,0,0-2.01,2.027,1.976,1.976,0,0,0,1.974,1.917A1.95,1.95,0,0,0-680.766,1605.422Zm-5.206-6.022a1.962,1.962,0,0,0-1.9-1.991,1.98,1.98,0,0,0-2.081,1.929,1.969,1.969,0,0,0,1.9,1.993A1.973,1.973,0,0,0-685.972,1599.4Z" transform="translate(707.682 -1507.666)" fill="#a89985"/>
    <path id="Caminho_221" data-name="Caminho 221" d="M-499.527,1596.834c-3.186,0-6.372.01-9.558,0-1.559-.006-2.408-.7-2.438-1.944-.031-1.292.858-2.079,2.445-2.082q9.616-.018,19.233,0c1.55,0,2.5.842,2.461,2.089-.041,1.216-.925,1.931-2.468,1.937C-493.076,1596.843-496.3,1596.834-499.527,1596.834Z" transform="translate(557.966 -1572.64)" fill="#a89985"/>
    <path id="Caminho_222" data-name="Caminho 222" d="M-499.465,1661.083c3.186,0,6.372-.009,9.558,0,1.585.007,2.514.79,2.482,2.041-.03,1.2-.949,1.983-2.45,1.986q-9.675.019-19.351,0a2.048,2.048,0,0,1-2.262-1.492,1.788,1.788,0,0,1,.88-2.223,3.616,3.616,0,0,1,1.585-.305C-505.837,1661.07-502.651,1661.083-499.465,1661.083Z" transform="translate(558.009 -1624.758)" fill="#a89985"/>
    <path id="Caminho_223" data-name="Caminho 223" d="M-545.17,1630.938c-2.318,0-4.637.046-6.953-.015-1.7-.044-2.743-1.6-1.887-2.88a2.721,2.721,0,0,1,1.892-1.09c4.595-.093,9.192-.068,13.788-.036a2,2,0,0,1,2.166,2.005,2.012,2.012,0,0,1-2.17,2C-540.613,1630.969-542.892,1630.937-545.17,1630.938Z" transform="translate(590.627 -1598.661)" fill="#a89985"/>
    <path id="Caminho_224" data-name="Caminho 224" d="M-545.124,1695.168c2.24,0,4.479-.01,6.719,0,1.482.009,2.4.8,2.388,2.012s-.939,2-2.423,2.009q-6.659.02-13.32,0c-1.49-.005-2.375-.8-2.366-2.046s.863-1.967,2.4-1.975C-549.524,1695.159-547.324,1695.168-545.124,1695.168Z" transform="translate(590.481 -1650.773)" fill="#a89985"/>
    <path id="Caminho_225" data-name="Caminho 225" d="M-626.89,1668.021c1.482-1.973,2.912-3.892,4.36-5.8.884-1.162,2.09-1.435,3.041-.725.973.726,1.062,1.936.182,3.123q-2.77,3.737-5.577,7.446c-1.086,1.434-2.262,1.5-3.56.237-.506-.493-1.009-.991-1.5-1.5-.96-1.006-1.056-2.051-.286-2.937.755-.868,1.8-.9,2.936-.1C-627.2,1667.833-627.1,1667.891-626.89,1668.021Z" transform="translate(648.956 -1624.782)" fill="#a89985"/>
    <path id="Caminho_226" data-name="Caminho 226" d="M-626.887,1599.806c1.438-1.915,2.85-3.8,4.27-5.686.97-1.286,2.094-1.579,3.11-.824s1.073,1.936.122,3.216q-2.709,3.65-5.449,7.277c-1.14,1.5-2.315,1.578-3.643.274-.478-.469-.953-.941-1.417-1.422-1-1.03-1.117-2.03-.369-2.934s1.772-.967,2.94-.184C-627.2,1599.609-627.068,1599.689-626.887,1599.806Z" transform="translate(648.961 -1572.709)" fill="#a89985"/>
    <path id="Caminho_227" data-name="Caminho 227" d="M-551.11,1596.849a9.9,9.9,0,0,1-1.291-.009,1.843,1.843,0,0,1-1.718-1.785,1.83,1.83,0,0,1,1.5-2.075,10.631,10.631,0,0,1,2.8-.045,1.874,1.874,0,0,1,1.666,2.071,1.923,1.923,0,0,1-1.905,1.859c-.35.03-.705,0-1.058,0Z" transform="translate(590.486 -1572.693)" fill="#a89985"/>
    <path id="Caminho_228" data-name="Caminho 228" d="M-551.063,1661.092c.2,0,.392,0,.588,0,1.465.04,2.291.723,2.329,1.926.04,1.257-.819,2.054-2.3,2.1a12.863,12.863,0,0,1-1.763-.022,1.994,1.994,0,0,1-1.924-2.109,1.953,1.953,0,0,1,2.008-1.885c.351-.024.705,0,1.058,0Z" transform="translate(590.486 -1624.766)" fill="#a89985"/>
  </g>
</svg>
