<?xml version="1.0" encoding="UTF-8"?>
<svg width="14px" height="14px" viewBox="0 0 14 14" version="1.1" xmlns="http://www.w3.org/2000/svg" xmlns:xlink="http://www.w3.org/1999/xlink">
    <!-- Generator: Sketch 46 (44423) - http://www.bohemiancoding.com/sketch -->
    <title>Shape</title>
    <desc>Created with Sketch.</desc>
    <defs></defs>
    <g id="Symbols" stroke="none" stroke-width="1" fill="none" fill-rule="evenodd">
        <g id="blocos/Galeria-de-Fotos" transform="translate(-1243.000000, -233.000000)" fill-rule="nonzero" fill="#FFFFFF">
            <g id="Group-2" transform="translate(400.000000, 80.000000)">
                <g id="ico-Full" transform="translate(830.000000, 140.000000)">
                    <path d="M13,13 L18,13 L18,15 L15,15 L15,18 L13,18 L13,13 L13,13 Z M22,13 L27,13 L27,18 L25,18 L25,15 L22,15 L22,13 L22,13 Z M25,22 L27,22 L27,27 L22,27 L22,25 L25,25 L25,22 L25,22 Z M18,25 L18,27 L13,27 L13,22 L15,22 L15,25 L18,25 Z" id="Shape"></path>
                </g>
            </g>
        </g>
    </g>
</svg>