<svg id="EYrMc9.tif" xmlns="http://www.w3.org/2000/svg" width="105.791" height="120.997" viewBox="0 0 105.791 120.997">
  <g id="Grupo_820" data-name="Grupo 820" transform="translate(0 0)">
    <path id="Caminho_229" data-name="Caminho 229" d="M-622.864,1051.547a3.41,3.41,0,0,1,3.421-1.791c7.841.059,15.683.026,23.524.028,2.425,0,3.279.84,3.28,3.229q0,15.671,0,31.342c0,2.392-.854,3.23-3.278,3.231-7.842,0-15.683-.03-23.525.028a3.415,3.415,0,0,1-3.422-1.791Zm25.133,3.366h-20v27.565h20Z" transform="translate(622.864 -966.615)" fill="#a89985"/>
    <path id="Caminho_230" data-name="Caminho 230" d="M-305.826,720.455a14.09,14.09,0,0,1,1.871,2.519,42.512,42.512,0,0,1,1.746,4.976,1.3,1.3,0,0,0,1.49,1.108c1.969-.041,3.941.066,5.912.107a2.452,2.452,0,0,1,2.582,1.79,2.553,2.553,0,0,1-1.134,2.949c-1.583,1.174-3.123,2.407-4.72,3.561a1.163,1.163,0,0,0-.519,1.562c.622,1.822,1.133,3.683,1.676,5.532.451,1.534.2,2.572-.842,3.26a2.657,2.657,0,0,1-3.263-.255c-1.568-1.122-3.182-2.182-4.731-3.33a1.177,1.177,0,0,0-1.653.018c-1.585,1.169-3.231,2.255-4.843,3.388a2.6,2.6,0,0,1-3.16.176c-1-.661-1.288-1.718-.87-3.145.565-1.93,1.2-3.84,1.7-5.786a1.561,1.561,0,0,0-.437-1.309c-1.553-1.279-3.173-2.477-4.79-3.676a2.542,2.542,0,0,1-1.134-2.946,2.456,2.456,0,0,1,2.583-1.79c1.971-.041,3.943-.148,5.912-.108a1.3,1.3,0,0,0,1.49-1.107,42.232,42.232,0,0,1,1.747-4.976,14.1,14.1,0,0,1,1.872-2.52Zm3.833,13.586c-2.542.306-4.049-.667-4.614-3.1-.522,2.469-2,3.424-4.434,3.207,2.226,1.3,2.739,2.984,1.608,5.1a9.444,9.444,0,0,1,2.905-1.059,7.842,7.842,0,0,1,2.648,1.011C-304.513,736.192-304.513,736.192-301.992,734.041Z" transform="translate(397.259 -720.455)" fill="#a89985"/>
    <path id="Caminho_231" data-name="Caminho 231" d="M-323.567,911.752q0-19.081,0-38.161c0-2.6.79-3.406,3.356-3.407q11.832,0,23.665,0c2.328,0,3.2.868,3.2,3.182q0,38.413,0,76.827c0,2.305-.875,3.156-3.23,3.156q-11.9,0-23.791,0c-2.323,0-3.2-.873-3.2-3.183Q-323.57,930.959-323.567,911.752Zm25.1,36.5V875.323h-20V948.25Z" transform="translate(399.132 -832.38)" fill="#a89985"/>
    <path id="Caminho_232" data-name="Caminho 232" d="M-473.216,1007.575q0-12.151,0-24.3c0-2.43.837-3.284,3.224-3.285q11.893,0,23.787,0c2.339,0,3.212.86,3.213,3.171q0,24.555,0,49.11c0,2.253-.887,3.158-3.1,3.16q-12.019.008-24.038,0c-2.2,0-3.085-.915-3.086-3.172Q-473.22,1019.915-473.216,1007.575Zm5.128-22.495v45.205H-448.1V985.08Z" transform="translate(510.999 -914.46)" fill="#a89985"/>
    <path id="Caminho_233" data-name="Caminho 233" d="M-466.325,855.865c.6-2.042,1.1-3.768,1.624-5.49.743-2.461.749-2.46-1.281-4.007q-1.8-1.372-3.607-2.74a2.47,2.47,0,0,1-1-2.878A2.416,2.416,0,0,1-468.11,839c2.054-.053,4.109-.126,6.164-.125a1.092,1.092,0,0,0,1.251-.891c.567-1.8,1.227-3.564,1.853-5.342.584-1.657,1.329-2.335,2.57-2.35,1.274-.016,2.053.687,2.659,2.408.625,1.778,1.281,3.547,1.849,5.344a1.023,1.023,0,0,0,1.166.827c2.013.009,4.025.088,6.038.118a2.508,2.508,0,0,1,2.65,1.706,2.568,2.568,0,0,1-1.133,3.059c-1.552,1.145-3.046,2.372-4.626,3.476a1.3,1.3,0,0,0-.548,1.779c.61,1.782,1.1,3.607,1.653,5.408a2.643,2.643,0,0,1-.784,3.177q-1.427,1.114-3.359-.226c-1.553-1.071-3.12-2.124-4.635-3.247a1.242,1.242,0,0,0-1.755-.022c-1.647,1.226-3.357,2.368-5.056,3.523a2.236,2.236,0,0,1-2.709.11A8.748,8.748,0,0,1-466.325,855.865Zm10.071-15.077c-.509,2.494-2.026,3.4-4.451,3.181,2.242,1.306,2.729,2.994,1.682,5.28,1.922-1.782,3.685-1.672,5.554-.031-1.052-2.288-.457-3.987,1.664-5.27C-454.234,844.164-455.684,843.224-456.254,840.788Z" transform="translate(509.136 -802.559)" fill="#a89985"/>
    <path id="Caminho_234" data-name="Caminho 234" d="M-615.97,925.775c.588-2,1.074-3.689,1.578-5.371.783-2.615.788-2.615-1.409-4.291q-1.7-1.3-3.409-2.584a2.478,2.478,0,0,1-1.032-2.869,2.4,2.4,0,0,1,2.461-1.777c1.971-.056,3.943-.164,5.911-.113a1.451,1.451,0,0,0,1.661-1.231c.557-1.8,1.215-3.568,1.823-5.353a2.591,2.591,0,0,1,2.443-2.01,2.57,2.57,0,0,1,2.557,2.02c.661,1.854,1.331,3.707,1.925,5.583a1.16,1.16,0,0,0,1.319.979c1.844-.026,3.69.074,5.535.088,1.343.01,2.531.273,3.055,1.7.455,1.238.005,2.211-1.514,3.374-1.465,1.122-2.97,2.195-4.387,3.374a1.564,1.564,0,0,0-.43,1.31c.488,1.906,1.1,3.779,1.66,5.667.451,1.529.2,2.574-.847,3.259a2.661,2.661,0,0,1-3.263-.26c-1.568-1.123-3.182-2.182-4.73-3.331a1.178,1.178,0,0,0-1.653.024c-1.656,1.214-3.361,2.363-5.057,3.521a2.249,2.249,0,0,1-2.709.138A8.815,8.815,0,0,1-615.97,925.775Zm7.35-6.7c1.885-1.752,3.645-1.589,5.509.007-1.069-2.292-.428-3.975,1.67-5.276-2.5.293-3.9-.785-4.448-3.193-.578,2.472-1.993,3.461-4.425,3.209C-608.232,915.135-607.59,916.781-608.62,919.08Z" transform="translate(620.997 -854.8)" fill="#a89985"/>
    <path id="Caminho_235" data-name="Caminho 235" d="M-258.679,964.076q0,10.2,0,20.391a10.121,10.121,0,0,1-.029,1.257,2.525,2.525,0,0,1-2.475,2.238,2.527,2.527,0,0,1-2.5-2.208,8.483,8.483,0,0,1-.03-1.131q0-20.579,0-41.159a9.134,9.134,0,0,1,.026-1.132,2.525,2.525,0,0,1,2.476-2.236,2.524,2.524,0,0,1,2.5,2.207,9.473,9.473,0,0,1,.032,1.257Q-258.678,953.818-258.679,964.076Z" transform="translate(354.394 -884.642)" fill="#a89985"/>
  </g>
</svg>
