<svg xmlns="http://www.w3.org/2000/svg" width="35" height="35" viewBox="0 0 35 35"><g fill="none" fill-rule="evenodd" stroke="#FFF" stroke-linecap="round" stroke-linejoin="round"><path d="M15 20s-5-4.5-5-7c2-1.5 3-2.5 3-2.5s1-1 1-2.5-.408-1.908-2-3.5L9.5 2C9 1.5 7.314.072 5 2 2 4.5 1.5 5.5 1.5 5.5S1.028 6.31 1 8c-.028 1.69.319 3.878 2 7 3.5 6.5 7 10 7 10"/><path d="M15 20s4.5 5 7 5c1.5-2 2.5-3 2.5-3s1-1 2.5-1 1.908.408 3.5 2l2.5 2.5c.5.5 1.928 2.186 0 4.5-2.5 3-3.5 3.5-3.5 3.5s-.81.472-2.5.5c-1.69.028-3.878-.319-7-2-6.5-3.5-10-7-10-7"/></g></svg>