<?xml version="1.0" encoding="utf-8"?>
<!-- Generator: Adobe Illustrator 27.4.0, SVG Export Plug-In . SVG Version: 6.00 Build 0)  -->
<svg version="1.1" id="Camada_1" xmlns="http://www.w3.org/2000/svg" xmlns:xlink="http://www.w3.org/1999/xlink" x="0px" y="0px"
	 viewBox="0 0 33 40" style="enable-background:new 0 0 33 40;" xml:space="preserve">
<style type="text/css">
	.st0{fill:none;stroke:#008AA4;stroke-linecap:round;stroke-linejoin:round;}
</style>
<path class="st0" d="M18,28.6c0.8,0.2,1.7,0.3,2.6,0.3c3.1,0,6.1-1.3,8.4-3.6c2.2-2.3,3.5-5.4,3.5-8.6c0-3.2-1.2-6.3-3.5-8.6
	c-2.2-2.3-5.2-3.6-8.4-3.6h-0.2c-1.8-2.6-4.8-4.2-8-4.2c-5.4,0-9.8,4.4-9.8,10c0,1.3,0.2,2.5,0.7,3.6c-1.7,1.8-2.7,4.3-2.7,6.9
	c0,5.5,4.3,10,9.8,10c0.9,0,1.7-0.1,2.6-0.4v8.8H18C18,39.5,18,28.6,18,28.6z"/>
</svg>
