<?xml version="1.0" encoding="utf-8"?>
<!-- Generator: Adobe Illustrator 27.4.0, SVG Export Plug-In . SVG Version: 6.00 Build 0)  -->
<svg version="1.1" id="Camada_1" xmlns="http://www.w3.org/2000/svg" xmlns:xlink="http://www.w3.org/1999/xlink" x="0px" y="0px"
	 viewBox="0 0 30 38" style="enable-background:new 0 0 30 38;" xml:space="preserve">
<style type="text/css">
	.st0{fill:none;stroke:#008AA4;stroke-linecap:round;stroke-linejoin:round;}
</style>
<path class="st0" d="M15,0.8C9.1,0.8,4.2,5.5,4.2,11.3c0,1.8,0.6,3.9,1.6,6.1c0.9,2,2.1,4.1,3.6,6.3c1.6,2.3,3.3,4.5,5.2,6.5
	l0.4,0.4l0.4-0.4c0.1-0.1,0.2-0.3,0.4-0.5c1.7-1.9,3.3-3.9,4.7-6c1.5-2.2,2.7-4.3,3.6-6.3c1-2.3,1.6-4.3,1.6-6.1
	C25.8,5.5,20.9,0.8,15,0.8z M15,8.5c1.6,0,2.9,1.3,2.9,2.9s-1.3,2.9-2.9,2.9s-2.9-1.3-2.9-2.9C12.1,9.8,13.4,8.5,15,8.5z M29.2,29.9
	c0-2.4-2.1-4.5-5.6-5.8l-0.4-0.1L23,24.2l-1.1,1.5l-0.4,0.5l0.6,0.2c1.7,0.7,2.7,1.6,2.7,2.5c0,1.9-4.4,3.7-9.8,3.7
	c-5.4,0-9.8-1.8-9.8-3.7c0-0.9,0.9-1.8,2.7-2.5l0.6-0.2l-0.4-0.5L7,24.2l-0.2-0.3l-0.4,0.1c-3.5,1.3-5.6,3.4-5.6,5.8
	c0,4.1,6.4,7.2,14.2,7.2S29.2,33.9,29.2,29.9z"/>
</svg>
