<svg xmlns="http://www.w3.org/2000/svg" width="41" height="36" viewBox="0 0 41 36"><path fill="#FFF" fill-rule="evenodd" d="M24.266 25.063c-.12-.167-.323-.25-.566-.25a.872.872 0 0 0-.383.083 1.577 1.577 0 0 0-.384.293v5.857c.141.148.302.274.443.335.144.06.284.104.428.104.243 0 .403-.06.502-.208.102-.124.163-.335.163-.645v-4.861c0-.313-.061-.54-.203-.708zm0 0c-.12-.167-.323-.25-.566-.25a.872.872 0 0 0-.383.083 1.577 1.577 0 0 0-.384.293v5.857c.141.148.302.274.443.335.144.06.284.104.428.104.243 0 .403-.06.502-.208.102-.124.163-.335.163-.645v-4.861c0-.313-.061-.54-.203-.708zm-.566-.25a.872.872 0 0 0-.383.083 1.577 1.577 0 0 0-.384.293v5.857c.141.148.302.274.443.335.144.06.284.104.428.104.243 0 .403-.06.502-.208.102-.124.163-.335.163-.645v-4.861c0-.313-.061-.54-.203-.708-.12-.167-.323-.25-.566-.25zm9.007 3.556h-3.503v1.764c0 .499.04.833.163 1.02.12.206.345.288.628.288.302 0 .505-.082.626-.247.122-.148.181-.52.181-1.061v-.434h1.905v.475c0 .979-.243 1.704-.71 2.181-.444.5-1.136.73-2.042.73-.83 0-1.478-.25-1.945-.769-.463-.518-.706-1.226-.706-2.142v-4.217c0-.81.262-1.476.789-1.994.505-.502 1.173-.768 2.001-.768.831 0 1.48.25 1.922.727.448.477.691 1.141.691 2.035v2.412zm-6.357 2.513c0 .664-.141 1.182-.424 1.538-.281.352-.709.538-1.251.538-.369 0-.67-.063-.954-.206a2.561 2.561 0 0 1-.788-.644v.727H21.09V20.1h1.842v4.09c.243-.268.505-.496.788-.642.283-.147.566-.227.85-.227.566 0 1.012.206 1.314.6.305.396.465.975.465 1.748v5.213zm-6.637 1.953h-1.841v-1.037a3.39 3.39 0 0 1-1.05.87c-.364.208-.711.312-1.056.312-.422 0-.746-.145-.97-.438-.203-.27-.302-.684-.302-1.244v-7.876h1.82v7.232c0 .206.04.373.122.475.062.106.203.148.366.148.14 0 .302-.06.505-.209a1.84 1.84 0 0 0 .565-.499v-7.147h1.84v9.413zm-6.026-10.888H11.54v10.888H9.475V21.947H7.351V20.1h6.336v1.847zm20.96-4.135H5.957C2.82 17.812.23 20.473.23 23.713v6.005c0 3.24 2.59 5.882 5.727 5.882h28.692c3.137 0 5.728-2.642 5.728-5.882v-6.005c0-3.24-2.591-5.9-5.728-5.9zm-10.38 7.251c-.121-.167-.324-.25-.567-.25a.872.872 0 0 0-.383.083 1.577 1.577 0 0 0-.384.293v5.857c.141.148.302.274.443.335.144.06.284.104.428.104.243 0 .403-.06.502-.208.102-.124.163-.335.163-.645v-4.861c0-.313-.061-.54-.203-.708zm0 0c-.121-.167-.324-.25-.567-.25a.872.872 0 0 0-.383.083 1.577 1.577 0 0 0-.384.293v5.857c.141.148.302.274.443.335.144.06.284.104.428.104.243 0 .403-.06.502-.208.102-.124.163-.335.163-.645v-4.861c0-.313-.061-.54-.203-.708zm6.354.044c.122.164.181.455.181.828v.955h-1.598v-.955c0-.373.04-.664.182-.828.123-.168.326-.272.63-.272.281 0 .484.104.605.272zM14.534.4l-1.435 5.61h-.163L11.437.4H9.093l2.771 8.477v5.55h2.325V8.606L16.883.4h-2.35zm6.394 11.615c0 .27-.08.478-.245.643-.158.17-.382.25-.666.25-.262 0-.484-.08-.628-.25-.139-.143-.221-.374-.221-.643V6.364c0-.228.082-.414.243-.54.141-.148.363-.209.606-.209.262 0 .487.06.666.209.165.126.245.312.245.54v5.651zm1.294-7.44c-.548-.516-1.253-.768-2.1-.768-.933 0-1.681.252-2.25.73-.546.475-.827 1.098-.827 1.91v5.362c0 .892.281 1.576.808 2.1.545.518 1.274.787 2.164.787.93 0 1.681-.248 2.205-.769.548-.499.81-1.185.81-2.079V6.51c0-.79-.284-1.434-.81-1.933zm6.295-.499v7.857a2.803 2.803 0 0 1-.627.56c-.244.148-.425.228-.586.228-.182 0-.326-.063-.406-.168-.101-.123-.142-.288-.142-.538V4.076h-2.065v8.645c0 .625.123 1.08.366 1.393.24.313.609.456 1.072.456.406 0 .788-.105 1.213-.31.406-.228.79-.541 1.175-.977v1.144h2.066V4.077h-2.066z"/></svg>