<svg xmlns="http://www.w3.org/2000/svg" width="30" height="38" viewBox="0 0 30 38">
    <path fill="none" fill-rule="nonzero" stroke="#39BB9C" stroke-linecap="round" stroke-linejoin="round" d="M15 .75C9.063.75 4.242 5.451 4.242 11.261c0 1.803.555 3.861 1.581 6.133.9 1.992 2.141 4.098 3.637 6.261a66.546 66.546 0 0 0 5.173 6.538l.367.396.367-.396c.083-.09.236-.259.449-.5a66.546 66.546 0 0 0 4.725-6.037c1.495-2.164 2.735-4.27 3.636-6.262 1.026-2.272 1.581-4.33 1.581-6.133C25.758 5.451 20.937.75 15 .75zm0 7.73c1.614 0 2.92 1.285 2.92 2.865 0 1.58-1.306 2.865-2.92 2.865-1.614 0-2.92-1.284-2.92-2.865 0-1.58 1.306-2.865 2.92-2.865zm14.177 21.373c0-2.368-2.141-4.471-5.639-5.8l-.36-.138-.224.314-1.095 1.53-.367.515.584.24c1.738.712 2.682 1.625 2.682 2.498 0 1.923-4.35 3.706-9.758 3.706-5.409 0-9.758-1.783-9.758-3.706 0-.873.944-1.786 2.682-2.499l.584-.24-.367-.513-1.095-1.531-.224-.314-.36.137c-3.498 1.33-5.64 3.433-5.64 5.801 0 4.091 6.38 7.23 14.178 7.23 7.798 0 14.177-3.139 14.177-7.23z"/>
</svg>
