<svg xmlns="http://www.w3.org/2000/svg" width="20" height="24" viewBox="0 0 20 24"><path fill="#FFF" d="M6.894 18.206l-.09-.036c-3.353-1.308-5.611-4.539-5.611-8.186 0-4.856 3.943-8.792 8.806-8.792 4.865 0 8.805 3.935 8.805 8.792a8.793 8.793 0 0 1-5.47 8.135l-.087.035-3.196 4.006-3.157-3.954zm3.157 5.112l3.644-4.567a9.515 9.515 0 0 0 5.832-8.767C19.527 4.728 15.263.47 10 .47 4.737.469.47 4.729.47 9.984c0 3.915 2.402 7.386 5.98 8.824l3.601 4.51zm3.55-13.48A3.6 3.6 0 0 0 10 6.24a3.6 3.6 0 0 0-3.603 3.598A3.6 3.6 0 0 0 10 13.435a3.6 3.6 0 0 0 3.6-3.598zm-.722 0a2.877 2.877 0 0 1-2.88 2.874 2.877 2.877 0 0 1-2.88-2.874 2.878 2.878 0 0 1 2.88-2.875c1.59 0 2.88 1.287 2.88 2.874zM9.4 23.256l.369.46.283.353.648-.813 3.288-4.122a9.952 9.952 0 0 0 6.01-9.15c0-5.507-4.486-9.985-10-9.985C4.486 0 0 4.478 0 9.985c0 4.056 2.41 7.652 6.158 9.21L9.4 23.256zm.565-.452l-3.3-4.135-.06-.074-.088-.036C2.991 17.134.723 13.778.723 9.985.723 4.878 4.884.723 9.999.723c5.114 0 9.276 4.155 9.276 9.261a9.23 9.23 0 0 1-5.654 8.522l-.084.036-3.402 4.264-.085.106-.085-.107zM7.586 9.837A2.414 2.414 0 0 1 10 7.431a2.414 2.414 0 0 1 2.412 2.406 2.413 2.413 0 0 1-4.825 0zm-.723 0a3.135 3.135 0 0 0 6.271 0A3.137 3.137 0 0 0 10 6.708a3.137 3.137 0 0 0-3.136 3.13z"/></svg>