<svg xmlns="http://www.w3.org/2000/svg" xmlns:xlink="http://www.w3.org/1999/xlink" width="25" height="26.207" viewBox="0 0 25 26.207">
  <defs>
    <clipPath id="clip-path">
      <rect id="Retângulo_500" data-name="Retângulo 500" width="17.05" height="25.363"/>
    </clipPath>
  </defs>
  <g id="SaibaMaisIconComponentMobile" transform="translate(-0.5)">
    <rect id="Retângulo_129" data-name="Retângulo 129" width="25" height="26" transform="translate(0.5 0.207)" fill="none"/>
    <g id="SaibaMaisIconVectorMobile" transform="translate(3.975)">
      <g id="Grupo_666" data-name="Grupo 666" clip-path="url(#clip-path)">
        <path id="Caminho_152" data-name="Caminho 152" d="M8.119,125.148a6.933,6.933,0,0,1-1.21-.52,2.676,2.676,0,0,1-1.217-2.284c0-.048,0-.1-.008-.161H0c.034-.1.056-.17.083-.241.523-1.351,1.049-2.7,1.568-4.054a1.168,1.168,0,0,0,.075-.406c0-1.842.012-3.684,0-5.526a6.738,6.738,0,0,1,1.465-4.365,6.524,6.524,0,0,1,4.338-2.514,6.607,6.607,0,0,1,6.125,2.265,6.335,6.335,0,0,1,1.593,3.5,10.858,10.858,0,0,1,.086,1.307c.009,1.776,0,3.552.008,5.328a1.452,1.452,0,0,0,.1.5c.5,1.315,1.016,2.626,1.525,3.938.029.075.051.152.087.257H11.378A3.121,3.121,0,0,1,11,123.692,2.844,2.844,0,0,1,9.092,125.1a.891.891,0,0,0-.13.051Zm-4.9-8.051H13.81c.006-.063.014-.111.014-.159,0-1.726.006-3.452,0-5.178a5.216,5.216,0,0,0-1.477-3.642,5.3,5.3,0,0,0-6.026-1.142,5.235,5.235,0,0,0-3.1,4.924c-.024,1.222,0,2.444,0,3.666v1.53m11.636,3.58a.674.674,0,0,0-.021-.1c-.235-.606-.478-1.21-.7-1.82-.054-.147-.143-.151-.264-.151q-5.335,0-10.669,0a.25.25,0,0,0-.285.19c-.164.457-.35.906-.525,1.359-.066.172-.128.345-.195.528Zm-5.008,1.512H7.188a1.365,1.365,0,0,0,1.353,1.469,1.331,1.331,0,0,0,1.3-1.469" transform="translate(0 -99.785)" fill="#494850"/>
        <path id="Caminho_153" data-name="Caminho 153" d="M49.475,11l-1.632-3,1.312-.719,1.634,3L49.475,11" transform="translate(-45.467 -6.925)" fill="#494850"/>
        <path id="Caminho_154" data-name="Caminho 154" d="M237.794,7.324l1.312.716-1.631,3-1.315-.717,1.634-3" transform="translate(-224.43 -6.96)" fill="#494850"/>
        <rect id="Retângulo_499" data-name="Retângulo 499" width="1.464" height="3.239" transform="translate(7.788)" fill="#494850"/>
      </g>
    </g>
  </g>
</svg>
