<?xml version="1.0" encoding="utf-8"?>
<!-- Generator: Adobe Illustrator 27.4.0, SVG Export Plug-In . SVG Version: 6.00 Build 0)  -->
<svg version="1.1" id="Camada_1" xmlns="http://www.w3.org/2000/svg" xmlns:xlink="http://www.w3.org/1999/xlink" x="0px" y="0px"
	 viewBox="0 0 43 39" style="enable-background:new 0 0 43 39;" xml:space="preserve">
<style type="text/css">
	.st0{fill:none;stroke:#008AA4;stroke-linecap:round;stroke-linejoin:round;}
</style>
<path class="st0" d="M0.8,31.1l-0.3,0.1v7.3l0.7-0.3c6.6-3.1,9.6-4.1,13.2-4.1c1.8,0,3.2,0.5,6.5,2c0.7,0.3,1,0.4,1.4,0.6
	c2.3,1,3.9,1.5,5.6,1.5c2,0,3.5-0.5,6.9-2.1c3.3-1.5,4.7-2,6.5-2h0.5v-7.2h-0.5c-2,0-3.5,0.5-6.9,2.1c-3.3,1.5-4.7,2-6.5,2
	c-1.5,0-3-0.4-5.2-1.4c-0.4-0.2-0.7-0.3-1.3-0.6c-3.4-1.6-5-2.1-6.9-2.1C10.6,26.9,7.6,28,0.8,31.1z M22.8,11.4l9.3-6.7l0.4-0.3
	l-0.3-0.4l-2.3-3.4l-0.3-0.4l-0.4,0.3L17.7,8.8c-0.7,0.5-1.1,1.3-1.1,2.1c0,0.6,0.2,1.2,0.6,1.6l1.8,2.1l-9.5,6.8l-2.2,1.6l2.6-0.7
	c1.6-0.4,3.1-0.6,4.5-0.6c1.8,0,3.2,0.5,6.5,2c3.4,1.6,5,2.1,6.9,2.1c1.5,0,3-0.4,5-1.2l0.6-0.3L33,23.9
	C33,23.9,22.8,11.4,22.8,11.4z M33.2,8.4c-2.5,0-4.5,2.1-4.5,4.6s2,4.6,4.5,4.6c2.5,0,4.5-2.1,4.5-4.6S35.7,8.4,33.2,8.4z"/>
</svg>
