<svg xmlns="http://www.w3.org/2000/svg" width="28" height="28" viewBox="0 0 28 28"><g fill="none" fill-rule="evenodd" stroke="#494850" stroke-linecap="round" stroke-linejoin="round" stroke-width=".8"><path d="M12.031 15.953s-3.939-3.545-3.939-5.515c1.576-1.182 2.364-1.97 2.364-1.97s.788-.787.788-1.97c0-1.181-.322-1.502-1.576-2.757l-1.97-1.97c-.394-.393-1.722-1.519-3.545 0C1.789 3.742 1.395 4.53 1.395 4.53s-.372.638-.394 1.97c-.022 1.332.251 3.055 1.576 5.515 2.758 5.121 5.515 7.879 5.515 7.879"/><path d="M11.94 16s3.545 3.94 5.515 3.94c1.181-1.576 1.97-2.364 1.97-2.364s.787-.788 1.969-.788 1.503.321 2.758 1.576l1.97 1.97c.393.393 1.518 1.722 0 3.545-1.97 2.363-2.758 2.757-2.758 2.757s-.638.372-1.97.394c-1.332.022-3.055-.25-5.515-1.575C10.758 22.697 8 19.939 8 19.939"/></g></svg>