<svg xmlns="http://www.w3.org/2000/svg" width="81" height="81" viewBox="0 0 81 81">
  <g id="LazerIconRed" transform="translate(3492 -1646)">
    <rect id="Retângulo_93" data-name="Retângulo 93" width="81" height="81" transform="translate(-3492 1646)" fill="none"/>
    <g id="Grupo_65" data-name="Grupo 65" transform="translate(-4490.546 1645.854)">
      <path id="Caminho_40" data-name="Caminho 40" d="M1038.9,17.78v-3.7a6.933,6.933,0,0,0-6.933-6.933h0a6.933,6.933,0,0,0-6.933,6.933V50.609" transform="translate(-8.216)" fill="none" stroke="#e46457" stroke-linecap="round" stroke-linejoin="round" stroke-width="4"/>
      <path id="Caminho_41" data-name="Caminho 41" d="M1093.222,17.78v-3.7a6.933,6.933,0,0,0-6.932-6.933h0a6.933,6.933,0,0,0-6.933,6.933V50.609" transform="translate(-27.217)" fill="none" stroke="#e46457" stroke-linecap="round" stroke-linejoin="round" stroke-width="4"/>
      <line id="Linha_15" data-name="Linha 15" x2="35.32" transform="translate(1016.819 27.217)" fill="none" stroke="#e46457" stroke-linecap="round" stroke-linejoin="round" stroke-width="4"/>
      <line id="Linha_16" data-name="Linha 16" x2="35.32" transform="translate(1016.819 41.199)" fill="none" stroke="#e46457" stroke-linecap="round" stroke-linejoin="round" stroke-width="4"/>
      <g id="Grupo_20" data-name="Grupo 20" transform="translate(1001.546 60.682)">
        <path id="Caminho_42" data-name="Caminho 42" d="M1001.546,89.482c6.313,0,6.313,2.6,12.627,2.6s6.314-2.6,12.627-2.6,6.313,2.6,12.626,2.6,6.314-2.6,12.627-2.6,6.314,2.6,12.629,2.6,6.314-2.6,12.629-2.6" transform="translate(-1001.546 -89.482)" fill="none" stroke="#e46457" stroke-linecap="round" stroke-linejoin="round" stroke-width="4"/>
      </g>
      <g id="Grupo_21" data-name="Grupo 21" transform="translate(1001.546 72.055)">
        <path id="Caminho_43" data-name="Caminho 43" d="M1001.546,106.973c6.313,0,6.313,2.6,12.627,2.6s6.314-2.6,12.627-2.6,6.313,2.6,12.626,2.6,6.314-2.6,12.627-2.6,6.314,2.6,12.629,2.6,6.314-2.6,12.629-2.6" transform="translate(-1001.546 -106.973)" fill="none" stroke="#e46457" stroke-linecap="round" stroke-linejoin="round" stroke-width="4"/>
      </g>
    </g>
  </g>
</svg>
