<svg xmlns="http://www.w3.org/2000/svg" width="118.192" height="105.749" viewBox="0 0 118.192 105.749">
  <g id="Grupo_722" data-name="Grupo 722" transform="translate(-999.546 -5.146)">
    <path id="Caminho_40" data-name="Caminho 40" d="M1045.933,23.174V17.595a10.449,10.449,0,0,0-10.449-10.449h0a10.449,10.449,0,0,0-10.449,10.449V72.653" transform="translate(-0.47)" fill="none" stroke="#a89985" stroke-linecap="round" stroke-linejoin="round" stroke-width="4"/>
    <path id="Caminho_41" data-name="Caminho 41" d="M1100.254,23.174V17.595a10.449,10.449,0,0,0-10.449-10.449h0a10.449,10.449,0,0,0-10.45,10.449V72.653" transform="translate(-1.557)" fill="none" stroke="#a89985" stroke-linecap="round" stroke-linejoin="round" stroke-width="4"/>
    <line id="Linha_15" data-name="Linha 15" x2="53.234" transform="translate(1024.566 37.397)" fill="none" stroke="#a89985" stroke-linecap="round" stroke-linejoin="round" stroke-width="4"/>
    <line id="Linha_16" data-name="Linha 16" x2="53.234" transform="translate(1024.566 58.47)" fill="none" stroke="#a89985" stroke-linecap="round" stroke-linejoin="round" stroke-width="4"/>
    <g id="Grupo_20" data-name="Grupo 20" transform="translate(1001.546 87.835)">
      <path id="Caminho_42" data-name="Caminho 42" d="M1001.546,89.482c9.515,0,9.515,3.92,19.03,3.92s9.516-3.92,19.031-3.92,9.515,3.92,19.03,3.92,9.516-3.92,19.031-3.92,9.517,3.92,19.034,3.92,9.517-3.92,19.034-3.92" transform="translate(-1001.546 -89.482)" fill="none" stroke="#a89985" stroke-linecap="round" stroke-linejoin="round" stroke-width="4"/>
    </g>
    <g id="Grupo_21" data-name="Grupo 21" transform="translate(1001.546 104.976)">
      <path id="Caminho_43" data-name="Caminho 43" d="M1001.546,106.973c9.515,0,9.515,3.92,19.03,3.92s9.516-3.92,19.031-3.92,9.515,3.92,19.03,3.92,9.516-3.92,19.031-3.92,9.517,3.92,19.034,3.92,9.517-3.92,19.034-3.92" transform="translate(-1001.546 -106.973)" fill="none" stroke="#a89985" stroke-linecap="round" stroke-linejoin="round" stroke-width="4"/>
    </g>
  </g>
</svg>
