<svg xmlns="http://www.w3.org/2000/svg" width="121" height="121" viewBox="0 0 121 121">
  <g id="LiderançaIcon" transform="translate(2037 -1252)">
    <rect id="Retângulo_100" data-name="Retângulo 100" width="121" height="121" transform="translate(-2037 1252)" fill="none"/>
    <g id="LiderançaIconVector" transform="translate(-2571.692 198.932)">
      <circle id="Elipse_2" data-name="Elipse 2" cx="17.33" cy="17.33" r="17.33" transform="translate(577.066 1067.068)" fill="none" stroke="#008aa4" stroke-linecap="round" stroke-linejoin="round" stroke-width="4"/>
      <circle id="Elipse_3" data-name="Elipse 3" cx="11.359" cy="11.359" r="11.359" transform="translate(547.355 1087.615)" fill="none" stroke="#008aa4" stroke-linecap="round" stroke-linejoin="round" stroke-width="4"/>
      <path id="Retângulo_42" data-name="Retângulo 42" d="M17.2,0H30.71a17.2,17.2,0,0,1,17.2,17.2V49.53a0,0,0,0,1,0,0H0a0,0,0,0,1,0,0V17.2A17.2,17.2,0,0,1,17.2,0Z" transform="translate(571.17 1110.333)" fill="none" stroke="#008aa4" stroke-linecap="round" stroke-linejoin="round" stroke-width="4"/>
      <path id="Retângulo_43" data-name="Retângulo 43" d="M13.317,0H32.479a0,0,0,0,1,0,0V40.4a0,0,0,0,1,0,0H0a0,0,0,0,1,0,0V13.317A13.317,13.317,0,0,1,13.317,0Z" transform="translate(538.692 1119.468)" fill="none" stroke="#008aa4" stroke-linecap="round" stroke-linejoin="round" stroke-width="4"/>
      <circle id="Elipse_4" data-name="Elipse 4" cx="11.359" cy="11.359" r="11.359" transform="translate(620.173 1087.615)" fill="none" stroke="#008aa4" stroke-linecap="round" stroke-linejoin="round" stroke-width="4"/>
      <path id="Retângulo_44" data-name="Retângulo 44" d="M0,0H32.479a0,0,0,0,1,0,0V40.4a0,0,0,0,1,0,0H13.317A13.317,13.317,0,0,1,0,27.078V0A0,0,0,0,1,0,0Z" transform="translate(651.555 1159.863) rotate(180)" fill="none" stroke="#008aa4" stroke-linecap="round" stroke-linejoin="round" stroke-width="4"/>
    </g>
  </g>
</svg>
