<svg xmlns="http://www.w3.org/2000/svg" width="81" height="81" viewBox="0 0 81 81">
  <g id="LiderançaIconRed" transform="translate(2017 -1646)">
    <rect id="Retângulo_97" data-name="Retângulo 97" width="81" height="81" transform="translate(-2017 1646)" fill="none"/>
    <g id="Grupo_67" data-name="Grupo 67" transform="translate(-2552.692 588.932)">
      <circle id="Elipse_2" data-name="Elipse 2" cx="11.429" cy="11.429" r="11.429" transform="translate(563.999 1067.068)" fill="none" stroke="#e46457" stroke-linecap="round" stroke-linejoin="round" stroke-width="4"/>
      <circle id="Elipse_3" data-name="Elipse 3" cx="7.491" cy="7.491" r="7.491" transform="translate(544.405 1080.618)" fill="none" stroke="#e46457" stroke-linecap="round" stroke-linejoin="round" stroke-width="4"/>
      <path id="Retângulo_42" data-name="Retângulo 42" d="M15.8,0h0a15.8,15.8,0,0,1,15.8,15.8V32.664a0,0,0,0,1,0,0H0a0,0,0,0,1,0,0V15.8A15.8,15.8,0,0,1,15.8,0Z" transform="translate(560.111 1095.601)" fill="none" stroke="#e46457" stroke-linecap="round" stroke-linejoin="round" stroke-width="4"/>
      <path id="Retângulo_43" data-name="Retângulo 43" d="M13.317,0h8.1a0,0,0,0,1,0,0V26.64a0,0,0,0,1,0,0H0a0,0,0,0,1,0,0V13.317A13.317,13.317,0,0,1,13.317,0Z" transform="translate(538.692 1101.625)" fill="none" stroke="#e46457" stroke-linecap="round" stroke-linejoin="round" stroke-width="4"/>
      <circle id="Elipse_4" data-name="Elipse 4" cx="7.491" cy="7.491" r="7.491" transform="translate(592.427 1080.618)" fill="none" stroke="#e46457" stroke-linecap="round" stroke-linejoin="round" stroke-width="4"/>
      <path id="Retângulo_44" data-name="Retângulo 44" d="M0,0H21.419a0,0,0,0,1,0,0V26.64a0,0,0,0,1,0,0h-8.1A13.317,13.317,0,0,1,0,13.323V0A0,0,0,0,1,0,0Z" transform="translate(613.123 1128.265) rotate(180)" fill="none" stroke="#e46457" stroke-linecap="round" stroke-linejoin="round" stroke-width="4"/>
    </g>
  </g>
</svg>
