<svg xmlns="http://www.w3.org/2000/svg" xmlns:xlink="http://www.w3.org/1999/xlink" width="501.519" height="191.991" viewBox="0 0 501.519 191.991">
  <defs>
    <linearGradient id="linear-gradient" x1="1.48" y1="-0.745" x2="0.022" y2="0.982" gradientUnits="objectBoundingBox">
      <stop offset="0" stop-color="#62af31"/>
      <stop offset="0.147" stop-color="#68b12e"/>
      <stop offset="0.357" stop-color="#7bb726"/>
      <stop offset="0.604" stop-color="#9ac21a"/>
      <stop offset="0.878" stop-color="#c4d008"/>
      <stop offset="1" stop-color="#dad800"/>
    </linearGradient>
    <linearGradient id="linear-gradient-2" x1="0.574" y1="1.326" x2="0.4" y2="0.118" xlink:href="#linear-gradient"/>
    <radialGradient id="radial-gradient" cx="0.462" cy="0.631" r="0.896" gradientUnits="objectBoundingBox">
      <stop offset="0" stop-color="#62af31"/>
      <stop offset="0.188" stop-color="#7ab726"/>
      <stop offset="0.741" stop-color="#bfce0a"/>
      <stop offset="1" stop-color="#dad800"/>
    </radialGradient>
    <radialGradient id="radial-gradient-2" cx="0.144" cy="0.965" r="2.079" xlink:href="#radial-gradient"/>
  </defs>
  <g id="Grupo_794" data-name="Grupo 794" transform="translate(-109.519 -107.676)">
    <g id="Grupo_683" data-name="Grupo 683" transform="translate(109.519 210.342)">
      <path id="Caminho_202" data-name="Caminho 202" d="M941.205,522.6l8.259,25.424c1.463,4.429,2.822,9.727,4.083,13.972h.317c1.209-4.147,2.736-9.445,4.089-13.972l8.155-25.43h12.365l-19.437,50.131h-11.7L928.408,522.6Z" transform="translate(-686.963 -502.923)" fill="#fff"/>
      <path id="Caminho_203" data-name="Caminho 203" d="M409.917,588.73H398.122V520.817a73.634,73.634,0,0,1,19.852-3.213c15.873,0,23.308,8.7,23.308,25.605,0,17.191-8.046,27.477-21.033,27.477a21.135,21.135,0,0,1-10.332-2.839Zm5.886-61.854a25.656,25.656,0,0,0-5.886.7v31.094a16.437,16.437,0,0,0,8.454,2.442c8.426,0,11.023-9.215,11.023-17.024C429.395,532.647,424.92,526.876,415.8,526.876Z" transform="translate(-313.029 -499.405)" fill="#fff"/>
      <path id="Caminho_204" data-name="Caminho 204" d="M578.217,530.28V462.393h11.807v21.894a17.576,17.576,0,0,1,13.4-5.572c10.424,0,15.988,5.664,15.988,17.194V530.28H607.6V497.971c0-5.667-1.2-10.275-7.648-10.275a9.931,9.931,0,0,0-9.924,9.676V530.28Z" transform="translate(-440.024 -460.472)" fill="#fff"/>
      <path id="Caminho_205" data-name="Caminho 205" d="M1127.69,455.879a6.531,6.531,0,0,1,6.865,6.531c0,3.712-2.868,6.436-6.865,6.436-4.152,0-6.842-2.724-6.842-6.436A6.528,6.528,0,0,1,1127.69,455.879Zm-5.846,69.733V475.55h11.818v50.062Z" transform="translate(-822.663 -455.879)" fill="#fff"/>
      <path id="Caminho_206" data-name="Caminho 206" d="M153.232,556.261V521a57.836,57.836,0,0,0-17.917-3.438c-17.053,0-25.8,10.954-25.8,28.151,0,13.978,4.993,24.943,18.994,24.943,5.92,0,12.123-2.649,15.2-7.02h.351c2.033,5.817,9.267,8.748,15.746,5.518v-6.94C156.48,562.216,153.232,561.871,153.232,556.261Zm-11.795-3.041c0,4.215-3.726,9.013-9.877,9.013-8.351,0-10.205-9.238-10.205-17.341,0-10.557,3.041-18.977,12.469-18.977a21.337,21.337,0,0,1,7.613,1.267Z" transform="translate(-109.519 -499.377)" fill="#fff"/>
      <path id="Caminho_207" data-name="Caminho 207" d="M307.957,519.972c0,8.8,11.173,11.72,18.378,8.1v-6.94c-3.329,0-6.583-.345-6.583-5.955V459.307H307.957Z" transform="translate(-249.449 -458.296)" fill="#fff"/>
      <path id="Caminho_208" data-name="Caminho 208" d="M1213.514,519.972c0,8.8,11.173,11.72,18.383,8.1v-6.94c-3.341,0-6.577-.345-6.577-5.955V459.307h-11.806Z" transform="translate(-888.007 -458.296)" fill="#fff"/>
      <path id="Caminho_209" data-name="Caminho 209" d="M1302.878,519.972c0,8.8,11.167,11.72,18.378,8.1v-6.94c-3.329,0-6.571-.345-6.571-5.955V459.307h-11.807Z" transform="translate(-951.023 -458.296)" fill="#fff"/>
      <path id="Caminho_210" data-name="Caminho 210" d="M795.32,556.261V521a57.894,57.894,0,0,0-17.923-3.438c-17.053,0-25.784,10.954-25.784,28.151,0,13.978,4.976,24.943,18.983,24.943,5.932,0,12.135-2.649,15.2-7.02h.357c2.044,5.817,9.267,8.748,15.752,5.518v-6.94C798.563,562.216,795.32,561.871,795.32,556.261Zm-11.795-3.041c0,4.215-3.726,9.013-9.883,9.013-8.351,0-10.205-9.238-10.205-17.341,0-10.557,3.058-18.977,12.48-18.977a21.379,21.379,0,0,1,7.608,1.267Z" transform="translate(-562.295 -499.377)" fill="#fff"/>
      <path id="Caminho_211" data-name="Caminho 211" d="M1417.729,556.44a23.55,23.55,0,0,1-14.634,4.844c-8.242,0-11.542-4.233-11.783-10.6,9.1,1,29.729-.576,29.729-15.613,0-9.814-6.284-17.1-16.979-17.482-15.8-.553-24.672,12.074-24.672,26.432,0,14.651,6.156,26.6,23.877,26.6a26.36,26.36,0,0,0,16.16-5.736ZM1402.185,526c5.2,0,8.046,3.8,7.314,9.485-.852,6.646-12.278,7.642-18.187,7.222C1391.416,534.446,1394.359,526,1402.185,526Z" transform="translate(-1004.976 -499.383)" fill="#fff"/>
    </g>
    <g id="Grupo_684" data-name="Grupo 684" transform="translate(485.199 107.676)">
      <path id="Caminho_212" data-name="Caminho 212" d="M1516.986,134.346c1.6-11.115.363-20.8-8.3-24.494a1.448,1.448,0,0,0-.144-.066,22.127,22.127,0,0,0-4.452-1.008c.046.006.1.017.156.023-14.651-1.739-29.982,6.2-42.094,19.008-8.685,9.2-15.492,22.009-15.994,34.763-.6,15.654,9.912,24.459,29.873,23.281-17.421-.395-24.528-21.228-16.586-39.37C1473.809,113.7,1518.628,105.783,1516.986,134.346Z" transform="translate(-1427.717 -108.301)" fill="url(#linear-gradient)"/>
      <path id="Caminho_213" data-name="Caminho 213" d="M1701.333,207.216c-25.064-19.026-14.715-50.3-23.717-72.676-4.486-11.118-12.077-19.6-20-21.908l.2.089c11.922,5.085,9.785,21.528,5.535,37.429-8.749,32.77-6.819,48.743,2.851,58.2C1681.365,223.192,1709.142,213.131,1701.333,207.216Z" transform="translate(-1576.851 -111.171)" fill="url(#linear-gradient-2)"/>
      <path id="Caminho_214" data-name="Caminho 214" d="M1506.638,112.268c-.063-.245-.334-.279-.478,0-14.075,42.535-41.444,67.326-64.135,71.674-26.435,5.048-40.608-3.9-39.906-21.994.5-12.754,7.308-25.565,15.994-34.763,12.112-12.808,27.443-20.748,42.094-19.008-35.31-6.283-91.549,48.1-72.792,85.931,10.143,20.477,46.235,22.26,71.634,8.489C1504.42,178.021,1509.506,123.262,1506.638,112.268Z" transform="translate(-1383.682 -107.676)" fill="url(#radial-gradient)"/>
      <path id="Caminho_215" data-name="Caminho 215" d="M1684.385,270.925c-1.336-7.962-1.642-16.2-2.511-24.071a101.169,101.169,0,0,1-23.4,24.644c-1.008,10.4-.018,18.058,2.678,23.9A87.3,87.3,0,0,0,1684.385,270.925Z" transform="translate(-1577.181 -205.818)" fill="url(#radial-gradient-2)"/>
    </g>
  </g>
</svg>
