<svg xmlns="http://www.w3.org/2000/svg" width="81" height="81" viewBox="0 0 81 81">
  <g id="NaturezaIconRed" transform="translate(2554 -1646)">
    <rect id="Retângulo_96" data-name="Retângulo 96" width="81" height="81" transform="translate(-2554 1646)" fill="none"/>
    <g id="Grupo_66" data-name="Grupo 66" transform="translate(-2702.276 580.766)">
      <line id="Linha_10" data-name="Linha 10" x2="38.726" transform="translate(169.46 1143.735)" fill="none" stroke="#e46457" stroke-linecap="round" stroke-linejoin="round" stroke-width="4"/>
      <line id="Linha_11" data-name="Linha 11" y1="56.069" transform="translate(188.823 1087.666)" fill="none" stroke="#e46457" stroke-linecap="round" stroke-linejoin="round" stroke-width="4"/>
      <line id="Linha_12" data-name="Linha 12" x2="8.044" y2="8.286" transform="translate(180.78 1106.378)" fill="none" stroke="#e46457" stroke-linecap="round" stroke-linejoin="round" stroke-width="4"/>
      <line id="Linha_13" data-name="Linha 13" x2="8.044" y2="8.286" transform="translate(180.78 1090.371)" fill="none" stroke="#e46457" stroke-linecap="round" stroke-linejoin="round" stroke-width="4"/>
      <line id="Linha_14" data-name="Linha 14" x1="8.044" y2="8.286" transform="translate(188.823 1098.092)" fill="none" stroke="#e46457" stroke-linecap="round" stroke-linejoin="round" stroke-width="4"/>
      <path id="Caminho_39" data-name="Caminho 39" d="M209.523,1102.235h-6.486a9.417,9.417,0,0,0,9.355-10.485,9.574,9.574,0,0,0-9.6-8.344h-5.2a5.88,5.88,0,0,0,5.88-5.88h0a9.291,9.291,0,0,0-9.292-9.291h-10.9a9.291,9.291,0,0,0-9.291,9.291h0a5.88,5.88,0,0,0,5.88,5.88h-5.2a9.575,9.575,0,0,0-9.6,8.344,9.417,9.417,0,0,0,9.355,10.485h-6.485a9.575,9.575,0,0,0-9.6,8.344,9.417,9.417,0,0,0,9.355,10.485H209.77a9.417,9.417,0,0,0,9.355-10.485A9.575,9.575,0,0,0,209.523,1102.235Z" fill="none" stroke="#e46457" stroke-linecap="round" stroke-linejoin="round" stroke-width="4"/>
    </g>
  </g>
</svg>
