<svg xmlns="http://www.w3.org/2000/svg" width="121" height="121" viewBox="0 0 121 121">
  <g id="Grupo_817" data-name="Grupo 817" transform="translate(1069 -14376.496)">
    <g id="Grupo_814" data-name="Grupo 814" transform="translate(4014 8622.496)">
      <rect id="Retângulo_99" data-name="Retângulo 99" width="121" height="121" transform="translate(-5083 5754)" fill="#fff"/>
      <g id="Grupo_63" data-name="Grupo 63" transform="translate(-5227.276 4687.766)">
        <line id="Linha_10" data-name="Linha 10" x2="59.511" transform="translate(175.463 1184.259)" fill="none" stroke="#a89985" stroke-linecap="round" stroke-linejoin="round" stroke-width="4"/>
        <line id="Linha_11" data-name="Linha 11" y1="86.163" transform="translate(205.219 1098.096)" fill="none" stroke="#a89985" stroke-linecap="round" stroke-linejoin="round" stroke-width="4"/>
        <line id="Linha_12" data-name="Linha 12" x2="12.361" y2="12.733" transform="translate(192.858 1126.85)" fill="none" stroke="#a89985" stroke-linecap="round" stroke-linejoin="round" stroke-width="4"/>
        <line id="Linha_13" data-name="Linha 13" x2="12.361" y2="12.733" transform="translate(192.858 1102.252)" fill="none" stroke="#a89985" stroke-linecap="round" stroke-linejoin="round" stroke-width="4"/>
        <line id="Linha_14" data-name="Linha 14" x1="12.361" y2="12.733" transform="translate(205.219 1114.117)" fill="none" stroke="#a89985" stroke-linecap="round" stroke-linejoin="round" stroke-width="4"/>
        <path id="Caminho_39" data-name="Caminho 39" d="M237.029,1120.484h-9.967a14.472,14.472,0,0,0,14.377-16.113,14.713,14.713,0,0,0-14.756-12.823H218.7a9.036,9.036,0,0,0,9.036-9.036h0a14.279,14.279,0,0,0-14.279-14.278H196.7a14.278,14.278,0,0,0-14.278,14.278h0a9.036,9.036,0,0,0,9.036,9.036H183.47a14.714,14.714,0,0,0-14.756,12.823,14.472,14.472,0,0,0,14.377,16.113h-9.966a14.715,14.715,0,0,0-14.757,12.823,14.471,14.471,0,0,0,14.377,16.112h64.664a14.471,14.471,0,0,0,14.377-16.112A14.714,14.714,0,0,0,237.029,1120.484Z" fill="#fff" stroke="#a89985" stroke-linecap="round" stroke-linejoin="round" stroke-width="4"/>
      </g>
    </g>
  </g>
</svg>
