<svg xmlns="http://www.w3.org/2000/svg" width="97.625" height="120.025" viewBox="0 0 97.625 120.025">
  <g id="Grupo_713" data-name="Grupo 713" transform="translate(-156.264 -1066.234)">
    <line id="Linha_10" data-name="Linha 10" x2="59.511" transform="translate(175.463 1184.259)" fill="none" stroke="#f26522" stroke-linecap="round" stroke-linejoin="round" stroke-width="4"/>
    <line id="Linha_11" data-name="Linha 11" y1="86.163" transform="translate(205.219 1098.096)" fill="none" stroke="#f26522" stroke-linecap="round" stroke-linejoin="round" stroke-width="4"/>
    <line id="Linha_12" data-name="Linha 12" x2="12.361" y2="12.733" transform="translate(192.858 1126.85)" fill="none" stroke="#f26522" stroke-linecap="round" stroke-linejoin="round" stroke-width="4"/>
    <line id="Linha_13" data-name="Linha 13" x2="12.361" y2="12.733" transform="translate(192.858 1102.252)" fill="none" stroke="#f26522" stroke-linecap="round" stroke-linejoin="round" stroke-width="4"/>
    <line id="Linha_14" data-name="Linha 14" x1="12.361" y2="12.733" transform="translate(205.219 1114.117)" fill="none" stroke="#f26522" stroke-linecap="round" stroke-linejoin="round" stroke-width="4"/>
    <path id="Caminho_39" data-name="Caminho 39" d="M237.029,1120.484h-9.967a14.472,14.472,0,0,0,14.377-16.113,14.713,14.713,0,0,0-14.756-12.823H218.7a9.036,9.036,0,0,0,9.036-9.036h0a14.279,14.279,0,0,0-14.279-14.278H196.7a14.278,14.278,0,0,0-14.278,14.278h0a9.036,9.036,0,0,0,9.036,9.036H183.47a14.714,14.714,0,0,0-14.756,12.823,14.472,14.472,0,0,0,14.377,16.113h-9.966a14.715,14.715,0,0,0-14.757,12.823,14.471,14.471,0,0,0,14.377,16.112h64.664a14.471,14.471,0,0,0,14.377-16.112A14.714,14.714,0,0,0,237.029,1120.484Z" fill="none" stroke="#f26522" stroke-linecap="round" stroke-linejoin="round" stroke-width="4"/>
  </g>
</svg>
