<svg id="Grupo_815" data-name="Grupo 815" xmlns="http://www.w3.org/2000/svg" width="89.759" height="120.999" viewBox="0 0 89.759 120.999">
  <path id="Caminho_216" data-name="Caminho 216" d="M2085.55,756.8c-.385,2.322-.659,4.669-1.175,6.962a43.623,43.623,0,0,1-12.683,22.352,1.39,1.39,0,0,0-.3,2.056c4.387,7.643,8.719,15.318,13.067,22.983.155.274.3.553.461.824a2.274,2.274,0,0,1-.127,2.755,2.374,2.374,0,0,1-2.54.833c-4.925-1.03-9.86-2.019-14.773-3.1-.95-.209-1.278.005-1.586.9-1.636,4.759-3.361,9.487-5.022,14.238-.4,1.157-.963,2.1-2.3,2.207-1.287.1-1.971-.724-2.551-1.747q-7.274-12.836-14.58-25.653c-.213-.375-.434-.745-.757-1.3-.278.452-.5.79-.7,1.14q-7.148,12.568-14.292,25.139c-.194.342-.4.68-.587,1.023a2.363,2.363,0,0,1-2.4,1.392,2.414,2.414,0,0,1-2.1-1.811q-2.492-7.063-5-14.121c-.181-.511-.385-1.014-.613-1.61-2.55.521-5.047,1.03-7.542,1.543-2.656.547-5.32,1.063-7.964,1.665a2.606,2.606,0,0,1-2.979-.784c-.828-1.084-.451-2.111.155-3.174,4.441-7.793,8.842-15.61,13.3-23.392a1.319,1.319,0,0,0-.28-1.965,44.884,44.884,0,0,1,14.291-74.113c1.635-.661,3.338-1.164,5.031-1.671,1.674-.5,2.979.1,3.358,1.455.4,1.435-.383,2.6-2.121,3.1-12.023,3.41-20.808,10.734-26.071,22.055-10.525,22.641,2.424,49.688,26.556,55.691a40.189,40.189,0,0,0,20.594-77.69c-1.17-.315-2.189-.74-2.4-2.088a2.318,2.318,0,0,1,3.165-2.579,50.047,50.047,0,0,1,7.31,2.627q22.968,11.226,25.952,36.691c.04.344.135.681.205,1.021ZM2036.7,798.467a45.632,45.632,0,0,1-22.431-8.406l-11.212,19.777c.59-.085.938-.118,1.279-.188q5.6-1.156,11.2-2.321c1.916-.4,2.771.077,3.428,1.914q2,5.607,3.991,11.218c.132.371.291.733.515,1.291Zm30.558-8.061c-3.675,1.822-7.142,3.89-10.86,5.286s-7.667,2.112-11.561,3.138l13.042,22.934c.24-.626.386-.982.514-1.344,1.342-3.777,2.673-7.557,4.026-11.33a2.424,2.424,0,0,1,3.192-1.809q5.194,1.076,10.388,2.155c.691.142,1.391.242,2.279.395Z" transform="translate(-1995.79 -708.824)" fill="#39bb9c"/>
  <path id="Caminho_217" data-name="Caminho 217" d="M2178.4,704.455c.187.131.377.259.562.394a2.234,2.234,0,0,1,.961,2.656,2.334,2.334,0,0,1-4.466,0,2.24,2.24,0,0,1,.963-2.656c.185-.135.375-.262.563-.393Z" transform="translate(-2132.818 -704.455)" fill="#39bb9c"/>
  <path id="Caminho_218" data-name="Caminho 218" d="M2071.084,815.29a35.451,35.451,0,1,1,35.438-35.479A35.507,35.507,0,0,1,2071.084,815.29Zm.1-66.176a30.725,30.725,0,1,0,30.616,30.849A30.768,30.768,0,0,0,2071.183,749.114Z" transform="translate(-2026.214 -734.933)" fill="#39bb9c"/>
  <path id="Caminho_219" data-name="Caminho 219" d="M2097.7,837.841c.656-3.958,1.289-7.92,1.988-11.87a1.625,1.625,0,0,0-.521-1.655c-2.712-2.633-5.378-5.312-8.084-7.95a2.462,2.462,0,0,1,1.491-4.506c3.66-.511,7.308-1.108,10.968-1.627a1.944,1.944,0,0,0,1.678-1.2c1.623-3.364,3.329-6.688,4.98-10.039a2.457,2.457,0,0,1,4.706-.008c1.655,3.349,3.357,6.675,4.982,10.038a1.941,1.941,0,0,0,1.672,1.209c3.738.523,7.467,1.109,11.2,1.651a2.418,2.418,0,0,1,1.436,4.314c-2.755,2.7-5.483,5.43-8.25,8.118a1.624,1.624,0,0,0-.53,1.653c.683,3.833,1.3,7.679,1.943,11.519a2.4,2.4,0,0,1-3.634,2.552c-3.379-1.766-6.779-3.495-10.141-5.294a1.918,1.918,0,0,0-2.058.01q-5.045,2.694-10.151,5.273C2099.476,840.992,2097.579,839.837,2097.7,837.841Zm24.229-4.079c-.432-2.629-.694-5.06-1.259-7.418a4.629,4.629,0,0,1,1.618-5.108c1.854-1.613,3.466-3.5,5.229-5.322-.436-.079-.856-.165-1.279-.23-2.488-.383-4.974-.781-7.466-1.131a2.683,2.683,0,0,1-2.177-1.592c-.519-1.06-1.055-2.111-1.583-3.166-.783-1.565-1.565-3.13-2.457-4.914-1.257,2.506-2.511,4.728-3.5,7.064a4.316,4.316,0,0,1-4.032,2.842c-2.489.234-4.952.726-7.43,1.107,1.757,1.818,3.342,3.686,5.166,5.279a4.705,4.705,0,0,1,1.668,5.205c-.577,2.347-.823,4.776-1.25,7.4,2.546-1.316,4.926-2.435,7.188-3.756a3.933,3.933,0,0,1,4.4,0C2117.029,831.331,2119.4,832.454,2121.93,833.762Z" transform="translate(-2067.681 -775.27)" fill="#39bb9c"/>
</svg>
