<svg xmlns="http://www.w3.org/2000/svg" width="121" height="121" viewBox="0 0 121 121">
  <g id="Grupo_823" data-name="Grupo 823" transform="translate(1069 -14064.496)">
    <rect id="Ret창ngulo_98" data-name="Ret창ngulo 98" width="121" height="121" transform="translate(-1069 14064.496)" fill="none"/>
    <g id="Grupo_61" data-name="Grupo 61" transform="translate(-1766.007 14066.496)">
      <g id="Grupo_23" data-name="Grupo 23">
        <path id="Caminho_44" data-name="Caminho 44" d="M813.127,58.06c0,4.84-4.569,9.015-5.762,13.479-1.234,4.619.6,10.512-1.742,14.556-2.373,4.1-8.415,5.448-11.745,8.777s-4.674,9.371-8.776,11.744c-4.044,2.34-9.937.508-14.556,1.742-4.464,1.193-8.639,5.762-13.479,5.762s-9.016-4.569-13.48-5.762c-4.619-1.235-10.512.6-14.556-1.742-4.1-2.373-5.447-8.416-8.776-11.745S710.883,90.2,708.51,86.1c-2.339-4.044-.507-9.937-1.741-14.556-1.194-4.464-5.762-8.639-5.762-13.479s4.568-9.016,5.762-13.48c1.234-4.619-.6-10.512,1.741-14.556,2.374-4.1,8.416-5.447,11.745-8.776s4.675-9.372,8.777-11.745c4.044-2.34,9.937-.507,14.555-1.742C748.051,6.568,752.227,2,757.067,2s9.015,4.568,13.479,5.761C775.165,9,781.058,7.164,785.1,9.5c4.1,2.374,5.448,8.416,8.777,11.745s9.371,4.675,11.745,8.777c2.339,4.044.507,9.937,1.741,14.555C808.558,49.044,813.127,53.22,813.127,58.06Z" fill="none" stroke="#39bb9c" stroke-linecap="round" stroke-linejoin="round" stroke-width="4"/>
      </g>
      <g id="Grupo_24" data-name="Grupo 24">
        <path id="Ret창ngulo_45" data-name="Ret창ngulo 45" d="M0,0H12.888a6.3,6.3,0,0,1,6.3,6.3V35.693a6.3,6.3,0,0,1-6.3,6.3H0a0,0,0,0,1,0,0V0A0,0,0,0,1,0,0Z" transform="translate(724.439 41.27)" fill="none" stroke="#39bb9c" stroke-linecap="round" stroke-linejoin="round" stroke-width="4"/>
        <path id="Caminho_45" data-name="Caminho 45" d="M743.624,76.962l13.443,5.393h25.38a4.073,4.073,0,0,0,4.073-4.072h0a4.074,4.074,0,0,0-4.073-4.073h6.516a4.072,4.072,0,0,0,4.072-4.072h0A4.434,4.434,0,0,0,788.6,65.7h-.889a5.323,5.323,0,0,0,5.323-5.323h0a5.323,5.323,0,0,0-5.323-5.323h.692a4.631,4.631,0,0,0,4.631-4.632h0a4.631,4.631,0,0,0-4.631-4.631H761.362" fill="none" stroke="#39bb9c" stroke-linecap="round" stroke-linejoin="round" stroke-width="4"/>
        <path id="Caminho_46" data-name="Caminho 46" d="M743.624,47.567l5.964-4.293a24.563,24.563,0,0,0,8.456-10.812l2.745-6.864a3.64,3.64,0,0,1,5.026-1.894h0a12.622,12.622,0,0,1,6.655,13.779l-1.7,8.312" fill="none" stroke="#39bb9c" stroke-linecap="round" stroke-linejoin="round" stroke-width="4"/>
      </g>
    </g>
  </g>
</svg>
