<svg xmlns="http://www.w3.org/2000/svg" width="20" height="21" viewBox="0 0 20 21"><path fill="#FFF" d="M10 0C7.286 0 6.945.012 5.879.06 4.813.11 4.086.28 3.45.528a4.896 4.896 0 0 0-1.771 1.157A4.928 4.928 0 0 0 .525 3.462C.277 4.1.108 4.829.06 5.897.013 6.967 0 7.31 0 10.035c0 2.726.012 3.067.06 4.137.05 1.068.218 1.798.465 2.436a4.92 4.92 0 0 0 1.153 1.777 4.895 4.895 0 0 0 1.771 1.159c.636.248 1.363.417 2.428.466 1.066.048 1.407.06 4.123.06s3.056-.012 4.122-.06c1.065-.05 1.792-.218 2.429-.466a4.891 4.891 0 0 0 1.77-1.159 4.928 4.928 0 0 0 1.154-1.777c.246-.638.415-1.368.465-2.436.047-1.07.06-1.411.06-4.137 0-2.725-.013-3.067-.06-4.138-.05-1.068-.22-1.797-.465-2.435a4.927 4.927 0 0 0-1.154-1.778A4.886 4.886 0 0 0 16.55.527C15.912.279 15.185.11 14.12.06 13.055.01 12.716 0 9.999 0H10zm-.896 1.808H10c2.67 0 2.986.01 4.04.058.976.045 1.505.208 1.857.346.467.182.8.399 1.15.75.35.351.566.686.748 1.154.137.354.3.885.344 1.863.048 1.058.059 1.376.059 4.054 0 2.678-.01 2.996-.059 4.054-.044.978-.207 1.51-.344 1.862a3.104 3.104 0 0 1-.748 1.153c-.35.351-.683.569-1.15.75-.352.139-.881.302-1.856.347-1.054.048-1.371.058-4.041.058-2.67 0-2.987-.01-4.04-.058-.976-.046-1.505-.209-1.858-.346-.467-.182-.8-.4-1.15-.75a3.111 3.111 0 0 1-.748-1.154c-.137-.354-.3-.885-.345-1.863-.047-1.058-.057-1.376-.057-4.056s.01-2.996.057-4.053c.045-.979.208-1.51.345-1.864a3.11 3.11 0 0 1 .748-1.154c.35-.35.683-.568 1.15-.75.353-.139.882-.302 1.857-.347.923-.041 1.28-.054 3.144-.056v.002zm6.235 1.667c-.663 0-1.2.538-1.2 1.203s.537 1.205 1.2 1.205c.662 0 1.2-.54 1.2-1.205 0-.664-.538-1.204-1.2-1.204zM10 4.882c-2.836 0-5.136 2.307-5.136 5.153 0 2.846 2.3 5.153 5.136 5.153 2.836 0 5.135-2.307 5.135-5.153 0-2.846-2.3-5.153-5.135-5.153zm0 1.808a3.34 3.34 0 0 1 3.333 3.345A3.34 3.34 0 0 1 10 13.38a3.34 3.34 0 0 1-3.333-3.345A3.34 3.34 0 0 1 10 6.69z"/></svg>