<svg xmlns="http://www.w3.org/2000/svg" width="44" height="44" viewBox="0 0 44 44"><path fill="#494850" d="M22.004 0l-9.216 9.279V5.11H5.65v11.357L.53 21.623a1.827 1.827 0 0 0 1.29 3.112h1.787v18.671H10.8V32.061a2.73 2.73 0 0 1 2.727-2.726H15.7c1.036 0 1.969.582 2.434 1.518l.073.145-.106.124a4.152 4.152 0 0 0-1.012 2.71c0 1.129.449 2.187 1.263 2.979l.074.072v.56l-.1.073a3.431 3.431 0 0 0-1.416 2.79v3.099h1.473v-3.1a2 2 0 0 1 1.115-1.791c.2-.102.416-.169.636-.197l.063-.007c.06-.007.126-.01.192-.01h1.721c.066 0 .132.003.194.01l.11.017a2.01 2.01 0 0 1 1.702 1.978v3.1h1.473v-3.1a3.47 3.47 0 0 0-1.611-2.924l-.276-.178.25-.213a4.157 4.157 0 0 0 1.458-3.157c0-1.45-.779-2.818-2.032-3.568l-.119-.072v-1.379c0-1.844 1.5-3.344 3.344-3.344h2.566a3.35 3.35 0 0 1 3.35 3.344v14.592h7.424V24.734h1.539c.738 0 1.4-.438 1.69-1.116a1.807 1.807 0 0 0-.368-1.988L22.004 0zM7.122 6.584h4.194v4.178l-4.194 4.223V6.584zm7.49 21.051a3.59 3.59 0 0 1-3.586-3.585 3.59 3.59 0 0 1 3.586-3.585 3.59 3.59 0 0 1 3.586 3.585 3.59 3.59 0 0 1-3.586 3.585zm9.324 6.198a2.69 2.69 0 0 1-2.687 2.687 2.69 2.69 0 0 1-2.687-2.687 2.69 2.69 0 0 1 2.687-2.687 2.69 2.69 0 0 1 2.687 2.687zm3.95-10.534a4.366 4.366 0 0 1-4.362-4.36 4.366 4.366 0 0 1 4.362-4.362 4.366 4.366 0 0 1 4.361 4.361 4.366 4.366 0 0 1-4.361 4.361zm13.928-.258a.349.349 0 0 1-.334.22h-3.01v18.975h-4.48V28.815a4.8 4.8 0 0 0-3.03-4.47l-.451-.18.414-.255a5.8 5.8 0 0 0 2.799-4.972 5.841 5.841 0 0 0-5.835-5.834 5.841 5.841 0 0 0-5.835 5.834 5.8 5.8 0 0 0 2.799 4.972l.414.254-.45.182a4.799 4.799 0 0 0-3.029 4.469v.89l-.315-.022a3.97 3.97 0 0 0-1.863.33l-.196.084-.11-.183a4.215 4.215 0 0 0-1.524-1.496l-.314-.18.283-.224a5.033 5.033 0 0 0 1.925-3.963c0-2.79-2.27-5.059-5.059-5.059a5.064 5.064 0 0 0-5.059 5.059c0 1.549.703 2.994 1.926 3.963l.283.224-.314.18a4.214 4.214 0 0 0-2.121 3.644v10.174h-4.25V23.26H1.825a.34.34 0 0 1-.324-.218.341.341 0 0 1 .074-.383L21.987 2.108 41.74 22.65c.15.154.102.324.074.39z" opacity=".8"/></svg>