<svg xmlns="http://www.w3.org/2000/svg" width="30" height="50" viewBox="0 0 30 50"><path fill="#FFF" fill-rule="evenodd" d="M26.862 0H3.138A3.14 3.14 0 0 0 0 3.143v43.714A3.14 3.14 0 0 0 3.138 50h23.724A3.14 3.14 0 0 0 30 46.857V3.143A3.14 3.14 0 0 0 26.862 0zm1.883 46.864a1.884 1.884 0 0 1-1.883 1.885H3.138a1.884 1.884 0 0 1-1.883-1.885v-7.6h27.49v7.6zm0-8.85H1.255V3.143c0-1.042.843-1.886 1.883-1.886h23.724c1.04 0 1.883.844 1.883 1.886v34.871zM18.377 4.538a.628.628 0 0 1-.628.629h-5.492a.628.628 0 0 1 0-1.258h5.492c.347 0 .628.282.628.629zM15 46.82c1.48 0 2.68-1.202 2.68-2.684 0-1.482-1.2-2.684-2.68-2.684a2.682 2.682 0 0 0-2.68 2.684c0 1.482 1.2 2.684 2.68 2.684zm0-4.111a1.426 1.426 0 1 1-.002 2.851A1.426 1.426 0 0 1 15 42.71z"/></svg>