<svg width="80" height="80" viewBox="0 0 80 80" xmlns="http://www.w3.org/2000/svg"><title>Group 4</title><g fill="none" fill-rule="evenodd"><circle fill="#3F3E45" opacity=".6" cx="40" cy="40" r="40"/><path d="M48.771 41.105c-.53-.425-1.258-.575-2.16-.455-.096-1.253-.535-2.484-2.201-2.647-.778-.077-1.335.073-1.69.226-.453-1.398-1.44-1.745-2.306-1.745a6.46 6.46 0 0 0-1.58.179V30.63c0-1.984-.952-3.076-2.678-3.076s-2.677 1.092-2.677 3.076v10.886a7.516 7.516 0 0 0-.775-.04c-.985.015-2.211.514-2.458 2.802-.009.065-.21 1.629-.243 3.7-.045 2.844.479 5.213 1.514 6.85 1.87 2.96 4.382 4.034 4.66 4.146.212.101 1.754.794 4.422.794 2.822 0 4.692-.987 4.904-1.103.36-.175 4.497-2.34 4.497-9.491 0-2.338-.04-3.38-.159-5.328-.083-1.351-.422-2.223-1.07-2.74zm-3.698 16.663l-.037.019c-.017.01-1.757.985-4.437.985-2.564 0-3.991-.695-4.004-.7l-.044-.02c-.024-.01-2.447-.98-4.204-3.76-.918-1.452-1.4-3.689-1.36-6.298.033-2.01.234-3.57.237-3.596.182-1.69.893-1.915 1.493-1.924.242-.004.529.016.762.043v5.638h.985V30.63c0-1.843.905-2.08 1.692-2.08.788 0 1.692.237 1.692 2.08v11.313h.985v-4.246c.286-.093.811-.216 1.58-.216.431 0 1.575 0 1.575 2.623v3.868h.985v-3.868c0-.317-.018-.601-.048-.867.116-.074.576-.323 1.39-.242.825.08 1.336.501 1.336 2.343v4.065h.985v-3.75c.686-.11 1.188-.036 1.524.233.406.325.634.987.697 2.02.118 1.925.158 2.956.158 5.267 0 6.644-3.783 8.52-3.942 8.595zm2.708-34.023l-.751.76.936.946h-3.133v-3.17l.936.947.75-.76-2.217-2.244-2.218 2.244.751.76.936-.947v3.17h-3.133l.936-.946-.75-.76-2.218 2.243 2.217 2.244.751-.76-.936-.947h3.133v3.172l-.936-.948-.75.76 2.217 2.244 2.217-2.244-.75-.76-.936.947v-3.17h3.133l-.936.946.751.76 2.217-2.244z" fill-rule="nonzero" fill="#FFF"/></g></svg>