<svg xmlns="http://www.w3.org/2000/svg" width="58" height="60" viewBox="0 0 58 60"><path fill="#FFF" d="M15.474.755a1.038 1.038 0 0 0-1.017 1.043v9.383h-1.033c-.57 0-1.032.467-1.032 1.043v1.042H1.032c-.57 0-1.032.467-1.032 1.043v18.766a1.042 1.042 0 0 0 1.02 1.043h10.34a.92.92 0 0 0 .105 0 1.04 1.04 0 0 0 .928-1.042V26.82a1.042 1.042 0 0 0 1.02 1.043h1.045v29.192H9.294c-1.397-.02-1.397 2.105 0 2.085h22.718c1.397.02 1.397-2.105 0-2.085H26.85V27.863h1.137a1.04 1.04 0 0 0 .928-1.043v-1.043h20.653v8.341h-1.033c-.57 0-1.032.467-1.032 1.043v3.128H46.47c-.57 0-1.032.466-1.033 1.042v4.17a1.042 1.042 0 0 0 .815 1.019c.068.016.137.026.206.028h8.273a.92.92 0 0 0 .105 0 1.04 1.04 0 0 0 .928-1.042v-4.17l-.016.02a1.038 1.038 0 0 0-1.017-1.067h-1.032V35.16l-.016.02a1.038 1.038 0 0 0-1.017-1.063h-1.033v-8.34h5.164c.92 0 1.38-1.123.73-1.78L47.199 13.572a1.028 1.028 0 0 0-.73-.306H28.914v-1.042l-.016.02a1.038 1.038 0 0 0-1.017-1.063h-1.637L16.22 1.061c-.198-.2-.467-.31-.746-.306zm1.048 3.56l6.801 6.866h-6.8V4.315zm-2.065 8.951H26.85v12.511H14.457v-12.51zM3.893 15.352h8.499v7.16l-8.5-7.16zm12.63 0v2.085h8.26v-2.085h-8.26zm14.154 0h13.602l-6.801 6.866-6.801-6.866zm15.945.586l7.68 7.754h-15.36l7.68-7.754zm-44.557.582l8.508 7.164H2.065V16.52zm26.85 0l7.103 7.172h-7.104V16.52zm-26.85 9.25h8.261v2.084h-8.26V25.77zm14.457 2.084h6.499l-6.499 6.566v-6.566zm8.262 1.17v7.171h-7.1l7.1-7.172zm-22.719.916h8.261v2.085h-8.26V29.94zm47.502 6.255h2.065v2.085h-2.065v-2.085zM17.406 38.28h7.378v7.453l-7.378-7.453zm-.884 2.065l6.22 6.284h-6.22v-6.284zm30.98.029h6.196v2.085h-6.196v-2.085zm-30.98 8.34h6.761l-6.76 6.826v-6.826zm8.262 1.434v6.907h-6.842l6.842-6.907z"/></svg>