<svg xmlns="http://www.w3.org/2000/svg" width="33" height="40" viewBox="0 0 33 40"><path fill="none" stroke="#f26522" stroke-linecap="round" stroke-linejoin="round" d="M17.967 28.647a11.5 11.5 0 0 0 2.587.297c3.138 0 6.146-1.278 8.363-3.551a12.264 12.264 0 0 0 3.458-8.56c0-3.21-1.243-6.288-3.458-8.559C26.7 6 23.692 4.722 20.554 4.722h-.25C18.48 2.105 15.525.5 12.322.5c-5.425 0-9.763 4.449-9.763 10 0 1.251.226 2.476.656 3.617C1.47 15.946.5 18.395.5 21.056c0 5.55 4.338 10 9.762 10a9.33 9.33 0 0 0 2.588-.36V39.5h5.117V28.647z"/></svg>