<svg xmlns="http://www.w3.org/2000/svg" width="43" height="39" viewBox="0 0 43 39"><path fill="none" stroke="#494850" stroke-linecap="round" stroke-linejoin="round" d="M.79 31.108l-.29.134v7.284l.71-.327c6.641-3.06 9.585-4.076 13.23-4.076 1.765 0 3.214.501 6.501 2.015.674.31.973.447 1.35.614 2.295 1.015 3.917 1.493 5.57 1.493 1.971 0 3.513-.531 6.936-2.107 3.295-1.516 4.74-2.015 6.504-2.015h.5v-7.182h-.5c-1.963 0-3.49.528-6.922 2.106-3.287 1.513-4.745 2.016-6.518 2.016-1.48 0-2.988-.445-5.166-1.409-.37-.163-.667-.298-1.335-.606-3.424-1.578-4.956-2.107-6.92-2.107-3.843 0-6.871 1.045-13.65 4.167zm22.033-19.667l9.319-6.675.399-.286-.279-.405L29.945.716l-.289-.419-.414.296-11.526 8.244a2.563 2.563 0 0 0-1.096 2.117c0 .595.212 1.182.574 1.632l1.76 2.146-9.48 6.779-2.227 1.593 2.647-.703c1.6-.425 3.094-.643 4.546-.643 1.765 0 3.214.501 6.501 2.015 3.424 1.577 4.957 2.107 6.92 2.107 1.509 0 3.047-.413 4.972-1.236l.613-.261-.423-.516-10.2-12.426zM33.24 8.393c-2.505 0-4.53 2.072-4.53 4.622s2.025 4.622 4.53 4.622c2.504 0 4.53-2.072 4.53-4.622s-2.026-4.622-4.53-4.622z"/></svg>