<svg xmlns="http://www.w3.org/2000/svg" width="61" height="60" viewBox="0 0 61 60"><g fill="#FFF"><path d="M51 5H14a1 1 0 0 0-1 1v5h-3a1 1 0 0 0-.8.4l-6 8a1 1 0 0 0 .019 1.225l5.154 6.442L.39 33.208l.01.013A.98.98 0 0 0 0 34v25a1 1 0 0 0 1 1h38c.124 0 .247-.028.363-.073.044-.017.08-.046.121-.069.052-.029.109-.05.156-.089l12-10c.228-.191.36-.472.36-.769V24.949c5.046-.503 9-4.773 9-9.949 0-5.514-4.486-10-10-10zm-1 38.168c-2.314.781-3.962 4.251-3.996 8.694l-2.471 2.059A5.01 5.01 0 0 0 40 51.101V34.468l2-1.667v5.37c0 1.237.709 2.299 1.852 2.772a2.959 2.959 0 0 0 3.269-.65c.567-.566.879-1.32.879-2.122v-10.37l2-1.667v17.034zM14 13h4.196L15 18.113 11.804 13H14zm10.319 20H22.78l3-12h8.139l-9.6 12zm-5.038 0l-3-12h7.438l-3 12h-1.438zm10.794-19.233L34 19h-7.196l3.271-5.233zM16.804 19L20 13.887 23.196 19h-6.392zM25 18.113L21.804 13h6.391L25 18.113zM13.196 19H6l3.925-5.233L13.196 19zm1.023 2l3 12H15.68l-9.6-12h8.139zm.981 14h7.731c-.495 3.94-3.859 7-7.931 7s-7.436-3.06-7.931-7H15.2zM5.051 35c.503 5.046 4.773 9 9.949 9s9.446-3.954 9.949-9H38v16.069A8.007 8.007 0 0 0 31.069 58H8.931A8.008 8.008 0 0 0 2 51.069V35h3.051zM38 53.09V58h-4.91A6.008 6.008 0 0 1 38 53.09zm8-23.622v8.703a.996.996 0 0 1-.293.708.982.982 0 0 1-1.09.217.982.982 0 0 1-.617-.925v-7.036l2-1.667zM42.238 30H42v.198L38.638 33H26.88l6.4-8h14.958l-6 5zM15 7h35v16H34.88l1.9-2.375a1 1 0 0 0 .019-1.225l-6-8A.996.996 0 0 0 30 11H15V7zm-1.88 26H3.94l5.683-4.371L13.12 33zM2 53.09A6.007 6.007 0 0 1 6.91 58H2v-4.91zm38 .094a2.998 2.998 0 0 1 1.903 2.095L40 56.865v-3.681zm8.128-3.092c.287-2.164 1.035-3.844 1.872-4.619v3.059l-1.872 1.56zM52 22.931V7.069c3.94.495 7 3.859 7 7.931s-3.06 7.436-7 7.931zM1 7c2.206 0 4 1.794 4 4a1 1 0 0 0 2 0c0-2.206 1.794-4 4-4a1 1 0 0 0 0-2C8.794 5 7 3.206 7 1a1 1 0 0 0-2 0c0 2.206-1.794 4-4 4a1 1 0 0 0 0 2zm5-2.687A6.049 6.049 0 0 0 7.687 6 6.049 6.049 0 0 0 6 7.687 6.049 6.049 0 0 0 4.313 6 6.049 6.049 0 0 0 6 4.313z"/><path d="M33 30h2v2h-2zm1-4h2v2h-2zm4 2h2v2h-2z"/></g></svg>