<svg xmlns="http://www.w3.org/2000/svg" width="56" height="53" viewBox="0 0 56 53"><g fill="none" fill-rule="evenodd"><path d="M-2-3h60v60H-2z"/><path stroke="#FFF" stroke-linejoin="round" stroke-width="2" d="M28 9.074c0-4.308-3.496-7.8-7.8-7.8a7.797 7.797 0 0 0-7.8 7.8 7.64 7.64 0 0 0 .77 3.36"/><path stroke="#FFF" stroke-linecap="round" stroke-linejoin="round" stroke-width="2" d="M52.45 25.835h-1.952c-1.018 0-1.5-.453-1.575-.915-.531-3.346-2.706-7.695-8.17-9.603-.053-3.028.622-5.212 1.937-8.765-3.056.767-6.433 2.431-8.432 6.84a30.203 30.203 0 0 0-7.174-.848c-6.582 0-11.546 1.996-15.52 5.09-3.59 2.795-5.844 7.475-5.577 13.859.202 4.815 3.556 8.49 6.129 10.548.37.293 1.11.762.723 1.958-.387 1.194-1.083 2.861-1.083 2.861a2.066 2.066 0 0 0 1.195 2.662l3.861 1.459a2.064 2.064 0 0 0 2.662-1.195s.514-1.338.931-2.454c.793-2.098 1.278-.396 6.68-.396 5.612 0 6.178-1.095 6.765.624.376 1.122.844 2.226.844 2.226a2.062 2.062 0 0 0 2.662 1.195l3.857-1.46a2.063 2.063 0 0 0 1.199-2.661l-.62-1.638s-.63-1.08.72-1.813c2.691-1.464 4.72-3.685 6.034-6.429.28-.588.693-1.387 1.952-1.387h1.952c1.075 0 1.95-.875 1.95-1.949V27.79a1.956 1.956 0 0 0-1.95-1.955z"/><path fill="#FFF" fill-rule="nonzero" d="M41.776 29.306c-1.27 0-2.3-1.028-2.3-2.296a2.297 2.297 0 0 1 2.3-2.295 2.293 2.293 0 0 1 2.292 2.295 2.294 2.294 0 0 1-2.292 2.296z"/><path stroke="#FFF" stroke-linecap="round" stroke-linejoin="round" stroke-width="2" d="M6.191 24.715S1.6 23.664 1.6 19.523c0-1.698.857-3.26 2.356-3.907"/></g></svg>