<svg width="20" height="19" viewBox="0 0 20 19" xmlns="http://www.w3.org/2000/svg"><title>@1xFill 194</title><path d="M19.995 18.36h-4.419v-6.454c0-1.69-.691-2.843-2.211-2.843-1.163 0-1.81.778-2.11 1.528-.113.27-.096.645-.096 1.02v6.749H6.781s.057-11.433 0-12.472h4.378v1.957c.259-.856 1.658-2.077 3.89-2.077 2.77 0 4.946 1.794 4.946 5.657v6.935zM2.354 4.328h-.029C.915 4.328 0 3.374 0 2.166 0 .933.942 0 2.38 0s2.323.931 2.35 2.162c0 1.209-.912 2.166-2.376 2.166zM.504 18.36h3.898V5.888H.504V18.36z" fill="#FFF" fill-rule="evenodd"/></svg>