<svg xmlns="http://www.w3.org/2000/svg" width="46" height="43" viewBox="0 0 46 43"><path fill="#494850" d="M43.306 42.735H3.148a.649.649 0 0 1-.647-.65V20.931C1.263 20.478 0 19.275 0 16.258v-.007a.65.65 0 0 1 .076-.321L6.021 4.81a.638.638 0 0 1-.004-.072V.65c0-.36.29-.65.648-.65H39.05c.358 0 .648.29.648.65v3.871c.023.03.044.063.063.098l5.97 11.284c.057.105.08.22.076.331v.024c0 1.587-.896 3.107-1.853 4.01v21.817c0 .359-.29.65-.648.65zm-24.52-1.301h23.872V20.83a5.833 5.833 0 0 1-2.006.333c-1.999 0-3.53-.697-4.39-1.957-.885 1.247-2.464 1.957-4.473 1.957-2.016 0-3.598-.715-4.48-1.97-.883 1.256-2.466 1.971-4.482 1.971-1.716 0-3.117-.518-4.041-1.445v21.715zm-11.103 0h9.808V20.083c-.908.698-2.153 1.082-3.631 1.082-2.02 0-3.607-.715-4.49-1.97a4.285 4.285 0 0 1-1.687 1.397v20.842zm-3.887 0h2.591V21.021a7.457 7.457 0 0 1-1.517.148c-.39 0-.747-.026-1.074-.076v20.341zM1.354 16.908l.006.02.044.182c.285 1.164.676 2.759 3.466 2.759.984 0 3.33-.232 3.872-2.375a.649.649 0 0 1 1.256 0c.52 2.063 2.644 2.37 3.862 2.37 1.217 0 3.336-.308 3.858-2.373a.649.649 0 0 1 1.256 0c.52 2.064 2.639 2.372 3.855 2.372 1.215 0 3.332-.308 3.853-2.372a.649.649 0 0 1 1.257 0c.52 2.064 2.637 2.372 3.852 2.372 1.216 0 3.332-.309 3.853-2.373a.649.649 0 0 1 1.257 0c.494 1.96 2.314 2.373 3.754 2.373 2.503 0 3.42-1.549 3.748-2.848a.629.629 0 0 1 .037-.106H1.354v-.001zm.366-1.3h42.389l-5.31-10.034H7.083L1.72 15.607zM7.313 4.272h31.09V1.301H7.312v2.972zM27.877 36.12a.652.652 0 0 1-.45-1.118l3.885-3.77a.645.645 0 0 1 .916.016.652.652 0 0 1-.016.92l-3.885 3.77a.642.642 0 0 1-.45.182zm-1.84-2.978a.652.652 0 0 1-.45-1.118l7.59-7.366a.645.645 0 0 1 .917.016.652.652 0 0 1-.016.92l-7.591 7.365a.644.644 0 0 1-.45.183zM9.163 32.7a1.3 1.3 0 0 1-1.295-1.3 1.3 1.3 0 0 1 1.295-1.3 1.3 1.3 0 0 1 1.296 1.3 1.3 1.3 0 0 1-1.296 1.301z"/></svg>