<svg width="32" height="32" viewBox="0 0 32 32" xmlns="http://www.w3.org/2000/svg"><title>@1xWhatsApp</title><path d="M8.535 28.607a.523.523 0 0 1 .41.04 14.898 14.898 0 0 0 7.188 1.834c8.212 0 14.867-6.6 14.867-14.74C31 7.6 24.346 1 16.133 1 7.92 1 1.265 7.6 1.265 15.74c0 2.72.745 5.332 2.132 7.61.08.132.099.293.05.44L1 31l7.535-2.393zm15.815-9.623c.229.38.145 1.337-.174 2.229-.357.988-1.981 2.03-2.991 2.12-.06.006-.115.016-.211.039-.92.22-1.852.047-4.554-1.008-1.444-.564-2.784-1.478-4.016-2.648a18.148 18.148 0 0 1-1.895-2.112 21.807 21.807 0 0 1-.759-1.058 9.151 9.151 0 0 1-.803-1.25c-.526-.977-.843-1.969-.843-2.935 0-1.085.299-1.967.813-2.708.116-.168.239-.321.374-.474.079-.089.308-.332.271-.292.4-.433.913-.636 1.39-.636.127 0 .223.005.407.016.178.012.24.015.316.015l.054-.003c.564-.036.963.2 1.277.947l.232.557.283.684c.387.934.594 1.427.633 1.503.188.372.227.739.032 1.124l-.112.226a2.304 2.304 0 0 1-.337.506l-.186.222a5.918 5.918 0 0 1-.408.464c-.135.133-.113.075-.082.127.484.824 1.157 1.723 1.994 2.463a9.268 9.268 0 0 0 1.814 1.266c.348.185 1.16.541 1.105.514.175.087.138.091.194.028.402-.455.968-1.136 1.152-1.411.382-.57.82-.619 1.46-.388.301.109 1.693.775 2.633 1.24.074.037.312.151.302.146.119.058.2.1.275.147.156.095.274.198.36.34z" stroke="#FFF" fill="none" stroke-linecap="round" stroke-linejoin="round"/></svg>