<?xml version="1.0" encoding="utf-8"?>
<!-- Generator: Adobe Illustrator 16.0.0, SVG Export Plug-In . SVG Version: 6.00 Build 0)  -->
<svg version="1.2" baseProfile="tiny" xmlns="http://www.w3.org/2000/svg" xmlns:xlink="http://www.w3.org/1999/xlink" x="0px"
	 y="0px" width="300px" height="300px" viewBox="0 0 300 300" xml:space="preserve">
<g id="icon-badge">
</g>
<g id="icon-honey-pot">
</g>
<g id="icon-cellphone">
</g>
<g id="icon-envelop">
</g>
<g id="icon-earth">
</g>
<g id="icon-cpf">
</g>
<g id="icon-people">
</g>
<g id="icon-identity">
</g>
<g id="icon-sun">
</g>
<g id="icon-sex">
</g>
<g id="icon-cake">
</g>
<g id="icon-gift">
	<g>
		<path fill-rule="evenodd" d="M174.045,88.101c2.486-0.679,3.98-2.548,5.824-3.853c5.088-3.601,10.18-3.677,15.182,0.092
			c5.311,4,9.143,9.285,12.441,14.981c1.955,3.382,2.359,6.73-0.23,10.034c-0.367,0.47-0.479,1.138-0.771,1.868
			c2.221,4.771,5.945,8.55,9.016,12.747c8.465,11.552,17.148,22.938,25.793,34.354c1.777,2.348,3.693,4.598,5.662,6.783
			c3.799,4.221,4.113,8.863,0.508,13.006c-1.785,2.055-3.793,3.981-5.953,5.632c-17.963,13.692-35.982,27.31-53.982,40.949
			c-9.758,7.393-19.514,14.792-29.281,22.176c-1.852,1.4-3.674,2.864-5.65,4.066c-6.045,3.677-11.146,2.704-15.471-2.992
			c-10.463-13.781-20.863-27.613-31.291-41.423c-2.793-3.701-5.594-7.396-8.488-11.227c-1.402,0.228-2.662,0.264-3.807,0.646
			c-3.215,1.075-5.828-0.221-8.197-2.076c-1.473-1.163-2.764-2.616-3.928-4.105c-2.209-2.822-4.324-5.727-6.371-8.674
			c-0.955-1.374-1.844-2.848-2.453-4.397c-2.227-5.652-0.809-10.089,3.801-14.129c0.951-0.832,2.045-1.496,3.039-2.281
			c0.982-0.769,1.918-1.592,3.248-2.711c-0.863-0.869-1.471-1.602-2.191-2.188c-2.684-2.185-4.646-4.843-5.77-8.147
			c-1.488-4.377-3.449-8.619-2.785-13.463c0.754-5.482,3.537-8.929,8.781-10.21c2.441-0.594,4.977-0.905,7.488-1.115
			c6.719-0.561,13.443-0.993,20.635-1.511c1.691-4.502,5.451-7.431,9.359-10.356c3.936-2.951,7.809-5.739,13.064-5.803
			c2.109-5.671,4.035-11.243,6.266-16.683c1.512-3.691,3.18-7.368,5.254-10.761c3.828-6.265,9.629-7.718,16.291-4.64
			c3.682,1.703,6.932,4.017,9.934,6.678c1.068,0.947,1.887,2.246,2.594,3.509C172.518,84.517,173.209,86.283,174.045,88.101z
			 M144.766,247.062c2.764,1.01,4.363-0.643,5.998-1.866c8.111-6.064,16.172-12.194,24.232-18.328
			c1.002-0.763,2.064-1.557,2.771-2.565c0.549-0.784,1.068-2.092,0.791-2.88c-1.244-3.509-2.129-7.453-6.857-8.034
			c-0.072-1.198,0.24-2.493-0.264-3.198c-2.4-3.365-4.027-7.46-8.141-9.314c-0.883-0.397-1.16-0.981-1.336-1.874
			c-0.877-4.355-4.107-7.195-6.805-10.374c-3.291,0.331-2.404-2.713-3.561-4.573c-2.752,0.529-5.564,1.072-8.363,1.61
			c-1.086-4.27-1.064-4.283-4.117-8.038c-1.189-1.454-2.285-3.712-3.768-4.038c-2.844-0.628-1.238-4.058-4.07-4.727
			c-1.627,1.171-3.51,2.479-5.342,3.851c-5.914,4.428-11.84,8.842-17.699,13.338c-1.773,1.361-3.893,2.535-4.488,5.347
			c1.566,0.755,3.133,1.665,2.326,3.766c-0.625,1.621,0.088,2.848,1.029,4.05c0.914,1.157,1.875,2.285,2.684,3.511
			c1.15,1.731,2.438,2.604,4.729,2.173c1.465-0.28,1.973,0.846,1.484,2.531c-0.221,0.754-0.549,1.476-0.793,2.117
			c2.344,3.094,4.49,5.938,6.471,8.558c1.512,0.027,2.693,0.054,4.254,0.079c-0.373,1.82-0.65,3.181-0.871,4.255
			c2.184,2.885,4.191,5.544,6.033,7.981c1.566-0.026,2.756-0.046,3.838-0.061c0.229,0.771,0.563,1.301,0.42,1.518
			c-1.195,1.825-1.123,3.45,0.326,5.145c1.506,1.763,2.826,3.685,4.266,5.501c0.246,0.313,0.682,0.469,1.045,0.708
			c1.145-0.151,2.299-0.301,3.277-0.43c0.334,0.513,0.539,0.683,0.541,0.855C144.82,244.664,144.789,245.678,144.766,247.062z
			 M204.549,187.808c-0.086,4.559,0.162,5.299,2.43,7.757c2.184,2.367,3.889,2.771,6.752,1.511c0.766-0.339,1.525-0.738,2.197-1.237
			c8.447-6.308,16.873-12.646,25.324-18.942c2.979-2.228,3.854-5.602,1.021-8.639c-2.723-2.924-5.02-6.24-7.504-9.383
			c-4.408-1.688-3.619-7.117-7.029-9.709c-1.725-1.309-2.426-3.903-5.1-4.28c-0.359-0.052-0.715-0.882-0.877-1.409
			c-0.291-0.968-0.158-2.184-0.699-2.934c-1.969-2.73-4.135-5.314-6.248-7.935c-0.629-0.782-1.471-1.421-1.967-2.27
			c-2.637-4.537-5.578-8.703-9.896-11.949c-1.477-1.111-2.395-1.28-3.77-0.751c-0.775,0.299-1.496,0.792-2.166,1.296
			c-8.09,6.085-16.174,12.179-24.24,18.298c-0.484,0.366-1.018,0.893-1.146,1.434c-0.115,0.48,0.305,1.086,0.496,1.65
			c1.273-0.504,2.385-0.945,3.477-1.38c1.131,2.143,1.131,2.143-0.76,4.812c2.482,3.287,4.975,6.577,7.393,9.774
			c1.412-0.491,2.648-2.052,3.607-0.544c1,1.574-0.555,2.025-1.803,2.401c-0.361,0.104-0.631,0.515-1.123,0.938
			c-0.145,1.813-0.299,3.785-0.475,6.022c1.592-0.284,3-0.973,3.531,0.911c-0.4,0.883-0.816,1.802-1.227,2.705
			c2.309,3.057,4.578,6.055,6.631,8.766c1.607,0.072,2.813,0.123,4.352,0.188c-0.33,1.721-0.59,3.072-0.846,4.407
			C199.971,186.848,199.971,186.848,204.549,187.808z M149.877,179.323c0.916-2.929,1.666-5.094,2.266-7.294
			c0.727-2.64,1.244-5.335,2-7.963c1.025-3.515,2.191-4.56,5.797-4.623c4.416-0.083,8.832,0.204,13.25,0.259
			c1.164,0.01,2.33-0.259,3.613-0.416c-0.039-2.893-1.26-4.806-2.652-6.664c-5.928-7.924-11.813-15.877-17.773-23.777
			c-2.277-3.023-4.543-6.086-7.113-8.857c-2.465-2.652-4.264-2.713-7.172-0.554c-6.938,5.145-13.797,10.394-20.686,15.608
			c-0.17,0.124-0.34,0.25-0.496,0.393c-2.475,2.225-2.887,4.367-1.246,7.28c0.717,1.276,1.609,2.47,2.492,3.647
			c7.092,9.428,14.193,18.847,21.309,28.254c0.889,1.176,1.766,2.404,2.867,3.351C147.035,178.567,148.146,178.694,149.877,179.323z
			 M177.002,165.603c-8.088-1.148-12.57-1.159-17.609,0.022c-0.764,3.588-1.387,7.337-2.398,10.975
			c-0.766,2.742-0.09,4.802,1.576,6.983c7.037,9.204,13.926,18.513,20.895,27.765c1.012,1.341,2.064,2.676,3.256,3.857
			c2.436,2.404,3.873,2.577,6.66,0.635c3.799-2.65,7.537-5.396,11.217-8.209c3.93-3.007,4.203-4.854,1.619-9.071
			c-0.219-0.356-0.438-0.715-0.693-1.046c-4.768-6.138-9.559-12.252-14.297-18.411C183.777,174.627,180.398,170.093,177.002,165.603
			z M112.193,143.851c-2.432,1.184-4.887,1.975-6.871,3.42c-8.195,5.961-16.285,12.069-24.328,18.229
			c-3.621,2.776-4.58,6.347-2.18,10.011c3.232,4.927,6.988,9.517,10.619,14.174c0.971,1.242,2.557,1.304,4.037,0.435
			c0.902-0.53,1.725-1.207,2.566-1.843c6.219-4.711,12.455-9.399,18.646-14.149c3.514-2.692,7.053-5.373,10.393-8.27
			c2.182-1.889,2.012-2.758-0.139-5.059c-0.41-0.441-1.068-0.82-1.191-1.329C122.094,152.714,116.84,148.739,112.193,143.851z
			 M164.986,131.321c3.209,1.098,5.672,0.494,8.014-1.282c8.539-6.481,17.131-12.883,25.635-19.41
			c1.473-1.127,2.691-2.632,3.867-4.088c1.197-1.487,1.064-3.139-0.043-4.666c-1.23-1.694-2.52-3.348-3.586-4.754
			c-1.66-0.277-2.865-0.479-4.148-0.691c0.025-1.613,0.5-3.221-0.016-4.396c-1.754-3.988-7.348-5.735-11.326-3.737
			c-0.93,0.464-1.756,1.149-2.594,1.785c-7.549,5.708-15.117,11.392-22.609,17.175c-1.467,1.134-2.74,2.581-3.869,4.062
			c-0.51,0.662-0.453,1.766-0.658,2.691c0.627,0.107,0.838,0.171,1.041,0.171c2.633,0,3.299,0.707,2.326,2.581
			c-0.354,0.686-0.955,1.25-1.504,1.949c2.238,3.267,4.324,6.369,6.773,8.951c1.779-0.163,3.057-2.802,4.592-0.471
			C168.078,129.009,165.623,129.441,164.986,131.321z M154.816,103.353c-0.014-0.014-0.025-0.027-0.035-0.044
			c3.023-2.284,6.139-4.462,9.043-6.883c3.541-2.954,4.809-8.105,2.473-11.297c-2.896-3.962-6.809-6.859-11.691-8.041
			c-2.635-0.633-6.17,0.297-7.412,3.328c-1.111,2.72-2.676,5.26-3.699,8.005c-1.975,5.299-3.803,10.657-5.484,16.057
			c-0.77,2.472,0.551,4.574,2.471,5.976c1.932,1.408,3.936,0.854,5.785-0.608C149.074,107.629,151.959,105.512,154.816,103.353z
			 M101.564,143.57c0.004,0.007,0.01,0.011,0.014,0.014c0.84-0.635,1.682-1.265,2.52-1.905c2.508-1.922,5.131-3.711,7.484-5.807
			c2.637-2.348,2.287-5.48-0.594-7.439c-1.994-1.352-4.172-1.769-6.598-1.609c-5.668,0.368-11.348,0.781-17.02,0.735
			c-4.549-0.031-6.682,2.971-8.855,6.046c-0.551,0.775-0.785,2.023-0.654,2.988c0.566,4.197,1.584,8.275,4.156,11.773
			c2.82,3.84,7.072,4.505,10.971,1.673C95.889,147.936,98.709,145.729,101.564,143.57z M121.16,114.973
			c-1.578,1.38-3.238,2.657-4.678,4.146c-1.07,1.108-1.525,2.686-0.713,4.085c1.141,1.968,2.334,4.046,4.848,4.57
			c0.568,0.116,1.313-0.017,1.82-0.309c4.416-2.511,8.131-5.896,11.4-9.725c0.641-0.747,0.717-2.47,0.355-3.498
			c-1.078-3.064-3.561-4.254-6.529-3.019C125.383,112.173,123.338,113.69,121.16,114.973z"/>
		<path fill-rule="evenodd" d="M176.813,57.146c1.053,1.808,2.096,3.377,2.9,5.054c0.588,1.223,0.25,2.496-0.73,3.457
			c-1.061,1.045-2.357,0.92-3.443,0.156c-1.68-1.187-3.229-2.557-5.02-4.001c-1.551,0.875-3.156,1.781-4.686,2.64
			c-0.773-0.248-1.439-0.326-1.947-0.652c-1.584-1.012-2.057-2.34-1.133-3.624c0.961-1.341,2.188-2.492,3.568-4.021
			c-0.83-1.436-1.789-3-2.648-4.614c-0.744-1.416-0.383-2.856,0.852-3.936c1.107-0.975,2.709-0.992,3.98,0.143
			c1.383,1.229,2.643,2.591,4.076,4.015c1.586-1.034,2.938-2.003,4.375-2.818c1.461-0.827,3.166-0.474,3.957,0.662
			c0.809,1.173,0.67,2.715-0.521,4.016C179.281,54.837,178.049,55.939,176.813,57.146z"/>
		<path fill-rule="evenodd" d="M104.734,87.254c-1.109,0.509-2.197,1.124-3.363,1.508c-0.762,0.251-1.643,0.292-2.449,0.208
			c-1.838-0.187-2.813-2.185-1.854-3.713c0.443-0.703,0.99-1.345,1.51-2.002c0.512-0.647,1.049-1.271,1.752-2.125
			c-0.859-1.662-1.695-3.284-2.721-5.272c0.408-0.699,0.783-1.683,1.439-2.404c0.957-1.048,2.381-1.087,3.457-0.411
			c1.383,0.869,2.529,2.119,4.074,3.465c1.521-0.766,3.125-1.625,4.773-2.387c1.021-0.47,2.09-0.385,2.861,0.502
			c0.875,1.01,1.289,2.224,0.408,3.423c-1.104,1.498-2.33,2.902-3.594,4.457c0.9,1.511,1.871,2.876,2.561,4.37
			c0.568,1.239,0.111,2.492-0.836,3.44c-0.998,0.998-2.352,1.146-3.461,0.461C107.723,89.801,106.342,88.521,104.734,87.254z"/>
		<path fill-rule="evenodd" d="M59.27,154.756c1.314-0.703,2.539-1.476,3.855-2.027c1.184-0.492,2.443-0.561,3.479,0.485
			c0.906,0.914,0.836,2.526-0.346,3.973c-0.791,0.961-1.785,1.752-2.906,2.834c0.619,1.42,1.363,2.864,1.873,4.386
			c0.438,1.3-0.053,2.501-1.143,3.317c-1.139,0.859-2.418,0.71-3.484-0.096c-0.986-0.74-1.801-1.705-2.924-2.801
			c-1.232,0.421-2.541,0.938-3.889,1.311c-1.314,0.369-2.484,0.018-3.309-1.134c-0.898-1.253-0.398-2.386,0.445-3.396
			c0.66-0.785,1.438-1.469,2.342-2.381c-0.754-1.32-1.5-2.539-2.158-3.812c-0.824-1.596-0.631-2.931,0.467-3.964
			c1.266-1.189,2.92-1.142,4.492,0.226c0.625,0.542,1.078,1.274,1.666,1.866C58.156,153.966,58.674,154.29,59.27,154.756z"/>
		<path fill-rule="evenodd" d="M145.461,193.128c-0.293,1.484-0.268,2.501-0.734,3.184c-0.203,0.303-1.51,0.134-2.127-0.19
			c-0.898-0.474-0.799-1.959,0.166-2.494C143.357,193.3,144.156,193.347,145.461,193.128z"/>
		<path fill-rule="evenodd" d="M132.975,209.901c1.09,0.414,1.92,0.499,2.373,0.957c0.639,0.642,0.053,2.37-0.805,2.4
			c-0.641,0.027-1.578-0.375-1.883-0.883C132.387,211.914,132.797,211.049,132.975,209.901z"/>
		<path fill-rule="evenodd" d="M136.973,190.854c-1.172,1.068-1.754,1.885-2.533,2.168c-0.324,0.121-1.469-0.867-1.502-1.396
			c-0.033-0.564,0.713-1.5,1.299-1.678C134.807,189.774,135.604,190.36,136.973,190.854z"/>
		<path fill-rule="evenodd" d="M126.543,197.33c-0.658,1.368-0.936,2.264-1.49,2.927c-0.205,0.241-1.188,0.116-1.6-0.166
			c-0.75-0.508-0.639-2.217,0.217-2.625C124.283,197.171,125.125,197.369,126.543,197.33z"/>
		<path fill-rule="evenodd" d="M162.689,207.316c1.154,0.479,2.191,0.604,2.389,1.077c0.209,0.511-0.188,1.518-0.646,2
			c-0.705,0.74-1.619,0.343-1.928-0.486C162.279,209.312,162.58,208.522,162.689,207.316z"/>
		<path fill-rule="evenodd" d="M136.072,220.4c-0.639,1.212-0.84,2.198-1.363,2.421c-0.572,0.241-1.445-0.23-2.182-0.393
			c0.234-0.728,0.271-1.72,0.773-2.11C133.734,219.979,134.699,220.322,136.072,220.4z"/>
		<path fill-rule="evenodd" d="M136.727,180.349c-0.426,1.058-0.547,1.874-1.006,2.379c-0.695,0.755-1.959,0.283-2.354-0.79
			c-0.314-0.855-0.127-1.69,0.799-1.897C134.826,179.892,135.582,180.19,136.727,180.349z"/>
		<path fill-rule="evenodd" d="M126.074,190.162c-1.236-0.262-1.938-0.413-2.645-0.561c0.16-0.71,0.178-1.511,0.545-2.083
			c0.152-0.237,1.377-0.191,1.557,0.083C125.885,188.151,125.854,188.95,126.074,190.162z"/>
		<path fill-rule="evenodd" d="M126.035,176.962c-0.068,1.203,0.07,1.86-0.168,2.316c-0.563,1.087-1.803,1.396-2.539,0.622
			c-0.293-0.302-0.357-1.352-0.113-1.545C123.895,177.815,124.789,177.544,126.035,176.962z"/>
		<path fill-rule="evenodd" d="M172.355,219.642c1.211,0.475,2.021,0.582,2.453,1.044c0.252,0.271,0.082,1.474-0.201,1.607
			c-0.617,0.285-1.428,0.153-2.162,0.195C172.424,221.752,172.4,221.019,172.355,219.642z"/>
		<path fill-rule="evenodd" d="M125.725,207.978c0.6,1.366,0.078,2.688-0.896,2.715c-0.631,0.017-1.283-0.572-1.922-0.892
			c0.338-0.637,0.531-1.496,1.057-1.841C124.42,207.667,125.26,207.955,125.725,207.978z"/>
		<path fill-rule="evenodd" d="M115.021,187.797c-0.391-0.127-1.391-0.163-1.629-0.609c-0.285-0.53-0.166-1.666,0.238-2.062
			c0.4-0.387,1.488-0.416,2.084-0.159C116.555,185.33,116.32,186.811,115.021,187.797z"/>
		<path fill-rule="evenodd" d="M152.143,197.771c0.688-1.205,0.92-1.979,1.439-2.377c0.307-0.23,1.512,0.064,1.551,0.269
			c0.139,0.711,0.189,1.703-0.215,2.159C154.621,198.162,153.568,197.836,152.143,197.771z"/>
		<path fill-rule="evenodd" d="M142.936,202.44c1.207,0.542,2.281,0.703,2.447,1.179c0.205,0.593-0.133,1.736-0.631,2.088
			c-0.377,0.271-1.648-0.102-2.004-0.577C142.428,204.704,142.809,203.746,142.936,202.44z"/>
		<path fill-rule="evenodd" d="M113.365,194.556c1.336,0.269,2.344,0.188,2.67,0.618c0.363,0.478,0.107,1.427,0.119,2.174
			c-0.76-0.018-1.717,0.24-2.219-0.126C113.512,196.909,113.609,195.88,113.365,194.556z"/>
		<path fill-rule="evenodd" d="M164.869,230.601c-1.068-0.122-1.928,0.005-2.516-0.34c-0.852-0.5-0.676-1.357-0.055-2.067
			c0.848-0.963,2.234-1.124,2.533-0.229C165.064,228.651,164.873,229.48,164.869,230.601z"/>
		<path fill-rule="evenodd" d="M155.402,235.476c-0.385,1.385-0.385,2.467-0.824,2.694c-0.535,0.274-1.488-0.071-2.15-0.388
			c-0.148-0.067-0.047-1.361,0.297-1.633C153.227,235.755,154.055,235.775,155.402,235.476z"/>
		<path fill-rule="evenodd" d="M145.184,225.555c-0.92-0.099-1.777,0.048-2.297-0.299c-1.016-0.694-0.176-1.639,0.348-1.942
			c0.479-0.276,1.408,0.004,2.012,0.294C145.438,223.701,145.23,224.623,145.184,225.555z"/>
		<path fill-rule="evenodd" d="M145.199,232.288c-0.24,1.352-0.139,2.282-0.543,2.648c-0.455,0.408-1.369,0.303-2.086,0.423
			c0.021-0.704-0.201-1.572,0.129-2.064C143.012,232.833,143.912,232.769,145.199,232.288z"/>
		<path fill-rule="evenodd" d="M155.531,225.813c-0.545,0.88-0.779,1.62-1.289,1.993c-0.744,0.547-1.719,0.228-1.84-0.624
			c-0.076-0.547,0.609-1.342,1.154-1.776C153.816,225.202,154.543,225.585,155.531,225.813z"/>
		<path fill-rule="evenodd" d="M164.584,220.431c-0.971-0.163-1.662-0.071-2.025-0.377c-0.877-0.731-0.279-1.528,0.363-1.956
			c0.377-0.247,1.49-0.139,1.564,0.064C164.707,218.767,164.576,219.504,164.584,220.431z"/>
		<path fill-rule="evenodd" d="M155.648,215.205c-0.529,1.435-0.623,2.249-1.076,2.733c-0.293,0.313-1.264,0.397-1.641,0.146
			c-0.764-0.502-0.887-1.436-0.096-2.025C153.361,215.663,154.156,215.633,155.648,215.205z"/>
		<path fill-rule="evenodd" d="M136.35,199.921c-0.52,1.457-0.598,2.275-1.049,2.74c-0.316,0.333-1.127,0.193-1.721,0.262
			c-0.027-0.724-0.32-1.625,0.004-2.119C133.873,200.359,134.844,200.359,136.35,199.921z"/>
		<path fill-rule="evenodd" d="M145.359,216.978c-1.426-0.795-1.992-1.018-2.439-1.389c-0.783-0.646-0.67-1.487,0.027-2.038
			c0.313-0.251,1.303-0.212,1.5,0.055C144.816,214.104,144.83,214.862,145.359,216.978z"/>
		<path fill-rule="evenodd" d="M155.658,208.084c-1.301-0.256-2.041-0.397-2.781-0.541c0.176-0.746,0.201-1.588,0.598-2.184
			c0.166-0.253,1.441-0.206,1.641,0.093C155.488,206.006,155.439,206.838,155.658,208.084z"/>
		<path fill-rule="evenodd" d="M206.369,130.112c-1.227-0.128-2.072-0.002-2.666-0.328c-0.891-0.487-0.832-2.275,0.096-2.623
			c0.641-0.243,1.754-0.122,2.211,0.304C206.424,127.855,206.24,128.888,206.369,130.112z"/>
		<path fill-rule="evenodd" d="M234.996,175.184c-0.213,1.222-0.16,2.014-0.496,2.581c-0.492,0.834-2.342,0.825-2.518,0.041
			c-0.154-0.68,0.01-1.685,0.447-2.16C232.809,175.236,233.775,175.367,234.996,175.184z"/>
		<path fill-rule="evenodd" d="M196.131,155.021c-0.23,1.244-0.17,2.088-0.541,2.655c-0.553,0.846-2.244,0.726-2.535-0.182
			c-0.193-0.604,0.053-1.651,0.502-2.073C193.977,155.021,194.926,155.17,196.131,155.021z"/>
		<path fill-rule="evenodd" d="M192.662,164.988c1.104,0.185,2.059,0.075,2.42,0.483c0.379,0.438,0.439,1.463,0.207,2.063
			c-0.311,0.805-2.201,0.842-2.537,0.057C192.486,166.972,192.678,166.155,192.662,164.988z"/>
		<path fill-rule="evenodd" d="M183.18,134.915c-0.609-1.639,0.023-2.316,1.027-2.766c0.859-0.389,1.717-0.199,1.887,0.745
			c0.125,0.694-0.082,1.96-0.48,2.12C184.885,135.31,183.902,134.973,183.18,134.915z"/>
		<path fill-rule="evenodd" d="M214.881,173.093c-1.213-0.098-2.207,0.107-2.586-0.282c-0.422-0.432-0.549-1.508-0.328-2.128
			c0.32-0.891,2.105-1.01,2.629-0.171C214.936,171.06,214.777,171.917,214.881,173.093z"/>
		<path fill-rule="evenodd" d="M196.33,134.531c-0.172,1.168-0.098,1.961-0.42,2.526c-0.461,0.812-2.295,0.789-2.508-0.002
			c-0.178-0.656-0.039-1.679,0.389-2.134C194.168,134.52,195.146,134.677,196.33,134.531z"/>
		<path fill-rule="evenodd" d="M224.699,172.495c0.549,1.592-0.098,2.276-1.09,2.727c-0.844,0.38-1.623,0.203-1.961-0.707
			c-0.402-1.097-0.045-2.078,1.109-2.354C223.393,172.005,224.158,172.386,224.699,172.495z"/>
		<path fill-rule="evenodd" d="M215.475,160.124c-0.371,1.16-0.4,2.202-0.898,2.533c-0.492,0.32-1.461-0.082-2.221-0.163
			c0.117-0.767-0.02-1.816,0.428-2.218C213.219,159.887,214.25,160.156,215.475,160.124z"/>
		<path fill-rule="evenodd" d="M202.844,167.476c1.08,0.516,1.85,0.696,2.291,1.179c0.215,0.235-0.076,1.419-0.35,1.504
			c-0.664,0.21-1.455,0.032-2.197,0.009C202.656,169.448,202.727,168.729,202.844,167.476z"/>
		<path fill-rule="evenodd" d="M235.416,165.027c-0.74,1.233-1,2-1.525,2.462c-0.748,0.658-1.75,0.428-2.008-0.469
			c-0.176-0.607,0.178-1.695,0.67-2.069C232.998,164.61,233.955,164.951,235.416,165.027z"/>
		<path fill-rule="evenodd" d="M202.527,177.466c1.104,0.451,2.162,0.574,2.354,1.049c0.215,0.527-0.166,1.567-0.639,2.034
			c-0.652,0.652-1.691,0.496-2.02-0.418C201.998,179.515,202.361,178.685,202.527,177.466z"/>
		<path fill-rule="evenodd" d="M224.627,165.894c-1.094-0.5-2.152-0.668-2.285-1.113c-0.18-0.602,0.148-1.739,0.633-2.038
			c0.447-0.278,1.699,0.034,2.025,0.494C225.299,163.659,224.844,164.622,224.627,165.894z"/>
		<path fill-rule="evenodd" d="M212.104,179.444c1.076,0.477,1.904,0.628,2.404,1.115c0.705,0.688,0.096,2.023-1.016,2.391
			c-0.9,0.299-1.756,0.067-1.908-0.907C211.473,181.364,211.85,180.604,212.104,179.444z"/>
		<path fill-rule="evenodd" d="M195.822,147.689c-1.23-0.158-2.273-0.011-2.563-0.407c-0.328-0.455-0.248-1.671,0.145-2.048
			c0.383-0.366,1.574-0.353,2.049-0.011C195.838,145.501,195.682,146.521,195.822,147.689z"/>
		<path fill-rule="evenodd" d="M206.365,136.63c-0.156,1.229-0.059,2.023-0.377,2.566c-0.49,0.829-2.367,0.894-2.551,0.158
			c-0.164-0.667-0.012-1.655,0.412-2.154C204.205,136.784,205.152,136.871,206.365,136.63z"/>
		<path fill-rule="evenodd" d="M205.492,157.218c-0.273,1.389-0.184,2.426-0.631,2.781c-0.453,0.363-1.611,0.315-2.154-0.031
			c-0.781-0.499-0.781-1.518,0.076-2.055C203.371,157.544,204.186,157.536,205.492,157.218z"/>
		<path fill-rule="evenodd" d="M196.076,127.648c-1.121-0.187-1.939-0.129-2.537-0.47c-0.824-0.467-0.717-1.959,0.238-2.481
			c0.557-0.309,1.945-0.289,2.02-0.074C196.094,125.428,196.002,126.372,196.076,127.648z"/>
		<path fill-rule="evenodd" d="M214.514,189.342c-0.203,1.377-0.064,2.362-0.482,2.742c-0.455,0.421-1.422,0.278-2.166,0.38
			c0.008-0.728-0.24-1.626,0.1-2.132C212.277,189.859,213.219,189.806,214.514,189.342z"/>
		<path fill-rule="evenodd" d="M216.162,140.165c-0.539,0.904-0.775,1.823-1.268,1.986c-0.533,0.182-1.303-0.34-1.969-0.554
			c0.404-0.608,0.709-1.345,1.256-1.765C214.461,139.618,215.174,139.975,216.162,140.165z"/>
		<path fill-rule="evenodd" d="M183.424,142.136c1.066,0.308,2.096,0.304,2.426,0.785c0.309,0.449,0.113,1.787-0.291,2.043
			c-0.504,0.318-1.762,0.188-2.131-0.235C183.063,144.301,183.391,143.274,183.424,142.136z"/>
		<path fill-rule="evenodd" d="M215.803,150.128c-0.68,1.266-0.906,2.067-1.432,2.504c-0.287,0.242-1.27,0.066-1.613-0.267
			c-0.688-0.646-0.604-1.625,0.219-2.071C213.539,149.988,214.383,150.182,215.803,150.128z"/>
		<path fill-rule="evenodd" d="M222.059,154.77c0.395-1.117,0.453-2.082,0.941-2.415c0.451-0.305,1.367,0.072,2.076,0.146
			c-0.117,0.733,0.008,1.738-0.42,2.119C224.236,154.993,223.252,154.739,222.059,154.77z"/>
		<path fill-rule="evenodd" d="M206.252,146.847c-0.273,1.424-0.193,2.424-0.59,2.678c-0.465,0.297-1.4,0.07-2.016-0.198
			c-0.197-0.089-0.236-1.273,0.043-1.53C204.146,147.376,204.928,147.299,206.252,146.847z"/>
		<path fill-rule="evenodd" d="M224.371,182.094c-0.182,1.138-0.105,1.798-0.393,2.186c-0.568,0.768-1.471,0.833-2.076,0.09
			c-0.246-0.297-0.162-1.273,0.127-1.504C222.518,182.471,223.289,182.422,224.371,182.094z"/>
		<path fill-rule="evenodd" d="M117.467,164.429c-0.262,1.258-0.184,2.171-0.598,2.548c-0.475,0.435-1.443,0.646-2.092,0.494
			c-0.885-0.202-0.947-2.009-0.051-2.542C115.314,164.583,116.146,164.647,117.467,164.429z"/>
		<path fill-rule="evenodd" d="M106.523,175.473c-1.373-0.362-2.217-0.363-2.721-0.778c-0.621-0.509-1.068-1.521-0.074-2.053
			c0.578-0.303,1.682-0.27,2.166,0.103C106.332,173.08,106.242,174.091,106.523,175.473z"/>
		<path fill-rule="evenodd" d="M93.9,181.972c-0.23-1.338-0.236-2.598,1.594-2.554c0.967,0.026,1.463,0.791,1.26,1.708
			C96.34,183.031,95.086,182.464,93.9,181.972z"/>
		<path fill-rule="evenodd" d="M96.789,172.345c-1.119-0.108-2.002,0.034-2.613-0.311c-0.896-0.5-0.717-1.391-0.088-2.108
			c0.838-0.95,2.275-1.108,2.629-0.22C96.984,170.374,96.781,171.228,96.789,172.345z"/>
		<path fill-rule="evenodd" d="M87.045,176.46c-0.158,1.484,0.018,2.473-0.391,2.896c-0.41,0.427-1.547,0.604-2.107,0.34
			c-0.932-0.443-0.766-1.467-0.09-2.078C84.953,177.163,85.732,177.021,87.045,176.46z"/>
		<path fill-rule="evenodd" d="M107.563,161.744c-0.643,1.283-0.809,2.2-1.309,2.453c-0.512,0.257-1.35-0.142-2.043-0.249
			c0.211-0.682,0.23-1.58,0.689-1.971C105.311,161.625,106.197,161.829,107.563,161.744z"/>
		<path fill-rule="evenodd" d="M113.748,154.517c1.193,0.156,2.141,0.016,2.508,0.408c0.32,0.348,0.242,1.59-0.119,1.906
			c-0.436,0.378-1.549,0.475-2.012,0.164C113.748,156.74,113.895,155.706,113.748,154.517z"/>
		<path fill-rule="evenodd" d="M107.189,154.901c-1.332-0.23-2.1-0.191-2.627-0.525c-0.277-0.174-0.34-1.359-0.135-1.486
			c0.604-0.365,1.389-0.423,2.104-0.605C106.697,152.946,106.865,153.608,107.189,154.901z"/>
		<path fill-rule="evenodd" d="M97.32,159.524c-0.418,1.395-0.428,2.369-0.863,2.629c-0.463,0.275-1.371-0.048-1.986-0.319
			c-0.141-0.06-0.088-1.231,0.211-1.464C95.182,159.975,95.953,159.927,97.32,159.524z"/>
		<path fill-rule="evenodd" d="M87.242,167.048c0.002,0.77,0.219,1.494-0.043,1.789c-0.324,0.36-1.084,0.555-1.592,0.467
			c-0.707-0.12-0.863-1.545-0.199-1.939C85.836,167.104,86.461,167.167,87.242,167.048z"/>
		<path fill-rule="evenodd" d="M176.928,112.466c-1.199-0.217-2.023-0.183-2.629-0.526c-0.824-0.47-0.719-2,0.232-2.494
			c0.563-0.293,1.896-0.276,2.037,0.014C176.932,110.198,176.818,111.171,176.928,112.466z"/>
		<path fill-rule="evenodd" d="M187.604,112.113c-0.65,1.121-0.879,2.058-1.428,2.313c-0.59,0.275-1.668,0.163-2.191-0.234
			c-0.717-0.542-0.125-2.336,0.84-2.533C185.504,111.522,186.275,111.872,187.604,112.113z"/>
		<path fill-rule="evenodd" d="M197.445,104.225c-0.439,1.185-0.51,2.194-1,2.479c-0.525,0.306-1.449-0.07-2.195-0.146
			c0.121-0.759,0-1.786,0.443-2.202C195.109,103.974,196.133,104.249,197.445,104.225z"/>
		<path fill-rule="evenodd" d="M176.168,122.48c-0.979-0.244-1.977-0.295-2.031-0.55c-0.156-0.717,0.072-1.516,0.15-2.286
			c0.746,0.149,1.752,0.072,2.156,0.521C176.754,120.518,176.311,121.541,176.168,122.48z"/>
		<path fill-rule="evenodd" d="M187.488,91.271c-0.281,1.307-0.262,2.143-0.637,2.727c-0.59,0.92-2.148,0.842-2.518-0.155
			c-0.215-0.574,0.053-1.638,0.5-2.058C185.275,91.366,186.217,91.481,187.488,91.271z"/>
		<path fill-rule="evenodd" d="M165.115,106.14c1.105,0.543,2.094,0.72,2.264,1.188c0.201,0.561-0.111,1.739-0.561,1.98
			c-0.494,0.263-1.701-0.009-2.031-0.462C164.48,108.431,164.914,107.465,165.115,106.14z"/>
		<path fill-rule="evenodd" d="M167.158,116.183c-0.336,1.543-0.305,2.55-0.783,3.141c-0.25,0.311-1.4-0.112-2.146-0.202
			c0.096-0.739-0.035-1.637,0.348-2.162C164.887,116.534,165.813,116.551,167.158,116.183z"/>
		<path fill-rule="evenodd" d="M187.281,101.702c-0.57,0.914-0.834,1.847-1.338,2.003c-0.572,0.173-1.359-0.35-2.053-0.57
			c0.434-0.628,0.766-1.387,1.34-1.833C185.508,101.093,186.246,101.475,187.281,101.702z"/>
		<path fill-rule="evenodd" d="M177.227,98.83c-0.477,1.443-0.551,2.268-0.988,2.771c-0.281,0.324-1.104,0.18-1.686,0.246
			c-0.035-0.713-0.344-1.604-0.029-2.092C174.818,99.303,175.777,99.286,177.227,98.83z"/>
		<path fill-rule="evenodd" d="M146.826,90.028c2.441-1.548,3.6-0.825,4.379,0.632c0.938,1.755,1.084,3.725,0.191,5.469
			c-1.525,2.976-3.252,5.852-5.039,8.677c-0.33,0.523-1.338,0.613-2.65,1.158c0.107-1.363-0.033-2.201,0.264-2.839
			c0.703-1.511,1.5-3.007,2.455-4.37C148.389,95.957,149.08,93.122,146.826,90.028z"/>
		<path fill-rule="evenodd" d="M90.689,130.603c2.576,3.487,5.279,3.717,8.299,2.924c1.604-0.423,3.27-0.724,4.92-0.791
			c0.605-0.025,1.338,0.706,1.799,1.265c0.117,0.146-0.48,1.282-0.916,1.414c-3.811,1.138-7.688,2.03-11.693,1.466
			C90.521,136.518,89.977,135.35,90.689,130.603z"/>
	</g>
</g>
<g id="icon-cup">
</g>
<g id="icon-strawberry">
</g>
<g id="icon-key">
</g>
<g id="icon-wristwatch">
</g>
</svg>
