<?xml version="1.0" standalone="no"?>
<!DOCTYPE svg PUBLIC "-//W3C//DTD SVG 1.1//EN" "http://www.w3.org/Graphics/SVG/1.1/DTD/svg11.dtd" >
<svg xmlns="http://www.w3.org/2000/svg" xmlns:xlink="http://www.w3.org/1999/xlink" version="1.1">
<metadata>
Created by FontForge 20170924 at Thu Mar  6 21:12:53 2014
 By www-data
\251 2012, 2013, 2014 by Stawix Ruecha &#38; Foundry. All rights reserved.
</metadata>
<defs>
<font id="CriqueGrotesk-UlLight" horiz-adv-x="560" >
  <font-face 
    font-family="Crique Grotesk UlLight"
    font-weight="100"
    font-stretch="normal"
    units-per-em="1000"
    panose-1="2 11 3 3 2 2 2 2 2 4"
    ascent="800"
    descent="-200"
    x-height="500"
    cap-height="690"
    bbox="-62 -200 2186 896"
    underline-thickness="20"
    underline-position="-100"
    stemh="20"
    stemv="20"
    unicode-range="U+0020-FB02"
  />
<missing-glyph horiz-adv-x="492" 
d="M0 690h492v-690h-492v690zM246 389l168 252h-335zM414 49h-1l-167 252l-167 -252h335zM49 597v-503l168 251zM443 94v503l-168 -252z" />
    <glyph glyph-name="fi" unicode="fi" horiz-adv-x="421" 
d="M319 0v481h-188v-481h-19v481h-72v19h72v74c0 78 36 120 125 120c41 0 69 -7 88 -14v-20c-23 8 -52 14 -86 14c-79 0 -108 -32 -108 -100v-74h208v-500h-20z" />
    <glyph glyph-name="fl" unicode="fl" horiz-adv-x="423" 
d="M131 574v-74h117v-19h-117v-481h-19v481h-72v19h72v74c0 78 36 120 125 120c41 0 69 -7 102 -19v-675h-20v662c-22 7 -49 12 -80 12c-79 0 -108 -32 -108 -100z" />
    <glyph glyph-name=".notdef" horiz-adv-x="492" 
d="M0 690h492v-690h-492v690zM246 389l168 252h-335zM414 49h-1l-167 252l-167 -252h335zM49 597v-503l168 251zM443 94v503l-168 -252z" />
    <glyph glyph-name="space" unicode=" " horiz-adv-x="262" 
 />
    <glyph glyph-name="exclam" unicode="!" horiz-adv-x="192" 
d="M87 190l-3 500h24l-3 -500h-18zM85 0v94h22v-94h-22z" />
    <glyph glyph-name="quotedbl" unicode="&#x22;" horiz-adv-x="264" 
d="M70 690h24l-3 -225h-18zM170 690h24l-3 -225h-18z" />
    <glyph glyph-name="numbersign" unicode="#" 
d="M69 437v20h113l28 203h20l-28 -203h190l28 203h20l-28 -203h107v-20h-109l-28 -203h107v-20h-110l-29 -214h-20l29 214h-190l-29 -214h-20l29 214h-110v20h112l28 203h-110zM200 437l-28 -203h189l28 203h-189z" />
    <glyph glyph-name="dollar" unicode="$" 
d="M272 -110v100c-134 5 -220 71 -220 218h19c0 -141 89 -199 217 -199c120 0 196 44 196 159v2c0 98 -48 141 -159 157l-76 11c-116 18 -183 58 -183 165v2c0 126 88 165 206 166v99h20v-100c132 -5 199 -71 200 -195h-20c-3 125 -69 176 -197 176
c-106 0 -189 -30 -189 -146v-2c0 -97 55 -127 168 -144l76 -12c122 -18 174 -67 174 -177v-2c0 -126 -82 -178 -212 -179v-99h-20z" />
    <glyph glyph-name="percent" unicode="%" horiz-adv-x="712" 
d="M124 0l442 660h22l-442 -660h-22zM311 506v2c0 89 -34 139 -116 139s-116 -50 -116 -139v-2c0 -89 34 -139 116 -139s116 50 116 139zM60 506v2c0 100 42 158 135 158s135 -58 135 -158v-2c0 -100 -42 -158 -135 -158s-135 58 -135 158zM633 153v2c0 89 -34 139 -116 139
s-116 -50 -116 -139v-2c0 -89 34 -139 116 -139s116 50 116 139zM382 153v2c0 100 42 158 135 158s135 -58 135 -158v-2c0 -100 -42 -158 -135 -158s-135 58 -135 158z" />
    <glyph glyph-name="ampersand" unicode="&#x26;" horiz-adv-x="600" 
d="M368 267l16 11l190 -268l-16 -12l-90 127c-15 -69 -76 -137 -196 -137c-122 0 -214 70 -214 215v2c0 124 75 181 159 192v2c-45 13 -105 56 -105 148v2c0 83 52 153 178 153c150 0 180 -73 182 -180h-19c-4 101 -27 160 -163 160c-112 0 -158 -59 -158 -133v-2
c0 -76 58 -141 139 -141h266v-19h-265c-128 0 -193 -69 -193 -182v-2c0 -134 84 -195 194 -195c112 0 171 64 180 138z" />
    <glyph glyph-name="quoteright" unicode="&#x2019;" horiz-adv-x="154" 
d="M48 465l20 225h30l-37 -225h-13z" />
    <glyph glyph-name="parenleft" unicode="(" horiz-adv-x="240" 
d="M90 281c0 -159 41 -317 124 -439h-18c-86 132 -128 261 -128 439s42 307 128 439h18c-83 -122 -124 -280 -124 -439z" />
    <glyph glyph-name="parenright" unicode=")" horiz-adv-x="240" 
d="M150 281c0 159 -41 317 -124 439h18c86 -132 128 -261 128 -439s-42 -307 -128 -439h-18c83 122 124 280 124 439z" />
    <glyph glyph-name="asterisk" unicode="*" horiz-adv-x="358" 
d="M169 690h20l-2 -131l125 43l6 -19l-129 -41l90 -105l-16 -13l-84 106l-84 -106l-16 13l90 105l-129 41l6 19l125 -43z" />
    <glyph glyph-name="plus" unicode="+" horiz-adv-x="540" 
d="M50 261h210v210h20v-210h210v-20h-210v-210h-20v210h-210v20z" />
    <glyph glyph-name="comma" unicode="," horiz-adv-x="146" 
d="M62 -108v202h30l-17 -202h-13z" />
    <glyph glyph-name="hyphen" unicode="-" horiz-adv-x="320" 
d="M50 311h220v-20h-220v20z" />
    <glyph glyph-name="period" unicode="." horiz-adv-x="146" 
d="M62 0v94h22v-94h-22z" />
    <glyph glyph-name="slash" unicode="/" horiz-adv-x="314" 
d="M31 -30h-21l275 750h19z" />
    <glyph glyph-name="zero" unicode="0" horiz-adv-x="584" 
d="M50 329v2c0 193 56 340 242 340s242 -147 242 -340v-2c0 -193 -56 -340 -242 -340s-242 147 -242 340zM513 329v2c0 182 -56 320 -221 320s-221 -138 -221 -320v-2c0 -182 56 -320 221 -320s221 138 221 320z" />
    <glyph glyph-name="one" unicode="1" horiz-adv-x="292" 
d="M152 0v636c-29 -20 -76 -44 -132 -46v19c46 2 99 26 136 53h16v-662h-20z" />
    <glyph glyph-name="two" unicode="2" horiz-adv-x="544" 
d="M80 20h404v-20h-424v20c0 204 390 263 390 466v2c0 115 -56 163 -182 163c-138 0 -181 -61 -181 -185h-19c0 135 51 205 200 205c137 0 202 -57 202 -183v-2c0 -216 -390 -275 -390 -466z" />
    <glyph glyph-name="three" unicode="3" horiz-adv-x="538" 
d="M273 9c127 0 199 56 199 171v2c0 100 -72 161 -175 161h-74v20h74c89 0 154 51 154 140v2c0 109 -72 146 -184 146c-138 0 -194 -61 -194 -185h-19c0 135 64 205 213 205c123 0 204 -46 204 -166v-2c0 -99 -61 -139 -124 -149v-2c72 -9 145 -65 145 -170v-2
c0 -126 -81 -191 -219 -191c-161 0 -229 70 -229 205v12h19v-12c0 -124 60 -185 210 -185z" />
    <glyph glyph-name="four" unicode="4" horiz-adv-x="526" 
d="M394 187v455h-3l-329 -455h332zM394 167h-354v22l342 473h32v-475h94v-20h-94v-167h-20v167z" />
    <glyph glyph-name="five" unicode="5" horiz-adv-x="540" 
d="M452 640h-327l-37 -297h2c41 48 108 74 190 74c133 0 208 -69 208 -207v-2c0 -140 -69 -219 -221 -219c-155 0 -213 82 -213 212h20c0 -119 49 -192 193 -192c141 0 201 70 201 199v2c0 127 -66 187 -188 187c-83 0 -153 -31 -190 -80h-26l44 343h344v-20z" />
    <glyph glyph-name="six" unicode="6" horiz-adv-x="550" 
d="M73 293h2c41 70 131 124 222 124c128 0 203 -72 203 -209v-2c0 -130 -80 -217 -213 -217c-161 0 -235 108 -235 314v2c0 220 48 366 230 366c136 -1 192 -70 199 -173h-19c-8 92 -56 153 -181 153c-170 0 -208 -140 -208 -358zM295 397c-87 0 -182 -59 -221 -136
c8 -167 73 -252 213 -252c122 0 192 78 192 197v2c0 125 -65 189 -184 189z" />
    <glyph glyph-name="seven" unicode="7" horiz-adv-x="480" 
d="M417 640h-377v20h400v-20c-139 -198 -229 -400 -271 -640h-20c40 237 130 444 268 640z" />
    <glyph glyph-name="eight" unicode="8" horiz-adv-x="554" 
d="M277 9c133 0 210 55 210 167v2c0 99 -78 165 -210 165s-210 -66 -210 -165v-2c0 -112 77 -167 210 -167zM277 671c124 0 213 -45 213 -163v-2c0 -95 -84 -147 -148 -152v-2c97 -8 166 -81 166 -174v-2c0 -123 -87 -187 -231 -187s-231 64 -231 187v2c0 93 69 166 166 174
v2c-64 5 -148 57 -148 152v2c0 118 89 163 213 163zM277 363c116 0 192 54 192 143v2c0 108 -79 143 -192 143s-192 -35 -192 -143v-2c0 -89 76 -143 192 -143z" />
    <glyph glyph-name="nine" unicode="9" horiz-adv-x="550" 
d="M477 367h-2c-41 -70 -131 -124 -222 -124c-128 0 -203 72 -203 209v2c0 130 80 217 213 217c161 0 235 -108 235 -314v-2c0 -220 -48 -366 -230 -366c-136 1 -192 70 -199 173h19c8 -92 56 -153 181 -153c170 0 208 140 208 358zM255 263c87 0 182 59 221 136
c-8 167 -73 252 -213 252c-122 0 -192 -78 -192 -197v-2c0 -125 65 -189 184 -189z" />
    <glyph glyph-name="colon" unicode=":" horiz-adv-x="186" 
d="M82 0v94h22v-94h-22zM82 406v94h22v-94h-22z" />
    <glyph glyph-name="semicolon" unicode=";" horiz-adv-x="186" 
d="M82 406v94h22v-94h-22zM78 -108v202h30l-17 -202h-13z" />
    <glyph glyph-name="less" unicode="&#x3c;" horiz-adv-x="540" 
d="M74 260l346 230v-21l-324 -216l324 -216v-21l-346 230v14z" />
    <glyph glyph-name="equal" unicode="=" horiz-adv-x="540" 
d="M50 351h440v-20h-440v20zM50 171h440v-20h-440v20z" />
    <glyph glyph-name="greater" unicode="&#x3e;" horiz-adv-x="540" 
d="M120 490l346 -230v-14l-346 -230v21l324 216l-324 216v21z" />
    <glyph glyph-name="question" unicode="?" horiz-adv-x="524" 
d="M259 682c-143 0 -190 -61 -190 -185h-19c0 135 55 205 209 205c133 0 207 -58 207 -178v-2c0 -122 -110 -199 -193 -219v-113h-20l-5 127c90 19 198 93 198 205v2c0 109 -65 158 -187 158zM251 0v94h22v-94h-22z" />
    <glyph glyph-name="at" unicode="@" horiz-adv-x="808" 
d="M748 252v-2c0 -224 -117 -356 -344 -356s-344 132 -344 356v2c0 224 117 356 344 356s344 -132 344 -356zM728 250v2c0 212 -115 336 -324 336s-324 -124 -324 -336v-2c0 -212 115 -336 324 -336s324 124 324 336zM547 357h1v89h20v-390h-19l-1 90h-1
c-19 -55 -75 -98 -154 -98c-112 0 -168 76 -168 202v2c0 126 56 202 169 202c82 0 135 -49 153 -97zM548 220v63c0 89 -64 151 -155 151c-101 0 -148 -67 -148 -182v-2c0 -115 47 -182 148 -182c89 0 155 57 155 152z" />
    <glyph glyph-name="A" unicode="A" horiz-adv-x="584" 
d="M303 690l259 -690h-23l-79 214h-336l-79 -214h-23l259 690h22zM453 234l-160 427h-2l-160 -427h322z" />
    <glyph glyph-name="B" unicode="B" horiz-adv-x="594" 
d="M104 344v-324h226c132 0 200 51 200 166v2c0 104 -76 156 -185 156h-241zM84 0v690h243c138 0 205 -57 205 -174v-2c0 -96 -65 -148 -133 -159v-2c77 -5 151 -56 151 -165v-2c0 -126 -77 -186 -220 -186h-246zM104 670v-306h241c104 0 167 62 167 150v2
c0 106 -58 154 -185 154h-223z" />
    <glyph glyph-name="D" unicode="D" horiz-adv-x="642" 
d="M104 20h176c184 0 281 100 281 324v2c0 224 -89 324 -273 324h-184v-650zM280 0h-196v690h204c197 0 294 -107 294 -344v-2c0 -237 -105 -344 -302 -344z" />
    <glyph glyph-name="E" unicode="E" horiz-adv-x="556" 
d="M500 690v-20h-396v-306h364v-20h-364v-324h400v-20h-420v690h416z" />
    <glyph glyph-name="F" unicode="F" horiz-adv-x="512" 
d="M474 690v-20h-370v-306h331v-20h-331v-344h-20v690h390z" />
    <glyph glyph-name="H" unicode="H" horiz-adv-x="640" 
d="M536 364v326h20v-690h-20v344h-432v-344h-20v690h20v-326h432z" />
    <glyph glyph-name="I" unicode="I" horiz-adv-x="194" 
d="M87 0v690h20v-690h-20z" />
    <glyph glyph-name="J" unicode="J" horiz-adv-x="476" 
d="M48 211v-25c0 -121 38 -178 160 -178c128 0 170 57 170 178v504h20v-504c0 -132 -51 -198 -190 -198c-133 0 -180 66 -180 198v25h20z" />
    <glyph glyph-name="K" unicode="K" horiz-adv-x="580" 
d="M547 690l-330 -323l339 -367h-27l-327 353l-98 -96v-257h-20v690h20v-406l415 406h28z" />
    <glyph glyph-name="L" unicode="L" horiz-adv-x="472" 
d="M440 20v-20h-356v690h20v-670h336z" />
    <glyph glyph-name="M" unicode="M" horiz-adv-x="770" 
d="M664 660l-268 -448h-22l-268 448h-2v-660h-20v690h26l275 -460l275 460h26v-690h-20v660h-2z" />
    <glyph glyph-name="N" unicode="N" horiz-adv-x="650" 
d="M566 690v-690h-28l-432 664h-2v-664h-20v690h28l432 -664h2v664h20z" />
    <glyph glyph-name="O" unicode="O" horiz-adv-x="682" 
d="M341 702c197 0 281 -111 281 -356v-2c0 -245 -84 -356 -281 -356s-281 111 -281 356v2c0 245 84 356 281 356zM341 8c184 0 260 104 260 336v2c0 232 -76 336 -260 336s-260 -104 -260 -336v-2c0 -232 76 -336 260 -336z" />
    <glyph glyph-name="P" unicode="P" horiz-adv-x="586" 
d="M104 310h203c152 0 205 46 205 179v2c0 133 -53 179 -205 179h-203v-360zM104 290v-290h-20v690h223c163 0 225 -55 225 -199v-2c0 -144 -62 -199 -225 -199h-203z" />
    <glyph glyph-name="Q" unicode="Q" horiz-adv-x="687" 
d="M592 -89l-263 60c-197 45 -269 133 -269 373v2c0 245 84 356 281 356s281 -111 281 -356v-2c0 -251 -91 -359 -292 -353v-4l262 -55v-21zM341 8c182 0 260 104 260 336v2c0 232 -76 336 -260 336s-260 -104 -260 -336v-2c0 -232 82 -336 260 -336z" />
    <glyph glyph-name="R" unicode="R" horiz-adv-x="610" 
d="M104 290v-290h-20v690h235c163 0 225 -55 225 -199v-2c0 -138 -57 -194 -205 -199l215 -290h-23l-214 290h-213zM104 310h215c152 0 205 46 205 179v2c0 133 -53 179 -205 179h-215v-360z" />
    <glyph glyph-name="S" unicode="S" horiz-adv-x="602" 
d="M348 342l-79 12c-122 18 -198 60 -198 172v2c0 134 96 174 225 174c155 0 232 -69 233 -205h-19c-4 131 -76 185 -214 185c-115 0 -205 -32 -205 -154v-2c0 -101 65 -134 183 -152l79 -12c128 -19 193 -72 193 -184v-2c0 -134 -93 -188 -237 -188
c-153 0 -257 69 -257 229h19c0 -147 100 -209 238 -209c130 0 217 47 217 168v2c0 102 -61 147 -178 164z" />
    <glyph glyph-name="T" unicode="T" horiz-adv-x="512" 
d="M490 690v-20h-224v-670h-20v670h-224v20h468z" />
    <glyph glyph-name="U" unicode="U" horiz-adv-x="616" 
d="M308 -12c-159 0 -232 72 -232 249v453h20v-453c0 -166 64 -229 212 -229s212 63 212 229v453h20v-453c0 -177 -73 -249 -232 -249z" />
    <glyph glyph-name="V" unicode="V" horiz-adv-x="580" 
d="M291 30l242 660h23l-255 -690h-22l-255 690h23l242 -660h2z" />
    <glyph glyph-name="W" unicode="W" horiz-adv-x="878" 
d="M632 0l-192 655h-2l-192 -655h-21l-195 690h21l183 -654h2l193 654h21l192 -654h2l183 654h21l-195 -690h-21z" />
    <glyph glyph-name="X" unicode="X" horiz-adv-x="554" 
d="M527 690l-237 -336l250 -354h-25l-238 337l-238 -337h-25l250 354l-237 336h25l225 -319l225 319h25z" />
    <glyph glyph-name="Y" unicode="Y" horiz-adv-x="556" 
d="M278 307l240 383h24l-254 -406v-284h-20v284l-254 406h24z" />
    <glyph glyph-name="Z" unicode="Z" horiz-adv-x="534" 
d="M55 20h447v-20h-472v20l438 650h-420v20h445v-20z" />
    <glyph glyph-name="bracketleft" unicode="[" horiz-adv-x="240" 
d="M96 720h116v-20h-96v-838h96v-20h-116v878z" />
    <glyph glyph-name="backslash" unicode="\" horiz-adv-x="314" 
d="M304 -30h-21l-273 750h19z" />
    <glyph glyph-name="bracketright" unicode="]" horiz-adv-x="240" 
d="M28 720h116v-878h-116v20h96v838h-96v20z" />
    <glyph glyph-name="quoteleft" unicode="&#x2018;" horiz-adv-x="154" 
d="M106 690l-20 -225h-30l37 225h13z" />
    <glyph glyph-name="b" unicode="b" 
d="M102 384h2c21 64 86 126 189 126c146 0 210 -97 210 -259v-2c0 -162 -64 -259 -209 -259c-98 0 -167 55 -190 126h-2l-1 -116h-19v690h20v-306zM102 297v-94c0 -115 79 -193 192 -193c132 0 188 88 188 239v2c0 151 -56 239 -188 239c-115 0 -192 -85 -192 -193z" />
    <glyph glyph-name="d" unicode="d" 
d="M456 384h2v306h20v-690h-19l-1 116h-2c-23 -71 -92 -126 -190 -126c-145 0 -209 97 -209 259v2c0 162 64 259 210 259c103 0 168 -62 189 -126zM458 203v94c0 108 -77 193 -192 193c-132 0 -188 -88 -188 -239v-2c0 -151 56 -239 188 -239c113 0 192 78 192 193z" />
    <glyph glyph-name="e" unicode="e" horiz-adv-x="521" 
d="M285 10c50 0 112 11 159 27v-19c-43 -16 -110 -28 -160 -28c-170 0 -227 100 -227 259v2c0 164 62 259 212 259c149 0 200 -87 200 -245v-25h-391c2 -142 48 -230 207 -230zM269 490c-135 0 -189 -83 -191 -231h371c0 156 -42 231 -180 231z" />
    <glyph glyph-name="f" unicode="f" horiz-adv-x="276" 
d="M131 500h137v-19h-137v-481h-19v481h-72v19h72v84c0 78 29 110 98 110c21 0 51 -3 68 -9v-20c-20 6 -44 9 -66 9c-59 0 -81 -22 -81 -90v-84z" />
    <glyph glyph-name="g" unicode="g" horiz-adv-x="552" 
d="M452 217v80c0 108 -78 193 -189 193c-127 0 -185 -85 -185 -232v-2c0 -147 58 -232 185 -232c109 0 189 78 189 193zM269 -156c102 0 183 45 183 156v130h-2c-23 -71 -93 -126 -187 -126c-140 0 -206 94 -206 252v2c0 158 66 252 207 252c99 0 165 -62 186 -126h2l1 116
h19v-500c0 -122 -87 -176 -202 -176c-61 0 -126 12 -169 30v19c47 -18 106 -29 168 -29z" />
    <glyph glyph-name="h" unicode="h" horiz-adv-x="532" 
d="M82 0v690h20v-306h2c23 73 99 126 195 126c102 0 159 -50 159 -176v-334h-20v334c0 115 -50 156 -140 156c-111 0 -196 -76 -196 -193v-297h-20z" />
    <glyph glyph-name="i" unicode="i" horiz-adv-x="184" 
d="M82 0v500h20v-500h-20zM82 596v94h20v-94h-20z" />
    <glyph glyph-name="j" unicode="j" horiz-adv-x="188" 
d="M84 -62v562h20v-562c0 -78 -29 -114 -98 -114c-21 0 -51 3 -68 9v20c20 -6 44 -9 66 -9c59 0 80 27 80 94zM84 596v94h20v-94h-20z" />
    <glyph glyph-name="k" unicode="k" horiz-adv-x="470" 
d="M82 0v690h20v-454l301 264h29l-251 -220l271 -280h-25l-260 267l-65 -57v-210h-20z" />
    <glyph glyph-name="l" unicode="l" horiz-adv-x="188" 
d="M84 0v690h20v-690h-20z" />
    <glyph glyph-name="m" unicode="m" horiz-adv-x="794" 
d="M410 313v-313h-20v320c0 121 -31 170 -114 170c-95 0 -176 -76 -176 -193v-297h-20v500h19l1 -116h2c17 62 84 126 174 126c75 0 115 -38 129 -119h2c16 64 77 119 172 119c99 0 141 -58 141 -190v-320h-20v320c0 121 -35 170 -122 170c-92 0 -168 -60 -168 -177z" />
    <glyph glyph-name="n" unicode="n" horiz-adv-x="530" 
d="M80 0v500h19l1 -116h2c23 73 99 126 195 126c102 0 159 -50 159 -176v-334h-20v334c0 115 -50 156 -140 156c-111 0 -196 -76 -196 -193v-297h-20z" />
    <glyph glyph-name="o" unicode="o" horiz-adv-x="548" 
d="M274 10c140 0 196 86 196 239v2c0 153 -56 239 -196 239s-196 -86 -196 -239v-2c0 -153 56 -239 196 -239zM274 510c153 0 217 -95 217 -259v-2c0 -164 -64 -259 -217 -259s-217 95 -217 259v2c0 164 64 259 217 259z" />
    <glyph glyph-name="p" unicode="p" horiz-adv-x="558" 
d="M102 116h-2v-286h-20v670h19l1 -116h2c23 71 91 126 189 126c145 0 210 -97 210 -259v-2c0 -162 -62 -259 -208 -259c-103 0 -170 62 -191 126zM100 297v-94c0 -108 79 -193 194 -193c132 0 186 88 186 239v2c0 151 -57 239 -189 239c-113 0 -191 -78 -191 -193z" />
    <glyph glyph-name="q" unicode="q" horiz-adv-x="558" 
d="M458 116h-2c-21 -64 -88 -126 -191 -126c-146 0 -208 97 -208 259v2c0 162 65 259 210 259c98 0 166 -55 189 -126h2l1 116h19v-670h-20v286zM458 203v94c0 115 -78 193 -191 193c-132 0 -189 -88 -189 -239v-2c0 -151 54 -239 186 -239c115 0 194 85 194 193z" />
    <glyph glyph-name="r" unicode="r" horiz-adv-x="308" 
d="M80 0v500h19l1 -116h2c23 73 98 126 192 126v-20c-109 0 -194 -76 -194 -193v-297h-20z" />
    <glyph glyph-name="s" unicode="s" horiz-adv-x="498" 
d="M249 10c117 0 175 35 175 116v2c0 69 -41 98 -141 112l-58 8c-106 15 -154 45 -154 129v2c0 79 56 131 175 131c129 0 183 -59 185 -155h-19c-4 88 -50 135 -166 135c-105 0 -155 -42 -155 -111v-2c0 -72 39 -96 136 -109l58 -8c107 -15 159 -50 159 -132v-2
c0 -90 -64 -136 -195 -136c-132 0 -195 62 -197 157h19c4 -86 59 -137 178 -137z" />
    <glyph glyph-name="t" unicode="t" horiz-adv-x="310" 
d="M278 481h-153v-379c0 -66 31 -88 90 -88c22 0 47 4 67 9v-20c-16 -5 -48 -9 -69 -9c-69 0 -107 28 -107 106v381h-72v19h72l2 144h17v-144h153v-19z" />
    <glyph glyph-name="v" unicode="v" horiz-adv-x="472" 
d="M248 0h-24l-204 500h23l192 -474h2l192 474h23z" />
    <glyph glyph-name="w" unicode="w" horiz-adv-x="708" 
d="M198 0h-20l-152 500h20l141 -468h2l155 468h20l155 -468h2l141 468h20l-152 -500h-20l-155 471h-2z" />
    <glyph glyph-name="x" unicode="x" horiz-adv-x="458" 
d="M427 500l-186 -244l195 -256h-24l-182 240l-184 -240h-24l195 255l-186 245h24l173 -229l175 229h24z" />
    <glyph glyph-name="y" unicode="y" horiz-adv-x="472" 
d="M200 -66l28 70l-208 496h23l194 -468h2l190 468h23l-234 -574c-29 -73 -59 -102 -118 -102c-23 0 -41 4 -52 8v19c12 -4 30 -7 50 -7c49 0 75 24 102 90z" />
    <glyph glyph-name="z" unicode="z" horiz-adv-x="468" 
d="M68 19h356v-19h-380v19l346 462h-328v19h352v-19z" />
    <glyph glyph-name="braceleft" unicode="{" horiz-adv-x="240" 
d="M14 271v20h12c68 0 86 86 86 150v137c0 84 20 142 79 142h33v-20h-33c-48 0 -59 -49 -59 -122v-137c0 -77 -21 -141 -68 -160c47 -19 68 -83 68 -160v-137c0 -73 11 -122 59 -122h33v-20h-33c-59 0 -79 58 -79 142v137c0 64 -18 150 -86 150h-12z" />
    <glyph glyph-name="bar" unicode="|" horiz-adv-x="200" 
d="M90 -170v960h20v-960h-20z" />
    <glyph glyph-name="braceright" unicode="}" horiz-adv-x="240" 
d="M226 291v-20h-12c-68 0 -86 -86 -86 -150v-137c0 -84 -20 -142 -79 -142h-33v20h33c48 0 59 49 59 122v137c0 77 21 141 68 160c-47 19 -68 83 -68 160v137c0 73 -11 122 -59 122h-33v20h33c59 0 79 -58 79 -142v-137c0 -64 18 -150 86 -150h12z" />
    <glyph glyph-name="exclamdown" unicode="&#xa1;" horiz-adv-x="192" 
d="M105 500l3 -500h-24l3 500h18zM107 690v-94h-22v94h22z" />
    <glyph glyph-name="cent" unicode="&#xa2;" 
d="M293 -110v100c-151 3 -217 97 -217 259v2c0 162 66 256 217 259v100h20v-101c114 -4 175 -63 177 -156h-19c-4 88 -62 137 -172 137c-142 0 -202 -86 -202 -239v-2c0 -154 61 -239 204 -239c112 0 172 53 176 139h19c-2 -92 -66 -155 -183 -159v-100h-20z" />
    <glyph glyph-name="sterling" unicode="&#xa3;" 
d="M52 344v20h61c-13 40 -21 84 -21 128v2c0 103 42 177 196 177c123 0 175 -60 177 -157h-19c-4 88 -48 137 -158 137c-141 0 -176 -65 -176 -157v-2c0 -42 9 -86 22 -128h211v-20h-205c22 -59 53 -113 90 -148l-110 -143c-15 -19 -24 -28 -36 -33h284c98 0 124 46 124 126
h20c0 -91 -35 -146 -142 -146h-342v20h12c25 0 34 6 62 42l104 135c-29 30 -63 84 -86 147h-68z" />
    <glyph glyph-name="yen" unicode="&#xa5;" 
d="M110 322v20h123l-217 348h24l240 -383l240 383h24l-218 -348h124v-20h-136l-24 -38v-62h160v-20h-160v-202h-20v202h-160v20h160v62l-24 38h-136z" />
    <glyph glyph-name="florin" unicode="&#x192;" 
d="M213 -62l47 500h-92l2 19h92l7 78c9 98 52 136 121 136c21 0 51 -3 67 -9l-2 -20c-19 6 -43 9 -65 9c-59 0 -94 -28 -102 -116l-7 -78h147l-2 -19h-147l-46 -500c-7 -78 -40 -114 -109 -114c-21 0 -51 3 -67 9l2 20c19 -6 43 -9 65 -9c59 0 83 27 89 94z" />
    <glyph glyph-name="section" unicode="&#xa7;" 
d="M466 -31v-2c0 -99 -69 -149 -184 -149c-124 0 -204 58 -204 182h19c0 -113 72 -162 185 -162c92 0 164 36 164 129v2c0 69 -36 101 -159 142l-55 18c-114 38 -168 85 -168 172v2c0 69 41 121 99 143c-43 24 -73 57 -73 112v2c0 105 89 143 183 143
c129 0 189 -64 190 -179h-20c-2 102 -52 159 -170 159c-84 0 -163 -31 -163 -123v-2c0 -78 89 -110 176 -138l55 -18c117 -38 153 -93 153 -173v-2c0 -71 -55 -121 -102 -137c54 -31 74 -67 74 -121zM84 303v-2c1 -75 47 -117 153 -152l55 -18c31 -10 58 -20 80 -31
c49 16 102 62 102 127v2c0 69 -30 116 -138 153l-55 18c-32 10 -67 21 -98 36c-55 -17 -99 -67 -99 -133z" />
    <glyph glyph-name="currency" unicode="&#xa4;" horiz-adv-x="598" 
d="M82 339v2c0 68 12 123 40 163l-69 69l14 14l67 -68c35 40 89 61 165 61s130 -21 165 -61l68 68l14 -14l-70 -70c27 -39 40 -94 40 -162v-2c0 -68 -13 -123 -40 -162l70 -69l-14 -14l-68 67c-35 -40 -89 -61 -165 -61s-130 21 -165 61l-67 -67l-14 14l68 68
c-27 40 -39 95 -39 163zM495 339v2c0 143 -56 219 -196 219s-196 -76 -196 -219v-2c0 -143 56 -219 196 -219s196 76 196 219z" />
    <glyph glyph-name="quotesingle" unicode="'" horiz-adv-x="176" 
d="M76 690h24l-3 -225h-18z" />
    <glyph glyph-name="quotedblleft" unicode="&#x201c;" horiz-adv-x="260" 
d="M104 690l-20 -225h-30l37 225h13zM212 690l-20 -225h-30l37 225h13z" />
    <glyph glyph-name="guillemotleft" unicode="&#xab;" horiz-adv-x="386" 
d="M50 250l126 169h22l-126 -169l126 -169h-22zM178 250l126 169h22l-126 -169l126 -169h-22z" />
    <glyph glyph-name="guilsinglleft" unicode="&#x2039;" horiz-adv-x="258" 
d="M50 250l126 169h22l-126 -169l126 -169h-22z" />
    <glyph glyph-name="guilsinglright" unicode="&#x203a;" horiz-adv-x="258" 
d="M82 419l126 -169l-126 -169h-22l126 169l-126 169h22z" />
    <glyph glyph-name="endash" unicode="&#x2013;" horiz-adv-x="450" 
d="M40 311h370v-20h-370v20z" />
    <glyph glyph-name="dagger" unicode="&#x2020;" horiz-adv-x="444" 
d="M212 690h20v-178h162v-19h-162v-651h-20v651h-162v19h162v178z" />
    <glyph glyph-name="daggerdbl" unicode="&#x2021;" horiz-adv-x="444" 
d="M212 690h20v-178h162v-19h-162v-454h162v-19h-162v-178h-20v178h-162v19h162v454h-162v19h162v178z" />
    <glyph glyph-name="periodcentered" unicode="&#xb7;" horiz-adv-x="232" 
d="M90 319v52h52v-52h-52z" />
    <glyph glyph-name="paragraph" unicode="&#xb6;" horiz-adv-x="493" 
d="M282 690h179v-20h-116v-827h-20v409c-157 0 -259 59 -259 218v2c0 154 90 218 216 218z" />
    <glyph glyph-name="bullet" unicode="&#x2022;" horiz-adv-x="456" 
d="M228 197c-97 0 -148 48 -148 148s51 148 148 148s148 -48 148 -148s-51 -148 -148 -148z" />
    <glyph glyph-name="quotesinglbase" unicode="&#x201a;" horiz-adv-x="156" 
d="M50 -131l20 225h30l-37 -225h-13z" />
    <glyph glyph-name="quotedblbase" unicode="&#x201e;" horiz-adv-x="260" 
d="M156 -131l20 225h30l-37 -225h-13zM48 -131l20 225h30l-37 -225h-13z" />
    <glyph glyph-name="quotedblright" unicode="&#x201d;" horiz-adv-x="260" 
d="M156 465l20 225h30l-37 -225h-13zM48 465l20 225h30l-37 -225h-13z" />
    <glyph glyph-name="guillemotright" unicode="&#xbb;" horiz-adv-x="386" 
d="M82 419l126 -169l-126 -169h-22l126 169l-126 169h22zM210 419l126 -169l-126 -169h-22l126 169l-126 169h22z" />
    <glyph glyph-name="perthousand" unicode="&#x2030;" horiz-adv-x="1050" 
d="M124 0l442 660h22l-442 -660h-22zM311 506v2c0 89 -34 139 -116 139s-116 -50 -116 -139v-2c0 -89 34 -139 116 -139s116 50 116 139zM60 506v2c0 100 42 158 135 158s135 -58 135 -158v-2c0 -100 -42 -158 -135 -158s-135 58 -135 158zM633 153v2c0 89 -34 139 -116 139
s-116 -50 -116 -139v-2c0 -89 34 -139 116 -139s116 50 116 139zM382 153v2c0 100 42 158 135 158s135 -58 135 -158v-2c0 -100 -42 -158 -135 -158s-135 58 -135 158zM973 153v2c0 89 -34 139 -116 139s-116 -50 -116 -139v-2c0 -89 34 -139 116 -139s116 50 116 139z
M722 153v2c0 100 42 158 135 158s135 -58 135 -158v-2c0 -100 -42 -158 -135 -158s-135 58 -135 158z" />
    <glyph glyph-name="questiondown" unicode="&#xbf;" horiz-adv-x="524" 
d="M265 8c143 0 190 61 190 185h19c0 -135 -55 -205 -209 -205c-133 0 -207 58 -207 178v2c0 122 110 199 193 219v113h20l5 -127c-90 -19 -198 -93 -198 -205v-2c0 -109 65 -158 187 -158zM273 690v-94h-22v94h22z" />
    <glyph glyph-name="acute" unicode="&#xb4;" horiz-adv-x="224" 
d="M174 686l-105 -126h-19l90 126h34z" />
    <glyph glyph-name="circumflex" unicode="&#x2c6;" horiz-adv-x="224" 
d="M112 665l-88 -105h-19l96 126h22l96 -126h-19z" />
    <glyph glyph-name="tilde" unicode="&#x2dc;" horiz-adv-x="224" 
d="M2 574h-20c0 49 16 88 65 88c54 0 85 -68 131 -68c33 0 44 25 44 67h20c0 -49 -16 -88 -65 -88c-54 0 -85 68 -131 68c-33 0 -44 -25 -44 -67z" />
    <glyph glyph-name="macron" unicode="&#xaf;" horiz-adv-x="224" 
d="M232 621v-18h-240v18h240z" />
    <glyph glyph-name="breve" unicode="&#x2d8;" horiz-adv-x="224" 
d="M112 590c66 0 93 31 97 89h18c-4 -71 -43 -109 -115 -109s-111 38 -115 109h18c4 -57 31 -89 97 -89z" />
    <glyph glyph-name="dotaccent" unicode="&#x2d9;" horiz-adv-x="224" 
d="M102 570v94h20v-94h-20z" />
    <glyph glyph-name="hungarumlaut" unicode="&#x2dd;" horiz-adv-x="224" 
d="M150 686l-94 -126h-18l78 126h34zM280 686l-94 -126h-18l78 126h34z" />
    <glyph glyph-name="caron" unicode="&#x2c7;" horiz-adv-x="224" 
d="M24 686l88 -105l88 105h19l-96 -126h-22l-96 126h19z" />
    <glyph glyph-name="emdash" unicode="&#x2014;" horiz-adv-x="700" 
d="M40 311h620v-20h-620v20z" />
    <glyph glyph-name="AE" unicode="&#xc6;" horiz-adv-x="886" 
d="M830 690v-20h-351v-306h319v-20h-319v-324h355v-20h-375v240h-277l-140 -240h-26l405 690h409zM193 260h266v410h-27z" />
    <glyph glyph-name="ordfeminine" unicode="&#xaa;" horiz-adv-x="378" 
d="M305 474v53l-114 -11c-77 -7 -138 -22 -138 -93v-1c0 -57 41 -80 93 -80c87 0 159 57 159 132zM71 586h-18c1 72 46 114 139 114c100 0 132 -49 132 -116v-254h-18l-1 79h-2c-20 -43 -75 -86 -158 -86c-62 0 -111 31 -111 99v1c0 82 73 105 154 112l117 11v38
c0 56 -24 97 -113 97c-82 0 -118 -30 -121 -95z" />
    <glyph glyph-name="Lslash" unicode="&#x141;" horiz-adv-x="474" 
d="M279 451v-21l-173 -110v-300h336v-20h-356v308l-70 -44v21l70 44v361h20v-349z" />
    <glyph glyph-name="Oslash" unicode="&#xd8;" horiz-adv-x="682" 
d="M79 24l43 55c-43 59 -62 146 -62 265v2c0 245 84 356 281 356c93 0 161 -25 206 -77l43 55l13 -14l-44 -56c43 -59 63 -146 63 -264v-2c0 -245 -84 -356 -281 -356c-93 0 -161 24 -207 76l-42 -54zM81 344c0 -111 17 -192 55 -247l398 511c-42 50 -105 74 -193 74
c-184 0 -260 -104 -260 -336v-2zM341 8c184 0 260 104 260 336v2c0 110 -18 191 -55 246l-398 -511c42 -50 105 -73 193 -73z" />
    <glyph glyph-name="OE" unicode="&#x152;" horiz-adv-x="924" 
d="M868 690v-20h-350v-306h318v-20h-318v-324h354v-20h-504c-197 0 -308 107 -308 344v2c0 237 103 344 300 344h508zM368 20h130v650h-138c-184 0 -279 -100 -279 -324v-2c0 -224 103 -324 287 -324z" />
    <glyph glyph-name="ordmasculine" unicode="&#xba;" horiz-adv-x="406" 
d="M203 342c100 0 140 61 140 169v1c0 108 -40 169 -140 169s-140 -61 -140 -169v-1c0 -108 40 -169 140 -169zM203 700c111 0 159 -69 159 -188v-1c0 -119 -48 -188 -159 -188s-159 69 -159 188v1c0 119 48 188 159 188z" />
    <glyph glyph-name="ae" unicode="&#xe6;" horiz-adv-x="880" 
d="M95 353h-19c2 99 68 157 196 157c125 0 170 -59 175 -145h2c12 84 71 145 186 145c145 0 193 -87 193 -245v-25h-377c2 -142 45 -230 200 -230c46 0 105 11 152 27v-19c-43 -16 -107 -28 -153 -28c-129 0 -197 61 -205 161h-2c-11 -92 -105 -161 -222 -161
c-100 0 -171 43 -171 136v2c0 113 104 131 220 131h162v69c0 105 -34 162 -160 162c-115 0 -173 -48 -177 -137zM432 184v56h-162c-106 0 -200 -13 -200 -112v-2c0 -79 62 -116 152 -116c118 0 210 79 210 174zM635 490c-131 0 -182 -83 -184 -231h357
c0 156 -39 231 -173 231z" />
    <glyph glyph-name="dotlessi" unicode="&#x131;" horiz-adv-x="184" 
d="M82 0v500h20v-500h-20z" />
    <glyph glyph-name="lslash" unicode="&#x142;" horiz-adv-x="188" 
d="M172 419v-21l-68 -44v-354h-20v342l-68 -43v21l68 43v327h20v-315z" />
    <glyph glyph-name="oslash" unicode="&#xf8;" horiz-adv-x="548" 
d="M75 22l31 38c-34 44 -49 108 -49 189v2c0 164 64 259 217 259c69 0 120 -20 155 -56l30 36l14 -12l-32 -39c34 -44 50 -108 50 -188v-2c0 -164 -64 -259 -217 -259c-69 0 -121 19 -156 56l-29 -36zM274 10c140 0 196 86 196 239v2c0 73 -13 131 -42 172l-296 -361
c31 -34 78 -52 142 -52zM78 249c0 -74 13 -132 42 -172l296 360c-32 35 -78 53 -142 53c-140 0 -196 -86 -196 -239v-2z" />
    <glyph glyph-name="oe" unicode="&#x153;" horiz-adv-x="908" 
d="M679 10c46 0 105 11 152 27v-19c-43 -16 -107 -28 -153 -28c-131 0 -190 63 -210 166h-2c-21 -107 -83 -166 -199 -166c-147 0 -210 95 -210 259v2c0 164 63 259 210 259c116 0 179 -62 200 -169h2c20 106 78 169 194 169c145 0 193 -87 193 -245v-25h-377
c2 -142 45 -230 200 -230zM267 10c134 0 190 86 190 239v2c0 153 -56 239 -190 239s-189 -86 -189 -239v-2c0 -153 55 -239 189 -239zM663 490c-131 0 -182 -83 -184 -231h357c0 156 -39 231 -173 231z" />
    <glyph glyph-name="germandbls" unicode="&#xdf;" horiz-adv-x="576" 
d="M296 682c-106 0 -194 -31 -194 -165v-517h-20v518c0 144 97 184 214 184c107 0 193 -50 193 -158v-2c0 -105 -69 -147 -123 -157v-2c65 -6 166 -48 166 -189v-2c0 -155 -83 -202 -219 -202c-29 0 -60 3 -81 7v20c22 -4 53 -7 81 -7c125 0 199 38 199 182v2
c0 132 -95 180 -221 180h-35v20h45c98 0 168 48 168 148v2c0 98 -77 138 -173 138z" />
    <glyph glyph-name="logicalnot" unicode="&#xac;" horiz-adv-x="574" 
d="M466 117v245h-410v20h430v-265h-20z" />
    <glyph glyph-name="mu" unicode="&#xb5;" horiz-adv-x="530" 
d="M82 -170v670h20v-297c0 -117 83 -193 193 -193c89 0 141 43 141 158v332h20v-332c0 -126 -59 -178 -160 -178c-95 0 -169 53 -192 126h-2v-286h-20z" />
    <glyph glyph-name="trademark" unicode="&#x2122;" horiz-adv-x="736" 
d="M284 690v-20h-114v-320h-20v320h-114v20h248zM518 450h-18l-116 220h-2v-320h-20v340h32l115 -218l115 218h32v-340h-20v320h-2z" />
    <glyph glyph-name="Eth" unicode="&#xd0;" horiz-adv-x="644" 
d="M16 344v20h70v326h204c197 0 294 -107 294 -344v-2c0 -237 -105 -344 -302 -344h-196v344h-70zM106 20h176c184 0 281 100 281 324v2c0 224 -89 324 -273 324h-184v-306h215v-20h-215v-324z" />
    <glyph glyph-name="plusminus" unicode="&#xb1;" horiz-adv-x="540" 
d="M50 291h210v190h20v-190h210v-20h-210v-190h-20v190h-210v20zM50 20h440v-20h-440v20z" />
    <glyph glyph-name="Thorn" unicode="&#xde;" horiz-adv-x="572" 
d="M104 200v-200h-20v690h20v-110h189c163 0 225 -57 225 -189v-2c0 -132 -62 -189 -225 -189h-189zM104 220h189c152 0 205 48 205 169v2c0 121 -53 169 -205 169h-189v-340z" />
    <glyph glyph-name="divide" unicode="&#xf7;" horiz-adv-x="540" 
d="M50 261h440v-20h-440v20zM244 366v52h52v-52h-52zM244 82v52h52v-52h-52z" />
    <glyph glyph-name="brokenbar" unicode="&#xa6;" horiz-adv-x="200" 
d="M90 385v305h20v-305h-20zM90 -105v305h20v-305h-20z" />
    <glyph glyph-name="degree" unicode="&#xb0;" horiz-adv-x="420" 
d="M210 380c83 0 120 54 120 134v2c0 80 -37 134 -120 134s-120 -54 -120 -134v-2c0 -80 37 -134 120 -134zM210 669c94 0 140 -62 140 -153v-2c0 -91 -46 -153 -140 -153s-140 62 -140 153v2c0 91 46 153 140 153z" />
    <glyph glyph-name="thorn" unicode="&#xfe;" 
d="M104 116h-2v-286h-20v860h20v-306h2c23 71 91 126 189 126c145 0 210 -97 210 -259v-2c0 -162 -62 -259 -208 -259c-103 0 -170 62 -191 126zM102 297v-94c0 -108 79 -193 194 -193c132 0 186 88 186 239v2c0 151 -57 239 -189 239c-113 0 -191 -78 -191 -193z" />
    <glyph glyph-name="registered" unicode="&#xae;" horiz-adv-x="808" 
d="M748 346v-2c0 -224 -117 -356 -344 -356s-344 132 -344 356v2c0 224 117 356 344 356s344 -132 344 -356zM728 344v2c0 212 -115 336 -324 336s-324 -124 -324 -336v-2c0 -212 115 -336 324 -336s324 124 324 336zM307 314v-164h-20v390h142c92 0 136 -31 136 -113v-1
c0 -78 -39 -104 -116 -112l120 -164h-23l-119 164h-120zM307 334h122c86 0 116 23 116 92v1c0 72 -30 93 -116 93h-122v-186z" />
    <glyph glyph-name="minus" unicode="&#x2212;" horiz-adv-x="540" 
d="M50 261h440v-20h-440v20z" />
    <glyph glyph-name="eth" unicode="&#xf0;" horiz-adv-x="542" 
d="M186 544l-10 17l104 60c-28 24 -60 46 -93 64l13 16c34 -20 67 -45 97 -71l114 66l10 -17l-108 -62c102 -96 170 -226 170 -374v-2c0 -154 -60 -251 -213 -251s-213 97 -213 251v2c0 154 60 251 213 251c69 0 119 -22 156 -66h2c-27 59 -73 125 -132 180zM270 10
c140 0 192 88 192 231v2c0 133 -52 231 -192 231s-192 -88 -192 -231v-2c0 -143 52 -231 192 -231z" />
    <glyph glyph-name="multiply" unicode="&#xd7;" horiz-adv-x="540" 
d="M79 74l177 177l-177 177l14 14l177 -177l177 177l14 -14l-177 -177l177 -177l-14 -14l-177 177l-177 -177z" />
    <glyph glyph-name="copyright" unicode="&#xa9;" horiz-adv-x="808" 
d="M748 346v-2c0 -224 -117 -356 -344 -356s-344 132 -344 356v2c0 224 117 356 344 356s344 -132 344 -356zM728 344v2c0 212 -115 336 -324 336s-324 -124 -324 -336v-2c0 -212 115 -336 324 -336s324 124 324 336zM418 162c87 0 134 40 137 104h18
c-1 -74 -57 -124 -155 -124c-122 0 -178 73 -178 202v2c0 128 56 202 177 202c96 0 150 -48 152 -123h-19c-2 60 -48 103 -133 103c-110 0 -157 -65 -157 -182v-2c0 -118 47 -182 158 -182z" />
    <glyph glyph-name="Aacute" unicode="&#xc1;" horiz-adv-x="584" 
d="M303 690l259 -690h-23l-79 214h-336l-79 -214h-23l259 690h22zM453 234l-160 427h-2l-160 -427h322zM412 866l-105 -126h-19l90 126h34z" />
    <glyph glyph-name="Acircumflex" unicode="&#xc2;" horiz-adv-x="584" 
d="M303 690l259 -690h-23l-79 214h-336l-79 -214h-23l259 690h22zM453 234l-160 427h-2l-160 -427h322zM292 845l-88 -105h-19l96 126h22l96 -126h-19z" />
    <glyph glyph-name="Adieresis" unicode="&#xc4;" horiz-adv-x="584" 
d="M303 690l259 -690h-23l-79 214h-336l-79 -214h-23l259 690h22zM453 234l-160 427h-2l-160 -427h322zM204 750v94h20v-94h-20zM360 750v94h20v-94h-20z" />
    <glyph glyph-name="Agrave" unicode="&#xc0;" horiz-adv-x="584" 
d="M303 690l259 -690h-23l-79 214h-336l-79 -214h-23l259 690h22zM453 234l-160 427h-2l-160 -427h322zM275 740l-105 126h34l90 -126h-19z" />
    <glyph glyph-name="Aring" unicode="&#xc5;" horiz-adv-x="584" 
d="M303 690l259 -690h-23l-79 214h-336l-79 -214h-23l259 690h22zM453 234l-160 427h-2l-160 -427h322zM292 896c55 0 88 -34 88 -83s-33 -83 -88 -83s-88 34 -88 83s33 83 88 83zM292 748c45 0 69 25 69 65s-24 65 -69 65s-69 -25 -69 -65s24 -65 69 -65z" />
    <glyph glyph-name="Ccedilla" unicode="&#xc7;" horiz-adv-x="664" 
d="M345 682c-187 0 -264 -104 -264 -336v-2c0 -232 78 -336 264 -336c152 0 235 75 247 217h20c-13 -140 -89 -226 -238 -236l-27 -47c7 2 17 4 26 4c48 0 69 -25 69 -63c0 -47 -30 -67 -77 -67c-27 0 -47 4 -64 10v19c19 -6 37 -9 64 -9c37 0 56 14 56 47
c0 32 -18 43 -49 43c-18 0 -31 -4 -40 -8l-12 18l35 52c-208 0 -295 111 -295 356v2c0 245 85 356 285 356c161 0 243 -80 258 -205h-20c-14 109 -85 185 -238 185z" />
    <glyph glyph-name="Eacute" unicode="&#xc9;" horiz-adv-x="556" 
d="M500 690v-20h-396v-306h364v-20h-364v-324h400v-20h-420v690h416zM370 866l-105 -126h-19l90 126h34z" />
    <glyph glyph-name="Ecircumflex" unicode="&#xca;" horiz-adv-x="556" 
d="M500 690v-20h-396v-306h364v-20h-364v-324h400v-20h-420v690h416zM298 845l-88 -105h-19l96 126h22l96 -126h-19z" />
    <glyph glyph-name="Edieresis" unicode="&#xcb;" horiz-adv-x="556" 
d="M500 690v-20h-396v-306h364v-20h-364v-324h400v-20h-420v690h416zM210 750v94h20v-94h-20zM366 750v94h20v-94h-20z" />
    <glyph glyph-name="Egrave" unicode="&#xc8;" horiz-adv-x="556" 
d="M500 690v-20h-396v-306h364v-20h-364v-324h400v-20h-420v690h416zM331 740l-105 126h34l90 -126h-19z" />
    <glyph glyph-name="Iacute" unicode="&#xcd;" horiz-adv-x="194" 
d="M87 0v690h20v-690h-20zM211 866l-105 -126h-19l90 126h34z" />
    <glyph glyph-name="Icircumflex" unicode="&#xce;" horiz-adv-x="194" 
d="M87 0v690h20v-690h-20zM97 845l-88 -105h-19l96 126h22l96 -126h-19z" />
    <glyph glyph-name="Idieresis" unicode="&#xcf;" horiz-adv-x="194" 
d="M87 0v690h20v-690h-20zM29 750v94h20v-94h-20zM145 750v94h20v-94h-20z" />
    <glyph glyph-name="Igrave" unicode="&#xcc;" horiz-adv-x="194" 
d="M87 0v690h20v-690h-20zM88 740l-105 126h34l90 -126h-19z" />
    <glyph glyph-name="Ntilde" unicode="&#xd1;" horiz-adv-x="650" 
d="M566 690v-690h-28l-432 664h-2v-664h-20v690h28l432 -664h2v664h20zM215 754h-20c0 49 16 88 65 88c54 0 85 -68 131 -68c33 0 44 25 44 67h20c0 -49 -16 -88 -65 -88c-54 0 -85 68 -131 68c-33 0 -44 -25 -44 -67z" />
    <glyph glyph-name="Oacute" unicode="&#xd3;" horiz-adv-x="682" 
d="M341 702c197 0 281 -111 281 -356v-2c0 -245 -84 -356 -281 -356s-281 111 -281 356v2c0 245 84 356 281 356zM341 8c184 0 260 104 260 336v2c0 232 -76 336 -260 336s-260 -104 -260 -336v-2c0 -232 76 -336 260 -336zM403 866l-105 -126h-19l90 126h34z" />
    <glyph glyph-name="Ocircumflex" unicode="&#xd4;" horiz-adv-x="682" 
d="M341 702c197 0 281 -111 281 -356v-2c0 -245 -84 -356 -281 -356s-281 111 -281 356v2c0 245 84 356 281 356zM341 8c184 0 260 104 260 336v2c0 232 -76 336 -260 336s-260 -104 -260 -336v-2c0 -232 76 -336 260 -336zM341 845l-88 -105h-19l96 126h22l96 -126h-19z
" />
    <glyph glyph-name="Odieresis" unicode="&#xd6;" horiz-adv-x="682" 
d="M341 702c197 0 281 -111 281 -356v-2c0 -245 -84 -356 -281 -356s-281 111 -281 356v2c0 245 84 356 281 356zM341 8c184 0 260 104 260 336v2c0 232 -76 336 -260 336s-260 -104 -260 -336v-2c0 -232 76 -336 260 -336zM253 750v94h20v-94h-20zM409 750v94h20v-94h-20z
" />
    <glyph glyph-name="Ograve" unicode="&#xd2;" horiz-adv-x="682" 
d="M341 702c197 0 281 -111 281 -356v-2c0 -245 -84 -356 -281 -356s-281 111 -281 356v2c0 245 84 356 281 356zM341 8c184 0 260 104 260 336v2c0 232 -76 336 -260 336s-260 -104 -260 -336v-2c0 -232 76 -336 260 -336zM384 740l-105 126h34l90 -126h-19z" />
    <glyph glyph-name="Otilde" unicode="&#xd5;" horiz-adv-x="682" 
d="M341 702c197 0 281 -111 281 -356v-2c0 -245 -84 -356 -281 -356s-281 111 -281 356v2c0 245 84 356 281 356zM341 8c184 0 260 104 260 336v2c0 232 -76 336 -260 336s-260 -104 -260 -336v-2c0 -232 76 -336 260 -336zM231 754h-20c0 49 16 88 65 88
c54 0 85 -68 131 -68c33 0 44 25 44 67h20c0 -49 -16 -88 -65 -88c-54 0 -85 68 -131 68c-33 0 -44 -25 -44 -67z" />
    <glyph glyph-name="Scaron" unicode="&#x160;" horiz-adv-x="598" 
d="M346 342l-79 12c-122 18 -198 60 -198 172v2c0 134 96 174 225 174c155 0 232 -69 233 -205h-19c-4 131 -76 185 -214 185c-115 0 -205 -32 -205 -154v-2c0 -101 65 -134 183 -152l79 -12c128 -19 193 -72 193 -184v-2c0 -134 -93 -188 -237 -188
c-153 0 -257 69 -257 229h19c0 -147 100 -209 238 -209c130 0 217 47 217 168v2c0 102 -61 147 -178 164zM211 866l88 -105l88 105h19l-96 -126h-22l-96 126h19z" />
    <glyph glyph-name="Uacute" unicode="&#xda;" horiz-adv-x="616" 
d="M308 -12c-159 0 -232 72 -232 249v453h20v-453c0 -166 64 -229 212 -229s212 63 212 229v453h20v-453c0 -177 -73 -249 -232 -249zM370 866l-105 -126h-19l90 126h34z" />
    <glyph glyph-name="Ucircumflex" unicode="&#xdb;" horiz-adv-x="616" 
d="M308 -12c-159 0 -232 72 -232 249v453h20v-453c0 -166 64 -229 212 -229s212 63 212 229v453h20v-453c0 -177 -73 -249 -232 -249zM308 845l-88 -105h-19l96 126h22l96 -126h-19z" />
    <glyph glyph-name="Udieresis" unicode="&#xdc;" horiz-adv-x="616" 
d="M308 -12c-159 0 -232 72 -232 249v453h20v-453c0 -166 64 -229 212 -229s212 63 212 229v453h20v-453c0 -177 -73 -249 -232 -249zM220 750v94h20v-94h-20zM376 750v94h20v-94h-20z" />
    <glyph glyph-name="Ugrave" unicode="&#xd9;" horiz-adv-x="616" 
d="M308 -12c-159 0 -232 72 -232 249v453h20v-453c0 -166 64 -229 212 -229s212 63 212 229v453h20v-453c0 -177 -73 -249 -232 -249zM351 740l-105 126h34l90 -126h-19z" />
    <glyph glyph-name="Yacute" unicode="&#xdd;" horiz-adv-x="556" 
d="M278 307l240 383h24l-254 -406v-284h-20v284l-254 406h24zM340 866l-105 -126h-19l90 126h34z" />
    <glyph glyph-name="Ydieresis" unicode="&#x178;" horiz-adv-x="556" 
d="M278 307l240 383h24l-254 -406v-284h-20v284l-254 406h24zM190 750v94h20v-94h-20zM346 750v94h20v-94h-20z" />
    <glyph glyph-name="Zcaron" unicode="&#x17d;" horiz-adv-x="534" 
d="M55 20h447v-20h-472v20l438 650h-420v20h445v-20zM179 866l88 -105l88 105h19l-96 -126h-22l-96 126h19z" />
    <glyph glyph-name="aacute" unicode="&#xe1;" horiz-adv-x="516" 
d="M422 184v90l-155 -15c-106 -10 -197 -32 -197 -131v-2c0 -79 58 -116 134 -116c120 0 218 79 218 174zM95 353h-19c2 99 64 157 192 157c138 0 174 -67 174 -160v-350h-19l-1 108h-2c-29 -60 -103 -118 -217 -118c-86 0 -153 43 -153 136v2c0 113 101 140 212 150l160 15
v57c0 83 -28 140 -154 140c-115 0 -169 -48 -173 -137zM320 686l-105 -126h-19l90 126h34z" />
    <glyph glyph-name="acircumflex" unicode="&#xe2;" horiz-adv-x="516" 
d="M422 184v90l-155 -15c-106 -10 -197 -32 -197 -131v-2c0 -79 58 -116 134 -116c120 0 218 79 218 174zM95 353h-19c2 99 64 157 192 157c138 0 174 -67 174 -160v-350h-19l-1 108h-2c-29 -60 -103 -118 -217 -118c-86 0 -153 43 -153 136v2c0 113 101 140 212 150l160 15
v57c0 83 -28 140 -154 140c-115 0 -169 -48 -173 -137zM258 665l-88 -105h-19l96 126h22l96 -126h-19z" />
    <glyph glyph-name="adieresis" unicode="&#xe4;" horiz-adv-x="516" 
d="M422 184v90l-155 -15c-106 -10 -197 -32 -197 -131v-2c0 -79 58 -116 134 -116c120 0 218 79 218 174zM95 353h-19c2 99 64 157 192 157c138 0 174 -67 174 -160v-350h-19l-1 108h-2c-29 -60 -103 -118 -217 -118c-86 0 -153 43 -153 136v2c0 113 101 140 212 150l160 15
v57c0 83 -28 140 -154 140c-115 0 -169 -48 -173 -137zM170 570v94h20v-94h-20zM326 570v94h20v-94h-20z" />
    <glyph glyph-name="agrave" unicode="&#xe0;" horiz-adv-x="516" 
d="M422 184v90l-155 -15c-106 -10 -197 -32 -197 -131v-2c0 -79 58 -116 134 -116c120 0 218 79 218 174zM95 353h-19c2 99 64 157 192 157c138 0 174 -67 174 -160v-350h-19l-1 108h-2c-29 -60 -103 -118 -217 -118c-86 0 -153 43 -153 136v2c0 113 101 140 212 150l160 15
v57c0 83 -28 140 -154 140c-115 0 -169 -48 -173 -137zM301 560l-105 126h34l90 -126h-19z" />
    <glyph glyph-name="aring" unicode="&#xe5;" horiz-adv-x="516" 
d="M422 184v90l-155 -15c-106 -10 -197 -32 -197 -131v-2c0 -79 58 -116 134 -116c120 0 218 79 218 174zM95 353h-19c2 99 64 157 192 157c138 0 174 -67 174 -160v-350h-19l-1 108h-2c-29 -60 -103 -118 -217 -118c-86 0 -153 43 -153 136v2c0 113 101 140 212 150l160 15
v57c0 83 -28 140 -154 140c-115 0 -169 -48 -173 -137zM258 726c55 0 88 -34 88 -83s-33 -83 -88 -83s-88 34 -88 83s33 83 88 83zM258 578c45 0 69 25 69 65s-24 65 -69 65s-69 -25 -69 -65s24 -65 69 -65z" />
    <glyph glyph-name="ccedilla" unicode="&#xe7;" horiz-adv-x="521" 
d="M278 10c112 0 168 53 172 139h19c-2 -88 -57 -149 -164 -158l-29 -49c7 2 17 4 26 4c48 0 69 -25 69 -63c0 -47 -30 -67 -77 -67c-27 0 -47 4 -64 10v19c19 -6 37 -9 64 -9c37 0 56 14 56 47c0 32 -18 43 -49 43c-18 0 -31 -4 -40 -8l-12 18l36 54
c-163 0 -228 94 -228 259v2c0 164 64 259 219 259c123 0 185 -60 187 -157h-19c-4 88 -58 137 -168 137c-142 0 -198 -86 -198 -239v-2c0 -154 57 -239 200 -239z" />
    <glyph glyph-name="eacute" unicode="&#xe9;" horiz-adv-x="521" 
d="M285 10c50 0 112 11 159 27v-19c-43 -16 -110 -28 -160 -28c-170 0 -227 100 -227 259v2c0 164 62 259 212 259c149 0 200 -87 200 -245v-25h-391c2 -142 48 -230 207 -230zM269 490c-135 0 -189 -83 -191 -231h371c0 156 -42 231 -180 231zM322 686l-105 -126h-19
l90 126h34z" />
    <glyph glyph-name="ecircumflex" unicode="&#xea;" horiz-adv-x="521" 
d="M285 10c50 0 112 11 159 27v-19c-43 -16 -110 -28 -160 -28c-170 0 -227 100 -227 259v2c0 164 62 259 212 259c149 0 200 -87 200 -245v-25h-391c2 -142 48 -230 207 -230zM269 490c-135 0 -189 -83 -191 -231h371c0 156 -42 231 -180 231zM260 665l-88 -105h-19l96 126
h22l96 -126h-19z" />
    <glyph glyph-name="edieresis" unicode="&#xeb;" horiz-adv-x="521" 
d="M285 10c50 0 112 11 159 27v-19c-43 -16 -110 -28 -160 -28c-170 0 -227 100 -227 259v2c0 164 62 259 212 259c149 0 200 -87 200 -245v-25h-391c2 -142 48 -230 207 -230zM269 490c-135 0 -189 -83 -191 -231h371c0 156 -42 231 -180 231zM172 570v94h20v-94h-20z
M328 570v94h20v-94h-20z" />
    <glyph glyph-name="egrave" unicode="&#xe8;" horiz-adv-x="521" 
d="M285 10c50 0 112 11 159 27v-19c-43 -16 -110 -28 -160 -28c-170 0 -227 100 -227 259v2c0 164 62 259 212 259c149 0 200 -87 200 -245v-25h-391c2 -142 48 -230 207 -230zM269 490c-135 0 -189 -83 -191 -231h371c0 156 -42 231 -180 231zM303 560l-105 126h34l90 -126
h-19z" />
    <glyph glyph-name="iacute" unicode="&#xed;" horiz-adv-x="184" 
d="M82 0v500h20v-500h-20zM206 686l-105 -126h-19l90 126h34z" />
    <glyph glyph-name="icircumflex" unicode="&#xee;" horiz-adv-x="184" 
d="M82 0v500h20v-500h-20zM92 665l-88 -105h-19l96 126h22l96 -126h-19z" />
    <glyph glyph-name="idieresis" unicode="&#xef;" horiz-adv-x="184" 
d="M82 0v500h20v-500h-20zM24 570v94h20v-94h-20zM140 570v94h20v-94h-20z" />
    <glyph glyph-name="igrave" unicode="&#xec;" horiz-adv-x="184" 
d="M82 0v500h20v-500h-20zM83 560l-105 126h34l90 -126h-19z" />
    <glyph glyph-name="ntilde" unicode="&#xf1;" horiz-adv-x="530" 
d="M80 0v500h19l1 -116h2c23 73 99 126 195 126c102 0 159 -50 159 -176v-334h-20v334c0 115 -50 156 -140 156c-111 0 -196 -76 -196 -193v-297h-20zM155 574h-20c0 49 16 88 65 88c54 0 85 -68 131 -68c33 0 44 25 44 67h20c0 -49 -16 -88 -65 -88c-54 0 -85 68 -131 68
c-33 0 -44 -25 -44 -67z" />
    <glyph glyph-name="oacute" unicode="&#xf3;" horiz-adv-x="548" 
d="M274 10c140 0 196 86 196 239v2c0 153 -56 239 -196 239s-196 -86 -196 -239v-2c0 -153 56 -239 196 -239zM274 510c153 0 217 -95 217 -259v-2c0 -164 -64 -259 -217 -259s-217 95 -217 259v2c0 164 64 259 217 259zM336 686l-105 -126h-19l90 126h34z" />
    <glyph glyph-name="ocircumflex" unicode="&#xf4;" horiz-adv-x="548" 
d="M274 10c140 0 196 86 196 239v2c0 153 -56 239 -196 239s-196 -86 -196 -239v-2c0 -153 56 -239 196 -239zM274 510c153 0 217 -95 217 -259v-2c0 -164 -64 -259 -217 -259s-217 95 -217 259v2c0 164 64 259 217 259zM274 665l-88 -105h-19l96 126h22l96 -126h-19z" />
    <glyph glyph-name="odieresis" unicode="&#xf6;" horiz-adv-x="548" 
d="M274 10c140 0 196 86 196 239v2c0 153 -56 239 -196 239s-196 -86 -196 -239v-2c0 -153 56 -239 196 -239zM274 510c153 0 217 -95 217 -259v-2c0 -164 -64 -259 -217 -259s-217 95 -217 259v2c0 164 64 259 217 259zM186 570v94h20v-94h-20zM342 570v94h20v-94h-20z" />
    <glyph glyph-name="ograve" unicode="&#xf2;" horiz-adv-x="548" 
d="M274 10c140 0 196 86 196 239v2c0 153 -56 239 -196 239s-196 -86 -196 -239v-2c0 -153 56 -239 196 -239zM274 510c153 0 217 -95 217 -259v-2c0 -164 -64 -259 -217 -259s-217 95 -217 259v2c0 164 64 259 217 259zM317 560l-105 126h34l90 -126h-19z" />
    <glyph glyph-name="otilde" unicode="&#xf5;" horiz-adv-x="548" 
d="M274 10c140 0 196 86 196 239v2c0 153 -56 239 -196 239s-196 -86 -196 -239v-2c0 -153 56 -239 196 -239zM274 510c153 0 217 -95 217 -259v-2c0 -164 -64 -259 -217 -259s-217 95 -217 259v2c0 164 64 259 217 259zM164 574h-20c0 49 16 88 65 88c54 0 85 -68 131 -68
c33 0 44 25 44 67h20c0 -49 -16 -88 -65 -88c-54 0 -85 68 -131 68c-33 0 -44 -25 -44 -67z" />
    <glyph glyph-name="scaron" unicode="&#x161;" horiz-adv-x="498" 
d="M249 10c117 0 175 35 175 116v2c0 69 -41 98 -141 112l-58 8c-106 15 -154 45 -154 129v2c0 79 56 131 175 131c129 0 183 -59 185 -155h-19c-4 88 -50 135 -166 135c-105 0 -155 -42 -155 -111v-2c0 -72 39 -96 136 -109l58 -8c107 -15 159 -50 159 -132v-2
c0 -90 -64 -136 -195 -136c-132 0 -195 62 -197 157h19c4 -86 59 -137 178 -137zM161 686l88 -105l88 105h19l-96 -126h-22l-96 126h19z" />
    <glyph glyph-name="uacute" unicode="&#xfa;" horiz-adv-x="530" 
d="M448 500v-500h-19l-1 116h-2c-23 -73 -97 -126 -192 -126c-101 0 -160 52 -160 178v332h20v-332c0 -115 52 -158 141 -158c110 0 193 76 193 193v297h20zM327 686l-105 -126h-19l90 126h34z" />
    <glyph glyph-name="ucircumflex" unicode="&#xfb;" horiz-adv-x="530" 
d="M448 500v-500h-19l-1 116h-2c-23 -73 -97 -126 -192 -126c-101 0 -160 52 -160 178v332h20v-332c0 -115 52 -158 141 -158c110 0 193 76 193 193v297h20zM265 665l-88 -105h-19l96 126h22l96 -126h-19z" />
    <glyph glyph-name="udieresis" unicode="&#xfc;" horiz-adv-x="530" 
d="M448 500v-500h-19l-1 116h-2c-23 -73 -97 -126 -192 -126c-101 0 -160 52 -160 178v332h20v-332c0 -115 52 -158 141 -158c110 0 193 76 193 193v297h20zM177 570v94h20v-94h-20zM333 570v94h20v-94h-20z" />
    <glyph glyph-name="ugrave" unicode="&#xf9;" horiz-adv-x="530" 
d="M448 500v-500h-19l-1 116h-2c-23 -73 -97 -126 -192 -126c-101 0 -160 52 -160 178v332h20v-332c0 -115 52 -158 141 -158c110 0 193 76 193 193v297h20zM308 560l-105 126h34l90 -126h-19z" />
    <glyph glyph-name="yacute" unicode="&#xfd;" horiz-adv-x="472" 
d="M200 -66l28 70l-208 496h23l194 -468h2l190 468h23l-234 -574c-29 -73 -59 -102 -118 -102c-23 0 -41 4 -52 8v19c12 -4 30 -7 50 -7c49 0 75 24 102 90zM298 686l-105 -126h-19l90 126h34z" />
    <glyph glyph-name="ydieresis" unicode="&#xff;" horiz-adv-x="472" 
d="M200 -66l28 70l-208 496h23l194 -468h2l190 468h23l-234 -574c-29 -73 -59 -102 -118 -102c-23 0 -41 4 -52 8v19c12 -4 30 -7 50 -7c49 0 75 24 102 90zM148 570v94h20v-94h-20zM304 570v94h20v-94h-20z" />
    <glyph glyph-name="zcaron" unicode="&#x17e;" horiz-adv-x="468" 
d="M68 19h356v-19h-380v19l346 462h-328v19h352v-19zM146 686l88 -105l88 105h19l-96 -126h-22l-96 126h19z" />
    <glyph glyph-name="pi" unicode="&#x3c0;" horiz-adv-x="606" 
d="M434 480v-374c0 -67 21 -94 70 -94c19 0 36 2 56 8v-20c-17 -5 -40 -8 -58 -8c-59 0 -88 36 -88 114v374h-225c-4 -149 -23 -360 -43 -480h-21c22 126 40 327 43 480c-59 0 -97 -2 -130 -8l-2 19c29 6 71 9 132 9h392v-20h-126z" />
    <glyph glyph-name="Euro" unicode="&#x20ac;" 
d="M10 400h72c16 186 102 272 255 272c85 0 130 -30 166 -61l-7 -20c-34 30 -75 61 -160 61c-139 0 -217 -79 -232 -252h339l-5 -20h-336c-3 -33 -2 -66 0 -100h308l-6 -20h-300c16 -174 96 -252 239 -252c90 0 143 29 182 76l7 -21c-39 -43 -96 -75 -189 -75
c-154 0 -244 85 -261 272h-72v20h71c-3 33 -2 66 0 100h-71v20z" />
    <glyph glyph-name="partialdiff" unicode="&#x2202;" horiz-adv-x="550" 
d="M475 293h2c0 218 -38 389 -218 389c-45 0 -81 -6 -109 -18v21c27 11 64 17 108 17c192 0 240 -177 240 -397v-2c0 -206 -74 -314 -235 -314c-133 0 -213 87 -213 217v2c0 137 75 209 203 209c91 0 181 -54 222 -124zM255 397c-119 0 -184 -64 -184 -189v-2
c0 -119 70 -197 192 -197c140 0 205 85 213 252c-39 77 -134 136 -221 136z" />
    <glyph glyph-name="integral" unicode="&#x222b;" horiz-adv-x="332" 
d="M168 12c0 200 -23 338 -24 538c0 118 11 174 87 174c14 0 34 -1 51 -7v-20c-20 6 -34 7 -48 7c-67 0 -70 -47 -70 -154c0 -200 24 -338 24 -538c0 -118 -11 -174 -87 -174c-14 0 -34 1 -51 7v20c20 -6 34 -7 48 -7c67 0 70 47 70 154z" />
    <glyph glyph-name="approxequal" unicode="&#x2248;" horiz-adv-x="540" 
d="M376 310c50 0 74 32 84 74l18 -8c-14 -53 -45 -84 -103 -84c-79 0 -137 80 -211 80c-50 0 -74 -32 -84 -74l-18 8c14 53 45 84 103 84c79 0 137 -80 211 -80zM376 134c50 0 74 32 84 74l18 -8c-14 -53 -45 -84 -103 -84c-79 0 -137 80 -211 80c-50 0 -74 -32 -84 -74
l-18 8c14 53 45 84 103 84c79 0 137 -80 211 -80z" />
    <glyph glyph-name="notequal" unicode="&#x2260;" horiz-adv-x="540" 
d="M50 351h265l83 149h22l-83 -149h153v-20h-164l-89 -160h253v-20h-264l-84 -151h-22l84 151h-154v20h165l89 160h-254v20z" />
    <glyph glyph-name="lessequal" unicode="&#x2264;" horiz-adv-x="540" 
d="M74 20h346v-20h-346v20zM74 290l346 210v-21l-324 -196l324 -196v-21l-346 210v14z" />
    <glyph glyph-name="greaterequal" unicode="&#x2265;" horiz-adv-x="540" 
d="M120 20h346v-20h-346v20zM120 500l346 -210v-14l-346 -210v21l324 196l-324 196v21z" />
    <glyph glyph-name="atilde" unicode="&#xe3;" horiz-adv-x="516" 
d="M422 184v90l-155 -15c-106 -10 -197 -32 -197 -131v-2c0 -79 58 -116 134 -116c120 0 218 79 218 174zM95 353h-19c2 99 64 157 192 157c138 0 174 -67 174 -160v-350h-19l-1 108h-2c-29 -60 -103 -118 -217 -118c-86 0 -153 43 -153 136v2c0 113 101 140 212 150l160 15
v57c0 83 -28 140 -154 140c-115 0 -169 -48 -173 -137zM148 574h-20c0 49 16 88 65 88c54 0 85 -68 131 -68c33 0 44 25 44 67h20c0 -49 -16 -88 -65 -88c-54 0 -85 68 -131 68c-33 0 -44 -25 -44 -67z" />
    <glyph glyph-name="infinity" unicode="&#x221e;" horiz-adv-x="714" 
d="M356 269c45 54 101 114 176 114c71 0 122 -59 122 -130v-2c0 -75 -49 -133 -127 -133c-69 0 -120 61 -169 115c-45 -54 -101 -114 -176 -114c-71 0 -122 59 -122 130v2c0 75 49 133 127 133c69 0 120 -61 169 -115zM185 139c65 0 124 66 161 111c-43 49 -87 114 -162 114
c-61 0 -104 -44 -104 -113v-2c0 -60 41 -110 105 -110zM529 363c-65 0 -124 -66 -161 -111c43 -49 87 -114 162 -114c61 0 104 44 104 113v2c0 60 -41 110 -105 110z" />
    <glyph glyph-name="summation" unicode="&#x2211;" horiz-adv-x="544" 
d="M514 -82h-482v20l272 364l-257 368v20h453v-20h-425v-2l256 -366l-270 -362v-2h453v-20z" />
    <glyph glyph-name="product" unicode="&#x220f;" horiz-adv-x="580" 
d="M554 690v-20h-104v-752h-20v752h-280v-752h-20v752h-104v20h528z" />
    <glyph glyph-name="uni03A9" unicode="&#x3a9;" horiz-adv-x="734" 
d="M367 702c212 0 311 -114 311 -306v-2c0 -208 -110 -288 -218 -314v-60h161v-20h-176l-3 96c124 24 216 104 216 298v2c0 181 -90 286 -291 286s-291 -105 -291 -286v-2c0 -194 92 -274 216 -298l-3 -96h-176v20h161v60c-108 26 -218 106 -218 314v2c0 192 99 306 311 306
z" />
    <glyph glyph-name="radical" unicode="&#x221a;" horiz-adv-x="554" 
d="M508 750l-203 -881h-34l-143 427h-70v20h85l143 -427h2l199 861h21z" />
    <glyph glyph-name="Delta" unicode="&#x2206;" horiz-adv-x="634" 
d="M570 20l-251 652h-4l-251 -652h506zM594 0h-554v20l261 672h32l261 -672v-20z" />
    <glyph glyph-name="ellipsis" unicode="&#x2026;" horiz-adv-x="438" 
d="M62 0v94h22v-94h-22zM208 0v94h22v-94h-22zM354 0v94h22v-94h-22z" />
    <glyph glyph-name="Atilde" unicode="&#xc3;" horiz-adv-x="584" 
d="M303 690l259 -690h-23l-79 214h-336l-79 -214h-23l259 690h22zM453 234l-160 427h-2l-160 -427h322zM182 754h-20c0 49 16 88 65 88c54 0 85 -68 131 -68c33 0 44 25 44 67h20c0 -49 -16 -88 -65 -88c-54 0 -85 68 -131 68c-33 0 -44 -25 -44 -67z" />
    <glyph glyph-name="dieresis" unicode="&#xa8;" horiz-adv-x="224" 
d="M24 570v94h20v-94h-20zM180 570v94h20v-94h-20z" />
    <glyph glyph-name="asciicircum" unicode="^" horiz-adv-x="476" 
d="M421 272l-182 390h-2l-182 -390h-23l195 420h22l195 -420h-23z" />
    <glyph glyph-name="underscore" unicode="_" horiz-adv-x="440" 
d="M0 -67h440v-20h-440v20z" />
    <glyph glyph-name="grave" unicode="`" horiz-adv-x="224" 
d="M155 560l-105 126h34l90 -126h-19z" />
    <glyph glyph-name="asciitilde" unicode="~" horiz-adv-x="464" 
d="M84 253l-14 4c12 58 48 88 90 88c61 0 92 -69 146 -69c38 0 59 24 74 73l14 -4c-12 -58 -48 -88 -90 -88c-61 0 -92 69 -146 69c-38 0 -59 -24 -74 -73z" />
    <glyph glyph-name="uni2215" unicode="&#x2215;" horiz-adv-x="406" 
d="M-40 0l464 690h22l-464 -690h-22z" />
    <glyph glyph-name="lozenge" unicode="&#x25ca;" horiz-adv-x="538" 
d="M75 339l193 -333h2l193 333l-193 333h-2zM50 339l207 353h24l207 -353l-207 -353h-24z" />
    <glyph glyph-name="ring" unicode="&#x2da;" horiz-adv-x="224" 
d="M112 726c55 0 88 -34 88 -83s-33 -83 -88 -83s-88 34 -88 83s33 83 88 83zM112 578c45 0 69 25 69 65s-24 65 -69 65s-69 -25 -69 -65s24 -65 69 -65z" />
    <glyph glyph-name="cedilla" unicode="&#xb8;" horiz-adv-x="224" 
d="M109 6h18l-38 -64c7 2 17 4 26 4c48 0 69 -25 69 -63c0 -47 -30 -67 -77 -67c-27 0 -47 4 -64 10v19c19 -6 37 -9 64 -9c37 0 56 14 56 47c0 32 -18 43 -49 43c-18 0 -31 -4 -40 -8l-12 18z" />
    <glyph glyph-name="ogonek" unicode="&#x2db;" horiz-adv-x="224" 
d="M108 0h19c-50 -26 -83 -61 -83 -100c0 -29 13 -51 53 -51c21 0 43 4 61 14l6 -17c-20 -11 -44 -17 -66 -17c-52 0 -74 29 -74 68c0 44 39 83 84 103z" />
    <glyph glyph-name="a" unicode="a" horiz-adv-x="516" 
d="M422 184v90l-155 -15c-106 -10 -197 -32 -197 -131v-2c0 -79 58 -116 134 -116c120 0 218 79 218 174zM95 353h-19c2 99 64 157 192 157c138 0 174 -67 174 -160v-350h-19l-1 108h-2c-29 -60 -103 -118 -217 -118c-86 0 -153 43 -153 136v2c0 113 101 140 212 150l160 15
v57c0 83 -28 140 -154 140c-115 0 -169 -48 -173 -137z" />
    <glyph glyph-name="c" unicode="c" horiz-adv-x="521" 
d="M278 10c112 0 168 53 172 139h19c-2 -95 -66 -159 -191 -159c-156 0 -221 94 -221 259v2c0 164 64 259 219 259c123 0 185 -60 187 -157h-19c-4 88 -58 137 -168 137c-142 0 -198 -86 -198 -239v-2c0 -154 57 -239 200 -239z" />
    <glyph glyph-name="u" unicode="u" horiz-adv-x="530" 
d="M448 500v-500h-19l-1 116h-2c-23 -73 -97 -126 -192 -126c-101 0 -160 52 -160 178v332h20v-332c0 -115 52 -158 141 -158c110 0 193 76 193 193v297h20z" />
    <glyph glyph-name="G" unicode="G" horiz-adv-x="686" 
d="M616 364v-364h-19l-1 145h-2c-34 -97 -106 -157 -241 -157c-201 0 -293 111 -293 356v2c0 245 87 356 289 356c163 0 243 -80 258 -205h-18c-14 108 -85 185 -240 185c-189 0 -268 -104 -268 -336v-2c0 -232 83 -336 272 -336c175 0 243 117 243 248v88h-228v20h248z" />
    <glyph glyph-name="uniF8FF" unicode="&#xf8ff;" horiz-adv-x="2236" 
d="M197 426c0 16 -27 24 -53 33c-42 15 -80 28 -80 75c0 39 34 72 93 72c46 0 92 -30 97 -80h-58c-2 17 -22 27 -40 27c-23 0 -34 -8 -34 -18c0 -14 22 -20 42 -28c50 -17 91 -33 91 -78c0 -49 -45 -77 -96 -77c-52 0 -97 31 -103 82h60c3 -21 23 -30 45 -30s36 7 36 22z
M467 602v-53h-73v-193h-59v193h-73v53h205zM575 602l109 -246h-61l-19 44h-100l-20 -44h-60l109 246h42zM525 450h57l-28 70zM851 602l54 -162l52 162h61l-80 -246h-53l-58 156l-56 -156h-53l-81 246h61l52 -162l54 162h47zM1093 602v-246h-58v246h58zM1288 356l-59 83
l-57 -83h-66l90 127l-84 119h67l50 -74l52 74h67l-84 -119l90 -127h-66zM245 170h-117v-43h112v-53h-112v-98h-59v246h176v-52zM509 99c0 -69 -55 -126 -125 -126c-71 0 -123 57 -123 126s52 127 123 127c70 0 125 -58 125 -127zM449 99c0 45 -30 73 -65 73s-65 -28 -65 -73
c0 -44 30 -73 65 -73s65 29 65 73zM694 81v141h58v-141c0 -66 -41 -108 -110 -108s-111 42 -111 108v141h59v-141c0 -34 17 -55 52 -55s52 21 52 55zM1010 222v-246h-58l-111 154v-154h-58v246h53l115 -157v157h59zM1040 -24v246h103c79 0 122 -50 122 -122
c0 -74 -41 -124 -120 -124h-105zM1099 30h46c44 0 61 27 61 70c0 41 -19 69 -63 69h-44v-139zM1348 64v-88h-59v246h110c52 0 93 -29 93 -80c0 -39 -24 -67 -57 -74l64 -92h-64l-62 88h-25zM1348 116h52c18 0 34 8 34 26c0 19 -16 28 -35 28h-51v-54zM1544 222l55 -91l55 91
h63l-88 -143v-103h-60v103l-88 143h63zM2178 -200h-2119c-4 0 -9 4 -9 9s5 9 9 9h2119c4 0 8 -4 8 -9s-4 -9 -8 -9zM2178 782h-2119c-4 0 -9 4 -9 9s5 9 9 9h2119c4 0 8 -4 8 -9s-4 -9 -8 -9z" />
    <glyph glyph-name="uni00A0" unicode="&#xa0;" horiz-adv-x="0" 
 />
    <glyph glyph-name="zero.tab" 
d="M38 329v2c0 193 56 340 242 340s242 -147 242 -340v-2c0 -193 -56 -340 -242 -340s-242 147 -242 340zM501 329v2c0 182 -56 320 -221 320s-221 -138 -221 -320v-2c0 -182 56 -320 221 -320s221 138 221 320z" />
    <glyph glyph-name="one.tab" 
d="M290 0v636c-29 -20 -76 -44 -132 -46v19c46 2 99 26 136 53h16v-662h-20z" />
    <glyph glyph-name="two.tab" 
d="M93 20h404v-20h-424v20c0 204 390 263 390 466v2c0 115 -56 163 -182 163c-138 0 -181 -61 -181 -185h-19c0 135 51 205 200 205c137 0 202 -57 202 -183v-2c0 -216 -390 -275 -390 -466z" />
    <glyph glyph-name="three.tab" 
d="M283 9c127 0 199 56 199 171v2c0 100 -72 161 -175 161h-74v20h74c89 0 154 51 154 140v2c0 109 -72 146 -184 146c-138 0 -194 -61 -194 -185h-19c0 135 64 205 213 205c123 0 204 -46 204 -166v-2c0 -99 -61 -139 -124 -149v-2c72 -9 145 -65 145 -170v-2
c0 -126 -81 -191 -219 -191c-161 0 -229 70 -229 205v12h19v-12c0 -124 60 -185 210 -185z" />
    <glyph glyph-name="four.tab" 
d="M408 187v455h-3l-329 -455h332zM408 167h-354v22l342 473h32v-475h94v-20h-94v-167h-20v167z" />
    <glyph glyph-name="five.tab" 
d="M466 640h-327l-37 -297h2c41 48 108 74 190 74c133 0 208 -69 208 -207v-2c0 -140 -69 -219 -221 -219c-155 0 -213 82 -213 212h20c0 -119 49 -192 193 -192c141 0 201 70 201 199v2c0 127 -66 187 -188 187c-83 0 -153 -31 -190 -80h-26l44 343h344v-20z" />
    <glyph glyph-name="six.tab" 
d="M83 293h2c41 70 131 124 222 124c128 0 203 -72 203 -209v-2c0 -130 -80 -217 -213 -217c-161 0 -235 108 -235 314v2c0 220 48 366 230 366c136 -1 192 -70 199 -173h-19c-8 92 -56 153 -181 153c-170 0 -208 -140 -208 -358zM305 397c-87 0 -182 -59 -221 -136
c8 -167 73 -252 213 -252c122 0 192 78 192 197v2c0 125 -65 189 -184 189z" />
    <glyph glyph-name="seven.tab" 
d="M457 640h-377v20h400v-20c-139 -198 -229 -400 -271 -640h-20c40 237 130 444 268 640z" />
    <glyph glyph-name="eight.tab" 
d="M280 9c133 0 210 55 210 167v2c0 99 -78 165 -210 165s-210 -66 -210 -165v-2c0 -112 77 -167 210 -167zM280 671c124 0 213 -45 213 -163v-2c0 -95 -84 -147 -148 -152v-2c97 -8 166 -81 166 -174v-2c0 -123 -87 -187 -231 -187s-231 64 -231 187v2c0 93 69 166 166 174
v2c-64 5 -148 57 -148 152v2c0 118 89 163 213 163zM280 363c116 0 192 54 192 143v2c0 108 -79 143 -192 143s-192 -35 -192 -143v-2c0 -89 76 -143 192 -143z" />
    <glyph glyph-name="nine.tab" 
d="M477 367h-2c-41 -70 -131 -124 -222 -124c-128 0 -203 72 -203 209v2c0 130 80 217 213 217c161 0 235 -108 235 -314v-2c0 -220 -48 -366 -230 -366c-136 1 -192 70 -199 173h19c8 -92 56 -153 181 -153c170 0 208 140 208 358zM255 263c87 0 182 59 221 136
c-8 167 -73 252 -213 252c-122 0 -192 -78 -192 -197v-2c0 -125 65 -189 184 -189z" />
    <glyph glyph-name="uni00AD" unicode="&#xad;" horiz-adv-x="262" 
d="M242 282h-222v20h222v-20z" />
    <glyph glyph-name="twosuperior" unicode="&#xb2;" horiz-adv-x="314" 
d="M56 320h222v-20h-242v20c0 113 214 142 214 248v2c0 59 -31 81 -96 81c-71 0 -95 -30 -95 -93h-19c0 74 32 113 114 113c76 0 116 -31 116 -101v-2c0 -119 -214 -148 -214 -248z" />
    <glyph glyph-name="threesuperior" unicode="&#xb3;" horiz-adv-x="332" 
d="M163 315c65 0 105 27 105 86v2c0 55 -39 83 -96 83h-39v20h39c49 0 85 23 85 72v2c0 55 -40 71 -97 71c-71 0 -98 -30 -98 -93h-19c0 74 35 113 117 113c68 0 117 -25 117 -91v-2c0 -54 -32 -76 -68 -82v-1c42 -4 79 -35 79 -92v-2c0 -70 -49 -106 -125 -106
c-89 0 -125 39 -125 113v7h19v-7c0 -63 28 -93 106 -93z" />
    <glyph glyph-name="onesuperior" unicode="&#xb9;" horiz-adv-x="213" 
d="M105 300v345c-16 -11 -50 -28 -81 -29v18c25 1 63 17 83 32h18v-366h-20z" />
    <glyph glyph-name="onequarter" unicode="&#xbc;" horiz-adv-x="750" 
d="M606 103v237h-1l-171 -237h172zM606 84h-195v20l189 262h26v-263h52v-19h-52v-84h-20v84zM138 0l442 660h22l-442 -660h-22zM161 300v345c-16 -11 -50 -28 -81 -29v18c25 1 63 17 83 32h18v-366h-20z" />
    <glyph glyph-name="onehalf" unicode="&#xbd;" horiz-adv-x="750" 
d="M118 0l442 660h22l-442 -660h-22zM161 300v345c-16 -11 -50 -28 -81 -29v18c25 1 63 17 83 32h18v-366h-20zM469 20h221v-20h-241v20c0 113 214 142 214 248v2c0 59 -31 81 -96 81c-71 0 -95 -30 -95 -93h-19c0 74 32 113 114 113c76 0 116 -31 116 -101v-2
c0 -119 -214 -148 -214 -248z" />
    <glyph glyph-name="threequarters" unicode="&#xbe;" horiz-adv-x="750" 
d="M606 103v237h-1l-171 -237h172zM606 84h-195v20l189 262h26v-263h52v-19h-52v-84h-20v84zM182 0l442 660h22l-442 -660h-22zM185 315c65 0 105 27 105 86v2c0 55 -39 83 -96 83h-39v20h39c49 0 85 23 85 72v2c0 55 -40 71 -97 71c-71 0 -98 -30 -98 -93h-19
c0 74 35 113 117 113c68 0 117 -25 117 -91v-2c0 -54 -32 -76 -68 -82v-1c42 -4 79 -35 79 -92v-2c0 -70 -49 -106 -125 -106c-89 0 -125 39 -125 113v7h19v-7c0 -63 28 -93 106 -93z" />
    <glyph glyph-name="afii61289" unicode="&#x2113;" horiz-adv-x="358" 
d="M35 220c26 11 52 25 77 40v227c0 119 23 219 105 219c67 0 91 -73 91 -155v-2c0 -148 -76 -236 -177 -299v-99c0 -105 41 -137 100 -137c22 0 50 4 70 10v-20c-16 -6 -51 -10 -72 -10c-69 0 -117 38 -117 157v88c-23 -13 -46 -25 -70 -36zM131 487v-214
c86 59 157 147 157 276v2c0 73 -17 135 -70 135c-68 0 -87 -88 -87 -199z" />
    <glyph glyph-name="Omega" unicode="&#x2126;" horiz-adv-x="734" 
d="M367 702c212 0 311 -114 311 -306v-2c0 -208 -110 -288 -218 -314v-60h161v-20h-176l-3 96c124 24 216 104 216 298v2c0 181 -90 286 -291 286s-291 -105 -291 -286v-2c0 -194 92 -274 216 -298l-3 -96h-176v20h161v60c-108 26 -218 106 -218 314v2c0 192 99 306 311 306
z" />
    <glyph glyph-name="estimated" unicode="&#x212e;" horiz-adv-x="857" 
d="M820 335h-628c-3 0 -5 -1 -5 -4v-185c0 -15 3 -23 8 -29c59 -68 145 -96 240 -96c103 0 189 36 252 109h58c-72 -84 -183 -139 -311 -139c-221 0 -394 161 -394 358c0 199 169 359 390 359s390 -160 390 -359v-14zM673 365v186c0 20 -3 27 -11 36c-61 60 -137 91 -231 91
c-95 0 -172 -32 -235 -97c-5 -5 -9 -14 -9 -29v-187c0 -3 2 -6 5 -6h476c4 0 5 3 5 6z" />
    <glyph glyph-name="uni02C9" unicode="&#x2c9;" horiz-adv-x="224" 
d="M232 621v-18h-240v18h240z" />
    <glyph glyph-name="uni03BC" unicode="&#x3bc;" horiz-adv-x="530" 
d="M82 -170v670h20v-297c0 -117 83 -193 193 -193c89 0 141 43 141 158v332h20v-332c0 -126 -59 -178 -160 -178c-95 0 -169 53 -192 126h-2v-286h-20z" />
    <glyph glyph-name="fraction" unicode="&#x2044;" horiz-adv-x="406" 
d="M-40 0l464 690h22l-464 -690h-22z" />
    <glyph glyph-name="C" unicode="C" horiz-adv-x="664" 
d="M345 682c-187 0 -264 -104 -264 -336v-2c0 -232 78 -336 264 -336c152 0 235 75 247 217h20c-14 -149 -98 -237 -267 -237c-198 0 -285 111 -285 356v2c0 245 85 356 285 356c161 0 243 -80 258 -205h-20c-14 109 -85 185 -238 185z" />
    </font>
</defs>
</svg>
